<svg width="48" height="49" viewBox="0 0 48 49" fill="none" xmlns="http://www.w3.org/2000/svg">
<path d="M0.504272 47.7647V0.504395H47.4958V47.7647H0.504272Z" stroke="white"/>
<path d="M20.4149 6.85449L27.2227 6.85449V-0.000225067L20.4149 -0.000225067V6.85449Z" fill="white"/>
<path d="M6.80341 6.85449L13.6112 6.85449V-0.000225067L6.80341 -0.000225067L6.80341 6.85449Z" fill="white"/>
<path d="M13.6198 13.7012H20.4276V6.84647L13.6198 6.84647V13.7012Z" fill="white"/>
<path d="M6.81877e-05 13.7012H6.80786L6.80786 6.84647L6.81877e-05 6.84647L6.81877e-05 13.7012Z" fill="white"/>
<path d="M20.4149 20.5513H27.2227V13.6966H20.4149V20.5513Z" fill="white"/>
<path d="M6.80341 20.5513H13.6112V13.6966H6.80341L6.80341 20.5513Z" fill="white"/>
<path d="M13.6198 27.3975H20.4276V20.5427H13.6198V27.3975Z" fill="white"/>
<path d="M6.81877e-05 27.3975H6.80786L6.80786 20.5427H6.81877e-05L6.81877e-05 27.3975Z" fill="white"/>
<path d="M41.2007 20.8711H34.3929V27.7258H41.2007V20.8711Z" fill="white"/>
<path d="M34.3845 27.7134H27.5767V34.5681H34.3845V27.7134Z" fill="white"/>
<path d="M47.9999 27.7134H41.1921V34.5681H47.9999V27.7134Z" fill="white"/>
<path d="M27.5851 34.5933H20.7773V41.448H27.5851V34.5933Z" fill="white"/>
<path d="M41.2007 34.5635H34.3929V41.4182H41.2007V34.5635Z" fill="white"/>
<path d="M34.3845 41.4097H27.5767V48.2644H34.3845V41.4097Z" fill="white"/>
<path d="M47.9999 41.4097H41.1921V48.2644H47.9999V41.4097Z" fill="white"/>
</svg>
