<svg width="48" height="48" viewBox="0 0 48 48" fill="none" xmlns="http://www.w3.org/2000/svg">
<path d="M0.5 47.5V0.5H47.5V47.5H0.5Z" stroke="white"/>
<path d="M10.0327 30.0553H17.4404V22.6645C17.4399 21.9781 17.5746 21.2983 17.8369 20.664C18.0991 20.0297 18.4839 19.4533 18.969 18.9678C19.4542 18.4822 20.0302 18.0971 20.6643 17.8343C21.2984 17.5715 21.9781 17.4362 22.6645 17.4362H30.068V10.0199C30.068 9.33355 30.2032 8.6539 30.466 8.01981C30.7288 7.38573 31.114 6.80964 31.5996 6.32449C32.0851 5.83934 32.6615 5.45462 33.2958 5.19234C33.9301 4.93006 34.6099 4.79534 35.2963 4.7959H42.9288V12.4284C42.9276 13.8136 42.3769 15.1417 41.3975 16.1211C40.418 17.1006 39.0899 17.6513 37.7048 17.6524H30.297V25.0602C30.2981 25.7472 30.1638 26.4276 29.9018 27.0626C29.6398 27.6976 29.2553 28.2748 28.7701 28.7612C28.285 29.2475 27.7087 29.6334 27.0744 29.897C26.44 30.1605 25.7599 30.2964 25.0729 30.297H17.6652V37.7047C17.6652 39.0902 17.1148 40.419 16.1351 41.3987C15.1554 42.3784 13.8266 42.9288 12.4411 42.9288H4.80862V35.2963C4.80639 34.6088 4.93985 33.9277 5.20139 33.2919C5.46292 32.6561 5.84736 32.0782 6.33268 31.5913C6.818 31.1045 7.39465 30.7182 8.02957 30.4546C8.66449 30.191 9.3452 30.0553 10.0327 30.0553Z" fill="white"/>
<path d="M12.4411 4.63916C13.1275 4.63916 13.8072 4.77443 14.4412 5.03723C15.0753 5.30003 15.6514 5.68521 16.1366 6.17075C16.6217 6.6563 17.0064 7.23268 17.2687 7.86698C17.531 8.50128 17.6657 9.18105 17.6651 9.86744V17.4999H10.0326C8.64713 17.4999 7.31838 16.9496 6.33868 15.9699C5.35899 14.9902 4.80859 13.6614 4.80859 12.2759V4.6434L12.4411 4.63916Z" fill="white"/>
<path d="M42.9288 35.1265V42.759H35.2962C33.9096 42.759 32.5798 42.2081 31.5993 41.2277C30.6188 40.2472 30.068 38.9173 30.068 37.5307V29.8982H37.7005C39.0871 29.8982 40.417 30.449 41.3975 31.4295C42.3779 32.41 42.9288 33.7398 42.9288 35.1265Z" fill="white"/>
</svg>
