<svg width="48" height="49" viewBox="0 0 48 49" fill="none" xmlns="http://www.w3.org/2000/svg">
    <path d="M0.5 0.5H47.5V47.9448H0.5V0.5Z" stroke="white"/>
    <path fill-rule="evenodd" clip-rule="evenodd" d="M15.4581 11.6902C13.76 12.3147 12.7206 13.6406 11.8352 15.2532C11.9456 15.2886 12.0425 15.3219 12.1311 15.3523C12.3205 15.4173 12.4718 15.4692 12.6351 15.5013C15.163 16.0103 16.5317 17.4988 16.9124 20.1079C17.1013 21.6896 17.5783 23.2234 18.3196 24.6333C18.4124 24.7968 18.5097 24.9549 18.6113 25.1077C18.5064 25.242 18.4035 25.3819 18.3026 25.5273C17.3395 26.9281 16.9503 28.7658 16.5839 30.4961C16.5565 30.6256 16.5292 30.7544 16.5018 30.8825C15.9586 33.4061 14.7395 34.5695 12.1732 34.5439C12.1148 34.5439 12.0564 34.5854 11.9793 34.6403C11.9377 34.6699 11.8907 34.7034 11.8353 34.7364C12.0741 35.566 12.4754 36.34 13.0158 37.0133C13.5562 37.6867 14.225 38.2459 14.9834 38.6586C16.8775 39.7065 18.1679 38.5064 19.5057 37.2622C19.5877 37.1859 19.67 37.1094 19.7526 37.0333C20.2102 39.5227 21.3822 41.2721 23.4097 42.397C25.4457 41.2208 26.5321 39.3986 27.0283 37.0974C27.3085 37.2893 27.5786 37.4951 27.8452 37.6982C28.9986 38.5768 30.0854 39.4046 31.6349 38.8383C33.3287 38.2138 34.3681 36.8878 35.2535 35.2753C35.1302 35.2368 35.023 35.1999 34.9253 35.1663C34.7519 35.1066 34.6084 35.0573 34.458 35.0272C31.9258 34.5182 30.5613 33.0297 30.1806 30.4205C29.9882 28.839 29.5099 27.3056 28.7691 25.8951C28.6769 25.7327 28.5801 25.5754 28.4792 25.4235C28.5849 25.2883 28.6887 25.1476 28.7905 25.0012C29.749 23.607 30.1353 21.7799 30.4997 20.0568C30.5289 19.9191 30.5578 19.7821 30.5869 19.646C31.1302 17.1224 32.3492 15.9589 34.9156 15.9846C34.974 15.9846 35.0323 15.943 35.1095 15.8881C35.1511 15.8585 35.1981 15.8251 35.2535 15.7921C35.0152 14.9627 34.6141 14.1891 34.0736 13.5164C33.5331 12.8437 32.864 12.2854 32.1054 11.8741C30.2111 10.8222 28.9207 12.0223 27.5828 13.2665C27.5008 13.3428 27.4187 13.4192 27.3362 13.4952C26.8785 11.0101 25.7065 9.2564 23.6791 8.13574C21.6431 9.30773 20.5566 11.1299 20.0605 13.431C19.7829 13.2404 19.5149 13.0361 19.2504 12.8343C18.0964 11.9542 17.0065 11.123 15.4581 11.6902ZM18.6113 25.1077C21.6113 21.2636 26.1537 21.9226 28.4792 25.4235C25.4762 29.2636 20.9368 28.6054 18.6113 25.1077Z" fill="white"/>
</svg>
