<svg width="60" height="89" viewBox="0 0 60 89" fill="none" xmlns="http://www.w3.org/2000/svg">
<path fill-rule="evenodd" clip-rule="evenodd" d="M50.5978 0L58.5884 7.93921V58.3398H7.96418L0 50.4111V0H50.5978Z" fill="#E95B0B"/>
<path fill-rule="evenodd" clip-rule="evenodd" d="M8.0537 68.0056C8.86823 67.9767 9.68101 68.0995 10.4503 68.3676C11.204 68.6443 11.8571 69.1396 12.3255 69.7897C12.8562 70.5177 13.2456 71.3381 13.4738 72.2087C13.732 73.2238 13.8577 74.2679 13.8478 75.3151C13.8642 76.4804 13.7098 77.6418 13.3895 78.7626C13.3562 78.9309 13.3032 79.0947 13.2315 79.2506C12.9515 80.0547 12.5539 80.8133 12.0516 81.5017C11.4992 82.2593 10.778 82.879 9.94467 83.3121C9.10852 83.7116 8.19086 83.9127 7.26361 83.8998C6.4466 83.9116 5.63824 83.7319 4.90385 83.375C4.78808 83.3144 4.67556 83.2479 4.56674 83.1756C4.16773 82.9425 3.79966 82.6604 3.47114 82.336V89.0159H0.147461V68.0266C2.78112 68.0266 5.41478 68.0266 8.04844 68.0266L8.0537 68.0056ZM3.4448 79.408C3.94615 79.9595 4.52869 80.4319 5.17248 80.8091C5.69194 81.1075 6.2795 81.2683 6.87909 81.2761C7.38537 81.2892 7.88582 81.166 8.3276 80.9193C8.39494 80.888 8.45854 80.8492 8.51723 80.8038C8.87345 80.5387 9.17859 80.2116 9.41794 79.8383C9.56765 79.5734 9.69792 79.2981 9.80772 79.0145C9.93739 78.6989 10.0379 78.3722 10.108 78.0385C10.2775 77.2309 10.3604 76.4077 10.3555 75.5827C10.3555 73.8931 10.0974 72.6232 9.59702 71.8047C9.38268 71.4425 9.07317 71.1456 8.70188 70.9459C8.33058 70.7461 7.91159 70.6512 7.4901 70.6712H3.4448V79.4133V79.408Z" fill="#606060"/>
<path fill-rule="evenodd" clip-rule="evenodd" d="M54.7591 68.0264H58.4936L52.2887 75.0368L60.0001 83.548H55.5281L48.2065 75.4408L54.7591 68.0264Z" fill="#606060"/>
<path fill-rule="evenodd" clip-rule="evenodd" d="M44.6458 83.2543V63.0049H47.9694V83.2543V83.5482H47.6639H44.9355H44.6458V83.2543Z" fill="#606060"/>
<path fill-rule="evenodd" clip-rule="evenodd" d="M31.3196 68.0263H34.638V70.2249L34.7117 70.12C34.9259 69.8657 35.1583 69.6272 35.407 69.4064C36.627 68.276 38.2395 67.6609 39.9053 67.6905C40.3561 67.6919 40.8063 67.72 41.2537 67.7744C41.7173 67.8426 42.2229 67.9266 42.7549 68.0315L42.9814 68.0945V72.8591H40.3478V70.7182C40.2416 70.698 40.1343 70.684 40.0265 70.6762C39.8684 70.6762 39.6999 70.6447 39.5419 70.6447C39.0731 70.6417 38.6058 70.6981 38.1513 70.8126C37.726 70.9335 37.3186 71.1099 36.9398 71.3374C36.5345 71.6013 36.1584 71.9074 35.8179 72.2504C35.3988 72.6821 35.0116 73.1433 34.6591 73.6305V83.5479H31.3406V68.0263H31.3196Z" fill="#606060"/>
<path fill-rule="evenodd" clip-rule="evenodd" d="M24.6248 81.9424C23.9442 82.4879 23.1908 82.9365 22.3862 83.2752C21.5778 83.6166 20.7095 83.795 19.8315 83.8C18.5221 83.8508 17.2415 83.4087 16.2445 82.5616C15.7877 82.1731 15.4195 81.6919 15.1647 81.1501C14.9244 80.5893 14.799 79.9863 14.796 79.3765C14.787 78.5937 14.9811 77.8219 15.3596 77.1359C15.4175 77.0362 15.486 76.9365 15.5544 76.8158C15.9394 76.2517 16.4337 75.77 17.0082 75.399C17.3698 75.1469 17.7585 74.9357 18.167 74.7693C18.5916 74.576 19.0322 74.4198 19.4839 74.3023C20.5178 74.0495 21.5797 73.9279 22.6443 73.9402H24.0348V72.938C24.0404 72.5157 23.9836 72.0949 23.8663 71.6891L23.8136 71.5317C23.7325 71.3046 23.599 71.0997 23.4238 70.9335V70.9073C23.3739 70.848 23.3108 70.8013 23.2395 70.7709C23.18 70.7107 23.1081 70.6642 23.0288 70.6344C22.485 70.3976 21.894 70.2881 21.3011 70.3143C20.5156 70.3171 19.7341 70.4266 18.9782 70.6397C18.1364 70.8716 17.3223 71.1936 16.55 71.5999L16.118 71.8256V68.8188L16.3287 68.7401C16.6132 68.6404 16.8818 68.5355 17.1294 68.462C17.3769 68.3886 17.6561 68.2994 17.9458 68.2259C19.2166 67.8826 20.527 67.7062 21.8436 67.7012C23.8452 67.7012 25.2516 68.1052 26.0891 68.9185C26.2175 69.0293 26.3308 69.1563 26.4262 69.2964C26.5365 69.4416 26.6368 69.5941 26.7264 69.7529C27.1962 70.7768 27.4147 71.8973 27.3638 73.022V79.2715C27.3647 79.6397 27.3858 80.0076 27.427 80.3735C27.4564 80.5786 27.5206 80.7773 27.6166 80.9612C27.6259 80.9939 27.6421 81.0243 27.664 81.0504C27.7061 81.0504 27.7219 81.1081 27.7483 81.1238C27.9491 81.2709 28.1945 81.345 28.4436 81.3337C28.5015 81.3337 28.6121 81.3075 28.728 81.2918L29.2547 81.1973L29.5444 81.1291V83.4169C29.4572 83.4547 29.365 83.4794 29.2705 83.4904C29.1389 83.5324 29.0388 83.5691 28.9018 83.6006C28.4435 83.7392 27.9689 83.8168 27.4902 83.8315C27.0432 83.8354 26.5997 83.7535 26.1839 83.5901C26.0567 83.533 25.9351 83.4645 25.8204 83.3854C25.2936 83.0406 24.8841 82.5448 24.6458 81.9634L24.6248 81.9424ZM24.0401 79.5601V76.2228H23.5134C21.6751 76.2228 20.353 76.4537 19.4417 76.9522C19.0639 77.1268 18.7456 77.4076 18.5257 77.7599C18.3058 78.1123 18.1939 78.5209 18.2039 78.9357C18.1985 79.2336 18.2522 79.5296 18.3619 79.8068C18.3908 79.8431 18.409 79.8867 18.4146 79.9327C18.5182 80.1326 18.6595 80.3108 18.8307 80.4574C18.8887 80.5099 18.9571 80.5519 19.0203 80.5991C19.0835 80.6463 19.152 80.6883 19.2152 80.7408C19.6226 80.9474 20.075 81.0501 20.5321 81.0399C21.5855 81.0399 22.7865 80.5152 24.0348 79.5392L24.0401 79.5601Z" fill="#606060"/>
<path fill-rule="evenodd" clip-rule="evenodd" d="M18.7095 13.774V8.16986V7.6084H19.2836H24.6141H25.1725V8.16986V13.774V14.3407H24.6141H19.2836H18.7095V13.774Z" fill="white"/>
<path fill-rule="evenodd" clip-rule="evenodd" d="M50.482 50.0384C49.1493 50.2746 47.8483 50.4477 46.5262 50.5632C45.2041 50.6786 43.8926 50.7468 42.6705 50.7468C40.7904 50.7768 38.9136 50.5777 37.0819 50.1539C35.7242 49.8483 34.4675 49.2016 33.4317 48.2753C33.1888 48.0164 32.9619 47.743 32.7522 47.4567C32.5459 47.1451 32.3594 46.8209 32.1938 46.486C31.3563 44.7334 30.9297 42.2881 30.9297 39.0872V14.3408H37.398V19.7351H50.3661V24.9247H37.398V39.9793C37.398 40.7769 37.3979 41.4485 37.4664 41.9943V42.2461C37.4926 42.5638 37.549 42.8783 37.635 43.1854C37.6562 43.2562 37.6845 43.3248 37.7193 43.3901C37.7193 43.453 37.7877 43.5107 37.8193 43.5737C38.0581 43.9452 38.3699 44.2647 38.7358 44.513C39.3723 44.9011 40.0706 45.1779 40.8006 45.3316C41.7678 45.5284 42.7527 45.6251 43.7398 45.6202H43.7767C44.8557 45.6172 45.9336 45.5542 47.0055 45.4313L47.5323 45.3735C48.4066 45.2476 49.3021 45.0849 50.1659 44.8803L50.8717 44.7176V49.965L50.3924 50.0542L50.482 50.0384Z" fill="white"/>
<path fill-rule="evenodd" clip-rule="evenodd" d="M18.7254 49.5085V24.9037H8.65432H8.08545V24.337V20.3596V19.7876H8.65432H24.6143H25.1779V20.3596V49.5085V50.0647H24.6143H19.2943H18.7254V49.5085Z" fill="white"/>
</svg>
