<svg width="271" height="61" viewBox="0 0 271 61" fill="none" xmlns="http://www.w3.org/2000/svg">
<path d="M16.5674 8.27588H0V41.1521H16.5674V8.27588Z" fill="#A8170A"/>
<path fill-rule="evenodd" clip-rule="evenodd" d="M8.28047 2.54663e-06C9.92003 -0.00128217 11.5231 0.483544 12.8869 1.39313C14.2507 2.30272 15.3139 3.59619 15.9419 5.10986C16.5699 6.62354 16.7346 8.28939 16.415 9.89662C16.0955 11.5039 15.3061 12.9802 14.1467 14.1389C12.9874 15.2976 11.5102 16.0866 9.90208 16.406C8.29396 16.7253 6.62719 16.5608 5.11268 15.9331C3.59817 15.3054 2.30399 14.2428 1.3939 12.8798C0.48381 11.5168 -0.00128288 9.91456 2.54803e-06 8.27591C0.0017239 6.08153 0.87468 3.97752 2.4272 2.42586C3.97971 0.874198 6.08488 0.00172295 8.28047 2.54663e-06Z" fill="#E32716"/>
<path d="M43.7292 32.8765H8.28052V49.4348H43.7292V32.8765Z" fill="#A8170A"/>
<path fill-rule="evenodd" clip-rule="evenodd" d="M8.28047 32.8765C9.92003 32.8752 11.5231 33.36 12.8869 34.2696C14.2507 35.1792 15.3139 36.4727 15.9419 37.9863C16.5699 39.5 16.7346 41.1659 16.415 42.7731C16.0955 44.3803 15.3061 45.8567 14.1467 47.0154C12.9874 48.1741 11.5102 48.9631 9.90208 49.2824C8.29396 49.6018 6.62719 49.4372 5.11268 48.8096C3.59817 48.1819 2.30399 47.1193 1.3939 45.7563C0.48381 44.3932 -0.00128288 42.791 2.54803e-06 41.1524C0.0017239 38.958 0.87468 36.854 2.4272 35.3023C3.97971 33.7507 6.08488 32.8782 8.28047 32.8765Z" fill="#E32716"/>
<path d="M52.0162 8.27588H35.4487V41.1521H52.0162V8.27588Z" fill="#A8170A"/>
<path fill-rule="evenodd" clip-rule="evenodd" d="M43.7357 0C45.375 5.03924e-07 46.9774 0.485919 48.3404 1.39629C49.7033 2.30666 50.7654 3.60058 51.3925 5.11436C52.0195 6.62815 52.1832 8.2938 51.8629 9.90061C51.5427 11.5074 50.7528 12.9832 49.5932 14.1412C48.4336 15.2993 46.9564 16.0876 45.3484 16.4064C43.7405 16.7253 42.074 16.5603 40.5599 15.9325C39.0458 15.3046 37.752 14.242 36.8422 12.8791C35.9324 11.5162 35.4474 9.91428 35.4487 8.2759C35.4505 6.0804 36.3243 3.97541 37.8782 2.42356C39.4321 0.871715 41.539 -6.7528e-07 43.7357 0" fill="#E32716"/>
<path d="M49.0595 34.8141L38.4102 47.4985L51.1414 58.1754L61.7907 45.491L49.0595 34.8141Z" fill="#A8170A"/>
<path fill-rule="evenodd" clip-rule="evenodd" d="M50.0792 46.479C51.1345 45.23 52.5364 44.3213 54.1078 43.8676C55.6793 43.4139 57.35 43.4355 58.9092 43.9297C60.4683 44.424 61.8461 45.3686 62.8687 46.6446C63.8913 47.9206 64.5128 49.4706 64.655 51.0993C64.7971 52.7279 64.4534 54.3621 63.6673 55.7958C62.8812 57.2294 61.6879 58.3982 60.2378 59.1548C58.7878 59.9113 57.1461 60.2217 55.5198 60.0468C53.8935 59.8718 52.3554 59.2194 51.0997 58.1718C50.2611 57.4734 49.5691 56.6159 49.0635 55.649C48.5579 54.682 48.2488 53.6246 48.154 52.5377C48.0591 51.4508 48.1804 50.3559 48.5108 49.3161C48.8413 48.2763 49.3743 47.312 50.0792 46.479Z" fill="#E32716"/>
<path fill-rule="evenodd" clip-rule="evenodd" d="M16.5675 41.1524V32.8765H8.28052C10.4772 32.8765 12.5841 33.7482 14.138 35.3C15.6919 36.8519 16.5658 38.9569 16.5675 41.1524Z" fill="#CE3023"/>
<path fill-rule="evenodd" clip-rule="evenodd" d="M35.4487 41.1524V32.8765H43.7357C41.539 32.8765 39.4321 33.7482 37.8782 35.3C36.3243 36.8519 35.4505 38.9569 35.4487 41.1524Z" fill="#CE3023"/>
<path fill-rule="evenodd" clip-rule="evenodd" d="M37.3855 35.832C38.441 34.5807 39.8438 33.67 41.4168 33.2149C42.9897 32.7597 44.6623 32.7806 46.2235 33.2747C47.7846 33.7689 49.1642 34.7143 50.1882 35.9915C51.2122 37.2687 51.8346 38.8204 51.9769 40.4509C52.1192 42.0814 51.775 43.7174 50.9877 45.1525C50.2004 46.5876 49.0054 47.7574 47.5534 48.5142C46.1015 49.2711 44.4577 49.581 42.8297 49.4049C41.2016 49.2288 39.6623 48.5746 38.406 47.5248C37.5696 46.8248 36.8796 45.9668 36.3755 44.9999C35.8714 44.033 35.5632 42.9762 35.4684 41.89C35.3736 40.8039 35.4941 39.7097 35.8231 38.6701C36.1521 37.6306 36.683 36.6662 37.3855 35.832Z" fill="#E32716"/>
<path fill-rule="evenodd" clip-rule="evenodd" d="M49.0588 34.812C49.9755 35.5845 50.713 36.5471 51.2203 37.6329C51.7276 38.7187 51.9925 39.9018 51.9966 41.1001V37.2935L49.0588 34.812Z" fill="#CE3023"/>
<path d="M254.673 19.6569V14.616H265.144V19.6569H254.673ZM249.317 22.9439L257.305 1.4551H263.006L271.033 22.9439H265.183L259.333 5.91136H261.043L255.193 22.9439H249.317ZM242.343 10.9912C242.977 11.0152 243.597 10.7995 244.079 10.3871C244.303 10.1887 244.481 9.94303 244.599 9.66785C244.717 9.39267 244.772 9.09477 244.761 8.79558C244.776 8.5047 244.725 8.21425 244.613 7.94557C244.5 7.6769 244.329 7.43684 244.111 7.24304C243.612 6.85377 242.989 6.65566 242.356 6.68438H237.495L239.23 5.01491V22.9439H233.718V1.4551H242.545C243.939 1.43204 245.321 1.72288 246.588 2.30608C247.748 2.84776 248.723 3.72009 249.389 4.81354C250.097 6.01846 250.451 7.39871 250.409 8.79558C250.45 10.1657 250.096 11.5187 249.389 12.6932C248.715 13.7724 247.742 14.6323 246.588 15.1682C245.321 15.7514 243.939 16.0422 242.545 16.0191H238.392V10.9912H242.343ZM220.986 16.6233C221.707 16.6199 222.414 16.4225 223.033 16.0516C223.705 15.6582 224.264 15.099 224.658 14.4276C225.099 13.6784 225.324 12.8218 225.308 11.9526C225.324 11.0815 225.099 10.2228 224.658 9.47117C224.268 8.80174 223.708 8.24796 223.033 7.86665C222.412 7.50269 221.706 7.30992 220.986 7.308V16.6233ZM211.236 11.9526C211.217 12.8221 211.442 13.6796 211.886 14.4276C212.28 15.099 212.84 15.6582 213.511 16.0516C214.12 16.4189 214.815 16.6163 215.526 16.6233V7.308C214.817 7.31348 214.122 7.50621 213.511 7.86665C212.837 8.24796 212.276 8.80174 211.886 9.47117C211.456 10.2255 211.244 11.0848 211.275 11.9526H211.236ZM220.986 2.41651C222.665 2.50562 224.306 2.94836 225.802 3.71571C227.275 4.46136 228.526 5.58158 229.429 6.96371C230.368 8.44332 230.848 10.1682 230.807 11.9202C230.864 13.6719 230.401 15.4014 229.474 16.8896C228.573 18.2811 227.322 19.4121 225.847 20.1701C224.355 20.9457 222.712 21.3889 221.031 21.4693V23.8273H215.52V21.5147C213.844 21.4297 212.206 20.9867 210.716 20.2155C209.247 19.4573 208.003 18.326 207.109 16.9351C206.169 15.451 205.689 13.7218 205.731 11.9656C205.687 10.2133 206.167 8.4875 207.109 7.00918C208.008 5.63062 209.251 4.5109 210.716 3.76118C212.207 2.99302 213.845 2.55018 215.52 2.46198V0H221.031L220.986 2.41651ZM188.689 1.4551V15.9152H187.669L197.334 1.4551H202.878V22.9439H197.425V8.48378H198.387L188.754 22.9439H183.243V1.4551H188.689ZM180.688 17.7081V27.2832H175.3V20.8651L177.842 22.9439H158.993V1.4551H164.504V19.7868L162.308 17.7081H180.688ZM172.668 19.3841V1.4551H178.18V19.3841H172.668ZM150.114 14.6745H140.553V9.47766H150.095L150.114 14.6745ZM141.041 22.9439H135.529V1.4551H141.041V22.9439ZM149.568 1.4551H155.08V22.9439H149.568V1.4551ZM117.441 1.4551V15.9152H116.421L126.092 1.4551H131.636V22.9439H126.183V8.48378H127.145L117.506 22.9439H111.994V1.4551H117.441ZM83.3052 22.9439V1.4551H91.5141L97.2468 18.4227H94.1205L99.9701 1.4551H108.088V22.9439H102.726V3.55981H104.188L97.5588 22.9439H93.8085L87.1789 3.55981H88.6673V22.9439H83.3052Z" fill="#E32716"/>
<path d="M269.434 42.7178H265.215V40.9833H269.434V42.7178ZM265.469 46.0242H263.649V37.8263H265.469V46.0242ZM269.18 37.8263H271.033V46.0242H269.213L269.18 37.8263ZM253.627 38.6123C254.09 38.3149 254.6 38.0955 255.135 37.9627C255.729 37.7941 256.343 37.7088 256.961 37.7094C257.96 37.6324 258.949 37.9548 259.71 38.6058C260.021 38.9258 260.263 39.3057 260.421 39.7223C260.58 40.1389 260.652 40.5835 260.633 41.0288V46.0242H258.833V41.0288C258.842 40.7072 258.744 40.3917 258.553 40.1324C258.372 39.8773 258.122 39.679 257.832 39.5607C257.512 39.433 257.169 39.3691 256.824 39.3723C256.383 39.3703 255.945 39.4383 255.525 39.5737C255.12 39.7122 254.733 39.8998 254.374 40.1324L253.627 38.6123ZM259.411 43.1595C259.024 42.9188 258.607 42.7309 258.17 42.6008C257.715 42.4735 257.245 42.4123 256.772 42.419C256.361 42.4056 255.954 42.5068 255.596 42.7113C255.452 42.7843 255.331 42.8957 255.246 43.0333C255.161 43.1709 255.116 43.3292 255.115 43.4908C255.107 43.704 255.178 43.9127 255.317 44.0754C255.468 44.2459 255.664 44.3717 255.882 44.4392C256.137 44.528 256.405 44.572 256.675 44.5691C257.024 44.5664 257.369 44.4935 257.689 44.3548C257.999 44.2299 258.278 44.0393 258.508 43.7961C258.711 43.5873 258.825 43.3079 258.826 43.0166V44.3158C258.813 44.6395 258.689 44.9489 258.475 45.1927C258.221 45.4913 257.9 45.7269 257.539 45.8813C257.129 46.0596 256.687 46.1503 256.24 46.1477C255.736 46.1514 255.237 46.0473 254.777 45.8423C254.339 45.644 253.962 45.3323 253.685 44.9394C253.406 44.5279 253.26 44.0401 253.269 43.5428C253.256 43.0358 253.419 42.54 253.731 42.1396C254.054 41.745 254.478 41.4462 254.959 41.2757C255.5 41.0767 256.073 40.9777 256.649 40.9833C257.17 40.9765 257.689 41.0332 258.196 41.1522C258.628 41.2685 259.04 41.4503 259.418 41.6914L259.411 43.1595ZM244.248 39.5607V37.8263H251.534V39.5607H244.248ZM248.797 39.0735V46.0242H246.984V39.0735H248.797ZM241.648 40.2233C241.424 39.9927 241.16 39.8054 240.868 39.6711C240.534 39.5184 240.169 39.4429 239.802 39.4503C239.38 39.4479 238.964 39.553 238.593 39.7556C238.221 39.9596 237.911 40.2604 237.696 40.6261C237.469 41.0208 237.355 41.4701 237.365 41.9253C237.358 42.3844 237.484 42.8356 237.729 43.2245C237.966 43.5913 238.295 43.8892 238.684 44.0884C239.075 44.287 239.507 44.3895 239.945 44.3872C240.553 44.4132 241.148 44.2117 241.615 43.8221L242.551 45.1213C242.242 45.4511 241.862 45.7065 241.44 45.8683C240.939 46.0626 240.405 46.1575 239.867 46.1477C239.135 46.1494 238.412 45.9827 237.755 45.6605C237.241 45.3849 236.789 45.0079 236.425 44.5522C236.061 44.0966 235.794 43.5718 235.64 43.0099C235.486 42.4479 235.447 41.8605 235.527 41.2832C235.607 40.7059 235.803 40.1508 236.104 39.6517C236.501 39.0244 237.057 38.5134 237.716 38.1706C238.351 37.8289 239.061 37.6503 239.783 37.6509C240.368 37.6369 240.949 37.7499 241.485 37.9822C241.915 38.1644 242.296 38.4448 242.597 38.8007L241.648 40.2233ZM227.011 37.8263V49.4346H225.191V37.8263H227.011ZM226.952 39.6257C226.995 39.3185 227.121 39.0288 227.316 38.7877C227.565 38.458 227.888 38.1911 228.259 38.0082C228.701 37.784 229.193 37.6724 229.689 37.6834C230.303 37.6848 230.905 37.8605 231.424 38.1901C231.985 38.5521 232.435 39.0625 232.724 39.6647C233.056 40.3767 233.228 41.1527 233.228 41.9383C233.228 42.7238 233.056 43.4998 232.724 44.2119C232.436 44.8178 231.986 45.3326 231.424 45.6994C230.907 46.0339 230.305 46.2121 229.689 46.2126C229.193 46.2236 228.701 46.112 228.259 45.8878C227.888 45.7049 227.565 45.438 227.316 45.1083C227.121 44.8672 226.995 44.5775 226.952 44.2703L226.985 42.3215C226.981 42.7061 227.084 43.0841 227.284 43.4128C227.483 43.7261 227.755 43.9868 228.077 44.1729C228.398 44.3595 228.764 44.456 229.136 44.4522C229.521 44.4548 229.899 44.3514 230.228 44.1534C230.573 43.9392 230.853 43.6363 231.041 43.2764C231.252 42.8579 231.357 42.3939 231.346 41.9253C231.355 41.4568 231.25 40.9932 231.041 40.5741C230.855 40.2165 230.574 39.9174 230.228 39.7101C229.897 39.5171 229.52 39.4162 229.136 39.4178C228.764 39.414 228.398 39.5105 228.077 39.6971C227.752 39.8874 227.48 40.1552 227.284 40.4767C227.083 40.8027 226.98 41.1789 226.985 41.5615L226.952 39.6257ZM215.136 38.6123C215.6 38.3149 216.109 38.0955 216.644 37.9627C217.238 37.7945 217.853 37.7092 218.47 37.7094C219.47 37.6324 220.458 37.9548 221.22 38.6058C221.532 38.9294 221.775 39.3138 221.933 39.7351C222.09 40.1564 222.16 40.6056 222.136 41.0548V46.0502H220.336V41.0288C220.344 40.7083 220.249 40.3938 220.063 40.1324C219.877 39.8785 219.626 39.6807 219.335 39.5607C219.015 39.4317 218.672 39.3677 218.327 39.3723C217.886 39.3691 217.447 39.4371 217.028 39.5737C216.62 39.7109 216.231 39.8986 215.871 40.1324L215.136 38.6123ZM220.921 43.1595C220.534 42.9188 220.116 42.7309 219.679 42.6008C219.225 42.4731 218.754 42.4118 218.282 42.419C217.87 42.4056 217.463 42.5068 217.106 42.7113C216.962 42.7849 216.841 42.8965 216.756 43.0339C216.671 43.1713 216.626 43.3293 216.625 43.4908C216.616 43.704 216.688 43.9127 216.826 44.0754C216.978 44.2459 217.173 44.3717 217.392 44.4392C217.648 44.5286 217.919 44.5726 218.191 44.5691C218.538 44.5655 218.88 44.4927 219.198 44.3548C219.51 44.2282 219.791 44.0379 220.024 43.7961C220.223 43.5852 220.335 43.3066 220.336 43.0166V44.3158C220.317 44.6395 220.191 44.9479 219.978 45.1927C219.724 45.4891 219.407 45.7245 219.049 45.8813C218.639 46.0585 218.196 46.1492 217.749 46.1477C217.247 46.152 216.751 46.0479 216.293 45.8423C215.855 45.644 215.478 45.3323 215.201 44.9394C214.917 44.5298 214.769 44.0411 214.779 43.5428C214.766 43.0358 214.929 42.54 215.24 42.1396C215.563 41.745 215.988 41.4462 216.469 41.2757C217.012 41.0768 217.586 40.9777 218.165 40.9833C218.683 40.9765 219.201 41.0332 219.705 41.1522C220.138 41.2685 220.55 41.4503 220.927 41.6914L220.921 43.1595ZM205.77 39.5607V37.8263H213.024V39.5607H205.77ZM210.32 39.0735V46.0242H208.5V39.0735H210.32ZM196.723 38.6123C197.186 38.3137 197.696 38.0942 198.231 37.9627C198.825 37.7941 199.44 37.7088 200.057 37.7094C201.046 37.6305 202.026 37.9431 202.787 38.5798C203.1 38.9034 203.342 39.2878 203.5 39.7091C203.658 40.1304 203.727 40.5796 203.703 41.0288V46.0242H201.903V41.0288C201.913 40.7072 201.814 40.3917 201.624 40.1324C201.441 39.8756 201.188 39.677 200.896 39.5607C200.578 39.4326 200.237 39.3686 199.895 39.3723C199.453 39.3699 199.015 39.4379 198.595 39.5737C198.19 39.7122 197.803 39.8998 197.444 40.1324L196.723 38.6123ZM202.507 43.1595C202.12 42.9188 201.703 42.7309 201.266 42.6008C200.811 42.4735 200.341 42.4123 199.869 42.419C199.457 42.4049 199.049 42.5061 198.692 42.7113C198.547 42.784 198.425 42.8952 198.339 43.0327C198.253 43.1702 198.207 43.3287 198.205 43.4908C198.199 43.7048 198.273 43.9133 198.413 44.0754C198.564 44.2432 198.757 44.3686 198.972 44.4392C199.229 44.5275 199.499 44.5714 199.771 44.5691C200.12 44.5664 200.465 44.4935 200.785 44.3548C201.095 44.2299 201.375 44.0393 201.604 43.7961C201.807 43.5873 201.921 43.3079 201.923 43.0166V44.3158C201.906 44.6389 201.782 44.9473 201.572 45.1927C201.317 45.4913 200.996 45.7269 200.636 45.8813C200.226 46.0596 199.783 46.1503 199.336 46.1477C198.832 46.1514 198.333 46.0473 197.873 45.8423C197.435 45.644 197.058 45.3323 196.781 44.9394C196.499 44.5292 196.353 44.0405 196.365 43.5428C196.35 43.0365 196.511 42.5407 196.82 42.1396C197.146 41.7448 197.573 41.4461 198.055 41.2757C198.596 41.0767 199.169 40.9777 199.745 40.9833C200.264 40.9761 200.781 41.0328 201.286 41.1522C201.721 41.2672 202.135 41.4491 202.514 41.6914L202.507 43.1595ZM186.259 36.7934V35.0785H195.566V36.8454L186.259 36.7934ZM191.855 36.3712V46.0242H189.989V36.3777L191.855 36.3712ZM175.209 43.2115L179.109 37.8263H180.877V46.0242H179.044V40.6196L175.19 46.0242H173.422V37.8263H175.235L175.209 43.2115ZM165.882 37.8263V46.0242H164.062V37.8263H165.882ZM168.95 37.8263H171.179L167.15 42.2241L167.241 41.0223L171.348 46.0177H169.074L165.44 41.6719L168.95 37.8263ZM155.34 43.2115L159.24 37.8263H161.014V46.0242H159.181V40.6196L155.321 46.0242H153.52V37.8263H155.34V43.2115ZM150.433 37.8263V46.0242H148.619V38.7227L149.49 39.5477H145.201L146.059 38.7227L145.753 41.7564C145.693 42.5687 145.556 43.3735 145.344 44.1599C145.194 44.7247 144.885 45.2345 144.453 45.628C143.948 46.0258 143.314 46.2225 142.672 46.1801L142.373 44.4912C142.563 44.5028 142.754 44.4707 142.929 44.3976C143.105 44.3244 143.262 44.212 143.387 44.0689C143.63 43.7587 143.797 43.3961 143.875 43.0101C143.994 42.4398 144.079 41.8628 144.128 41.2822V41.0743L144.434 37.8263H150.433ZM139.891 33.8442L140.235 35.6436L137.505 36.1828C136.787 36.2909 136.103 36.5595 135.503 36.9688C135.047 37.325 134.711 37.8125 134.541 38.3655C134.339 39.0991 134.247 39.8588 134.268 40.6196V41.5225C134.261 42.0193 134.363 42.5116 134.567 42.9646C134.756 43.3828 135.052 43.7437 135.425 44.0105C135.81 44.2665 136.263 44.4001 136.725 44.3937C137.132 44.3996 137.533 44.2988 137.889 44.1014C138.233 43.9032 138.513 43.61 138.695 43.2569C138.899 42.8551 139 42.4084 138.987 41.9577C139.004 41.5018 138.889 41.0506 138.656 40.6585C138.441 40.3366 138.142 40.0803 137.791 39.918C137.446 39.7451 137.066 39.6561 136.68 39.6582C136.258 39.6538 135.842 39.7566 135.471 39.957C135.094 40.1404 134.774 40.4207 134.541 40.769C134.322 41.1096 134.207 41.507 134.21 41.9123V40.1583C134.228 39.7683 134.371 39.3945 134.619 39.093C134.917 38.7543 135.291 38.4915 135.711 38.3265C136.172 38.1255 136.671 38.0237 137.174 38.0277C137.802 38.0271 138.42 38.1882 138.968 38.4954C139.538 38.8183 140.009 39.2897 140.332 39.8595C140.689 40.5073 140.869 41.2379 140.852 41.9772C140.874 42.7629 140.688 43.5405 140.313 44.2313C139.973 44.8523 139.46 45.362 138.838 45.6994C138.189 46.0481 137.462 46.2248 136.725 46.2126C135.918 46.2235 135.125 45.9977 134.444 45.563C133.757 45.1193 133.211 44.4881 132.871 43.7441C132.475 42.8649 132.282 41.9081 132.306 40.9444C132.219 39.4069 132.632 37.8826 133.482 36.5985C134.404 35.4514 135.72 34.6875 137.174 34.4549L139.891 33.8442ZM123.973 37.8263L126.865 45.3551L125.442 46.5439L121.945 37.8263H123.973ZM130.336 37.8263L125.695 49.4346H123.746L125.474 45.1538L125.63 44.855L128.315 37.8263H130.336ZM119.794 37.8263V46.0242H117.974V39.0865L118.481 39.5607H113.801L114.295 39.0865V46.0242H112.475V37.8263H119.794ZM109.141 40.2233C108.914 39.9939 108.648 39.8069 108.355 39.6711C108.021 39.5177 107.656 39.4422 107.289 39.4503C106.866 39.4496 106.451 39.5546 106.08 39.7556C105.71 39.96 105.402 40.2608 105.189 40.6261C104.962 41.0208 104.848 41.4701 104.858 41.9253C104.848 42.3848 104.975 42.8369 105.222 43.2245C105.455 43.5942 105.786 43.8929 106.177 44.0884C106.565 44.2877 106.995 44.3902 107.432 44.3872C108.041 44.4123 108.639 44.211 109.109 43.8221L110.038 45.1213C109.729 45.4511 109.349 45.7065 108.927 45.8683C108.426 46.0633 107.891 46.1582 107.354 46.1477C106.621 46.1494 105.899 45.9827 105.241 45.6605C104.573 45.3329 104.007 44.8299 103.603 44.2054C103.165 43.5172 102.939 42.7151 102.953 41.8993C102.937 41.1061 103.151 40.3252 103.571 39.6517C103.968 39.0244 104.524 38.5134 105.183 38.1706C105.82 37.8281 106.533 37.6495 107.256 37.6509C107.839 37.6374 108.418 37.7504 108.953 37.9822C109.382 38.1644 109.763 38.4448 110.064 38.8007L109.141 40.2233ZM100.614 44.9004C100.263 45.3168 99.8172 45.6422 99.3136 45.8488C98.7519 46.0744 98.1511 46.187 97.5458 46.1801C96.7527 46.1908 95.9685 46.0127 95.2579 45.6605C94.5742 45.3311 93.9974 44.8155 93.594 44.1729C93.1908 43.4769 92.9862 42.6838 93.0025 41.8798C92.9909 41.1252 93.1674 40.3796 93.516 39.7101C93.8417 39.0908 94.3349 38.5754 94.9394 38.2225C95.5624 37.867 96.2695 37.6853 96.9868 37.6964C97.669 37.6858 98.3418 37.8562 98.9367 38.1901C99.4938 38.5228 99.9447 39.0073 100.237 39.5867C100.558 40.2296 100.718 40.9406 100.705 41.6589V42.4839H94.1335V41.0613H99.0862L98.9432 41.2692C98.9485 40.9055 98.8637 40.5462 98.6962 40.2233C98.5383 39.9246 98.2966 39.6785 98.0007 39.5152C97.679 39.3424 97.3195 39.2519 96.9543 39.2519C96.5891 39.2519 96.2295 39.3424 95.9079 39.5152C95.6156 39.6883 95.3736 39.9346 95.2059 40.2298C95.0412 40.5062 94.9453 40.8181 94.9264 41.1392L94.8939 42.2241C94.8861 42.6462 95.0012 43.0615 95.2254 43.4193C95.4616 43.779 95.7984 44.0613 96.1938 44.2313C96.5998 44.4248 97.044 44.5247 97.4938 44.5237C97.9046 44.5323 98.3124 44.4525 98.6897 44.2898C99.0351 44.1326 99.3481 43.9123 99.6126 43.6402L100.614 44.9004ZM87.2244 40.2753C87.7623 40.3079 88.2931 40.1388 88.7128 39.8011C88.884 39.6427 89.019 39.4493 89.1088 39.2341C89.1985 39.0189 89.2408 38.7868 89.2328 38.5538C89.2429 38.3225 89.2014 38.0918 89.1115 37.8783C89.0216 37.6649 88.8854 37.4741 88.7128 37.3196C88.29 36.9887 87.7604 36.8246 87.2244 36.8584H84.7416L85.1706 36.4491V46.0242H83.3052V35.0785H87.3219C88.0086 35.0646 88.6899 35.2021 89.3173 35.4812C89.8732 35.73 90.3418 36.1395 90.6627 36.657C90.979 37.2322 91.1449 37.878 91.1449 38.5343C91.1449 39.1907 90.979 39.8365 90.6627 40.4117C90.3384 40.9256 89.8676 41.3306 89.3108 41.5745C88.685 41.8517 88.0063 41.9891 87.3219 41.9772H84.8716V40.2753H87.2244Z" fill="#E32716"/>
</svg>
