<svg width="195" height="61" viewBox="0 0 195 61" fill="none" xmlns="http://www.w3.org/2000/svg">
<g clip-path="url(#clip0_6_6813)">
<path d="M88.764 0.447754V1.25504H85.3433L85.4659 1.13719V7.07103H84.6428V0.447754H88.764Z" fill="#256C44"/>
<path d="M93.1419 7.17737C92.5598 7.18524 91.9865 7.0338 91.4829 6.73914C90.9793 6.44448 90.5641 6.01761 90.2816 5.50387C89.9916 4.97383 89.8427 4.37692 89.8496 3.77145C89.8427 3.16598 89.9916 2.56906 90.2816 2.03902C90.5641 1.52529 90.9793 1.09841 91.4829 0.803751C91.9865 0.509091 92.5598 0.357653 93.1419 0.365526C93.7224 0.357877 94.294 0.509523 94.7957 0.80427C95.2974 1.09902 95.7104 1.52579 95.9906 2.03902C96.2806 2.56906 96.4294 3.16598 96.4225 3.77145C96.4294 4.37692 96.2806 4.97383 95.9906 5.50387C95.7104 6.0171 95.2974 6.44388 94.7957 6.73862C94.294 7.03337 93.7224 7.18502 93.1419 7.17737ZM93.1419 6.34651C93.5744 6.35398 94.0004 6.24004 94.3725 6.01737C94.7446 5.79471 95.0481 5.4721 95.2492 5.0855C95.458 4.67988 95.5642 4.2285 95.5586 3.77145C95.5642 3.3144 95.458 2.86301 95.2492 2.4574C95.0443 2.07328 94.7402 1.75232 94.3692 1.52861C93.9982 1.30489 93.5741 1.18677 93.1419 1.18677C92.7097 1.18677 92.2856 1.30489 91.9146 1.52861C91.5436 1.75232 91.2395 2.07328 91.0346 2.4574C90.8168 2.86001 90.7061 3.31277 90.7135 3.77145C90.7151 4.23276 90.8358 4.68569 91.0638 5.0855C91.2649 5.4721 91.5684 5.79471 91.9405 6.01737C92.3125 6.24004 92.7386 6.35398 93.1711 6.34651H93.1419Z" fill="#256C44"/>
<path d="M103.865 6.28728V8.39094H103.066V6.96493L103.188 7.09457H98.1095L98.2321 6.96493V8.39094H97.4382V6.28728H103.865ZM97.8819 6.28728C98.1376 5.98219 98.3141 5.61769 98.3956 5.22661C98.5395 4.64565 98.6409 4.0548 98.6991 3.45884L98.991 0.453613H103.136V6.52298H102.301V1.13126L102.423 1.25501H99.3412L99.7499 0.87788L99.4755 3.62972C99.4309 4.1921 99.3509 4.75106 99.2362 5.30322C99.1625 5.65892 99.0218 5.99701 98.8217 6.29907L97.8819 6.28728Z" fill="#256C44"/>
<path d="M114.303 6.28731V8.39097H113.503V6.96496L113.626 7.0946H108.337V0.447754H109.16V6.41106L109.037 6.28731H114.303ZM112.727 6.51713V0.447754H113.561V6.51713H112.727Z" fill="#256C44"/>
<path d="M116.918 0.447754V5.93376H116.748L120.584 0.447754H121.418V7.07103H120.584V1.6086H120.724L116.9 7.07103H116.083V0.447754H116.918Z" fill="#256C44"/>
<path d="M127.291 0.830856C127.823 0.83654 128.348 0.954984 128.832 1.17852C129.315 1.39133 129.734 1.72869 130.046 2.15669C130.363 2.60911 130.527 3.1526 130.513 3.70644C130.525 4.25457 130.361 4.79192 130.046 5.23852C129.734 5.6681 129.315 6.00742 128.832 6.22258C128.348 6.44425 127.823 6.56069 127.291 6.56435V7.37753H126.462V6.56435C125.929 6.55995 125.402 6.44356 124.915 6.22258C124.433 6.00895 124.016 5.66924 123.707 5.23852C123.392 4.79192 123.228 4.25457 123.24 3.70644C123.226 3.1526 123.39 2.60911 123.707 2.15669C124.017 1.7259 124.436 1.38787 124.921 1.17852C125.407 0.955671 125.934 0.837279 126.468 0.830856V0H127.297L127.291 0.830856ZM124.092 3.70644C124.076 4.12945 124.204 4.54527 124.454 4.88496C124.691 5.18943 125.003 5.42526 125.359 5.5685C125.709 5.71153 126.084 5.78553 126.462 5.78653V1.62046C126.084 1.62146 125.709 1.69547 125.359 1.83849C125.001 1.98186 124.689 2.22006 124.454 2.52792C124.204 2.86783 124.077 3.2835 124.092 3.70644ZM127.291 5.78064C127.679 5.78469 128.064 5.71057 128.423 5.56261C128.78 5.41937 129.092 5.18353 129.328 4.87907C129.578 4.53938 129.706 4.12356 129.69 3.70055C129.706 3.27761 129.578 2.86193 129.328 2.52203C129.093 2.21633 128.78 1.98023 128.423 1.83849C128.073 1.69433 127.698 1.62028 127.32 1.62046L127.291 5.78064Z" fill="#256C44"/>
<path d="M134.553 3.68301C134.937 3.70891 135.317 3.59148 135.621 3.35302C135.746 3.24073 135.845 3.10264 135.913 2.94811C135.98 2.79358 136.014 2.62621 136.012 2.45735C136.018 2.29325 135.989 2.12972 135.927 1.9781C135.864 1.82648 135.77 1.69041 135.65 1.57935C135.345 1.34299 134.965 1.22768 134.582 1.25526H133.093L133.216 1.13151V7.07125H132.381V0.447971H134.64C135.041 0.443005 135.439 0.523312 135.808 0.683675C136.131 0.827967 136.406 1.06581 136.596 1.36722C136.785 1.69803 136.88 2.07536 136.87 2.45735C136.879 2.83542 136.784 3.20854 136.596 3.53569C136.409 3.84314 136.134 4.08575 135.808 4.23102C135.44 4.3949 135.042 4.47537 134.64 4.46672H133.064V3.68301H134.553Z" fill="#256C44"/>
<path d="M141.674 7.17735C141.086 7.18442 140.507 7.0296 139.999 6.72951C139.508 6.43426 139.105 6.01087 138.832 5.50385C138.539 4.97483 138.39 4.37722 138.4 3.77143C138.39 3.16564 138.539 2.56803 138.832 2.03901C139.105 1.53199 139.508 1.1086 139.999 0.813347C140.507 0.513261 141.086 0.358442 141.674 0.36551C142.255 0.357861 142.826 0.509507 143.328 0.804253C143.83 1.099 144.243 1.52578 144.523 2.03901C144.813 2.56904 144.962 3.16596 144.955 3.77143C144.962 4.3769 144.813 4.97382 144.523 5.50385C144.243 6.01708 143.83 6.44386 143.328 6.73861C142.826 7.03335 142.255 7.185 141.674 7.17735ZM141.674 6.34649C142.107 6.35397 142.533 6.24002 142.905 6.01736C143.277 5.7947 143.581 5.47208 143.782 5.08548C143.99 4.67986 144.097 4.22848 144.091 3.77143C144.097 3.31438 143.99 2.863 143.782 2.45738C143.577 2.07326 143.273 1.75231 142.902 1.52859C142.531 1.30488 142.107 1.18675 141.674 1.18675C141.242 1.18675 140.818 1.30488 140.447 1.52859C140.076 1.75231 139.772 2.07326 139.567 2.45738C139.349 2.85999 139.239 3.31275 139.246 3.77143C139.239 4.23011 139.349 4.68287 139.567 5.08548C139.768 5.47208 140.072 5.7947 140.444 6.01736C140.816 6.24002 141.242 6.35397 141.674 6.34649Z" fill="#256C44"/>
<path d="M150.372 3.65349C150.581 3.71427 150.778 3.80987 150.956 3.93634C151.147 4.0651 151.303 4.23911 151.411 4.4431C151.533 4.67946 151.593 4.94298 151.586 5.20914C151.598 5.57884 151.496 5.94307 151.295 6.25213C151.094 6.53828 150.814 6.75775 150.489 6.88264C150.104 7.0315 149.693 7.10354 149.281 7.09477H146.846V0.447923H149.298C149.671 0.439512 150.041 0.511848 150.384 0.660057C150.673 0.781758 150.921 0.986672 151.096 1.24932C151.268 1.51746 151.355 1.8317 151.347 2.15088C151.364 2.49295 151.268 2.83098 151.073 3.11138C150.896 3.35621 150.652 3.54441 150.372 3.65349ZM150.512 2.26874C150.521 2.12584 150.496 1.9829 150.439 1.85174C150.382 1.72058 150.295 1.60497 150.185 1.51448C149.909 1.32655 149.579 1.23547 149.246 1.25521H147.687V3.32351H149.222C149.558 3.34368 149.89 3.24581 150.162 3.04656C150.276 2.95298 150.367 2.83407 150.428 2.69912C150.488 2.56418 150.517 2.41688 150.512 2.26874ZM149.292 6.28748C149.665 6.30674 150.036 6.2123 150.355 6.01643C150.485 5.92572 150.59 5.80274 150.659 5.6593C150.729 5.51586 150.761 5.35678 150.752 5.19735C150.761 5.03866 150.73 4.88016 150.66 4.73754C150.591 4.59492 150.485 4.47312 150.355 4.38418C150.033 4.19506 149.664 4.10494 149.292 4.1249H147.687V6.29927L149.292 6.28748Z" fill="#256C44"/>
<path d="M154.353 0.447754V5.93376H154.213L158.025 0.447754H158.836V7.07103H158.002V1.6086H158.148L154.336 7.07103H153.524V0.447754H154.353Z" fill="#256C44"/>
<path d="M163.927 3.61813C164.153 3.67172 164.369 3.76549 164.563 3.89508C164.775 4.03152 164.951 4.21747 165.077 4.4372C165.217 4.6822 165.288 4.96154 165.281 5.24449C165.287 5.6078 165.176 5.96331 164.966 6.25802C164.748 6.56201 164.451 6.79873 164.108 6.94156C163.709 7.10539 163.282 7.18559 162.853 7.17726C162.386 7.18344 161.923 7.10971 161.481 6.95923C161.144 6.8623 160.836 6.68436 160.582 6.44069L160.979 5.75125C161.228 5.95316 161.51 6.10878 161.813 6.21087C162.121 6.32078 162.445 6.37659 162.771 6.37587C163.054 6.37777 163.336 6.33401 163.606 6.24623C163.832 6.17005 164.033 6.03366 164.189 5.85143C164.34 5.67294 164.42 5.44372 164.411 5.20913C164.421 5.03742 164.383 4.86632 164.302 4.71528C164.22 4.56423 164.098 4.43931 163.95 4.35471C163.561 4.15227 163.126 4.05675 162.689 4.07776H161.813V3.29993H162.59C163 3.32338 163.407 3.22063 163.757 3.0053C163.895 2.91737 164.008 2.79427 164.084 2.6484C164.16 2.50253 164.196 2.33905 164.189 2.17445C164.2 2.02498 164.17 1.87542 164.103 1.7416C164.037 1.60778 163.935 1.49469 163.81 1.4143C163.504 1.24071 163.156 1.15893 162.806 1.1786C162.475 1.1778 162.147 1.23564 161.837 1.34948C161.534 1.46271 161.248 1.61524 160.985 1.80321L160.588 1.12557C160.874 0.887113 161.203 0.705213 161.557 0.589339C161.962 0.447488 162.388 0.375768 162.818 0.377206C163.216 0.368504 163.612 0.4365 163.985 0.577554C164.296 0.695177 164.567 0.899535 164.767 1.16681C164.963 1.44509 165.063 1.78026 165.053 2.12141C165.058 2.37222 165.004 2.62067 164.896 2.8462C164.793 3.04175 164.65 3.21259 164.475 3.34707C164.31 3.46918 164.124 3.56093 163.927 3.61813Z" fill="#256C44"/>
<path d="M166.483 7.07103L169.04 0.447754H169.869L172.426 7.07103H171.515L169.39 1.4436H169.507L167.382 7.07103H166.483ZM167.797 5.30325V4.51954H171.136V5.30325H167.797Z" fill="#256C44"/>
<path d="M180.055 6.28731V8.39097H179.256V6.96496L179.378 7.0946H174.09V0.447754H174.924V6.41106L174.802 6.28731H180.055ZM178.479 6.51713V0.447754H179.314V6.51713H178.479Z" fill="#256C44"/>
<path d="M182.671 0.447754V5.93376H182.525L186.337 0.447754H187.154V7.07103H186.319V1.6086H186.459L182.647 7.07103H181.836V0.447754H182.671Z" fill="#256C44"/>
<path d="M190.3 0.447754V5.93376H190.154L193.937 0.447754H194.754V7.07103H193.919V1.6086H194.06L190.254 7.07103H189.436V0.447754H190.3Z" fill="#256C44"/>
<path d="M88.1453 16.5758C88.364 16.6314 88.5714 16.7251 88.7582 16.8527C88.9477 16.9852 89.1036 17.1608 89.2135 17.3654C89.3354 17.5994 89.3957 17.8612 89.3887 18.1255C89.4019 18.4954 89.2999 18.8603 89.0968 19.1685C88.8961 19.4546 88.6157 19.6741 88.2912 19.799C87.9058 19.9479 87.4954 20.0199 87.0829 20.0111H84.6428V13.3702H87.0945C87.4673 13.3625 87.8373 13.4348 88.1803 13.5823C88.4691 13.7052 88.7164 13.9099 88.8925 14.1716C89.0643 14.4418 89.1518 14.758 89.1435 15.079C89.1615 15.4194 89.0648 15.7559 88.8691 16.0336C88.6836 16.2799 88.4326 16.468 88.1453 16.5758ZM88.2854 15.1851C88.2927 15.0432 88.267 14.9016 88.2102 14.7716C88.1534 14.6417 88.0672 14.5269 87.9585 14.4367C87.6836 14.2443 87.3526 14.1509 87.0187 14.1716H85.4834V16.2399H86.9778C87.3134 16.26 87.6455 16.1622 87.9176 15.9629C88.0315 15.8693 88.1224 15.7504 88.1831 15.6155C88.2439 15.4805 88.2729 15.3332 88.2679 15.1851H88.2854ZM87.0654 19.2097C87.439 19.2272 87.8092 19.1307 88.1278 18.9328C88.2513 18.8364 88.3514 18.7128 88.4202 18.5713C88.4891 18.4298 88.5249 18.2743 88.5249 18.1167C88.5249 17.959 88.4891 17.8035 88.4202 17.662C88.3514 17.5206 88.2513 17.3969 88.1278 17.3005C87.8069 17.1094 87.4375 17.0172 87.0654 17.0354H85.4834V19.2097H87.0654Z" fill="#256C44"/>
<path d="M96.1016 16.6051C96.4851 16.633 96.8648 16.513 97.164 16.2692C97.2861 16.1572 97.3824 16.0194 97.4459 15.8656C97.5095 15.7119 97.5388 15.5459 97.5318 15.3794C97.5399 15.2146 97.5111 15.05 97.4474 14.898C97.3837 14.7459 97.2868 14.6104 97.164 14.5014C96.8629 14.2619 96.4841 14.1442 96.1016 14.1715H94.613L94.7356 14.0477V20.0346H93.9009V13.3701H96.16C96.5614 13.3629 96.9596 13.4433 97.3274 13.6058C97.6483 13.7499 97.9188 13.988 98.1038 14.2893C98.2857 14.6254 98.381 15.0023 98.381 15.3853C98.381 15.7683 98.2857 16.1452 98.1038 16.4814C97.9175 16.7888 97.6425 17.0314 97.3158 17.1767C96.9471 17.3357 96.5492 17.414 96.1483 17.4065H94.5663V16.6051H96.1016Z" fill="#256C44"/>
<path d="M100.988 19.3334L100.865 19.2097H104.303V20.0346H100.153V13.3701H104.303V14.1715H100.871L100.993 14.0478L100.988 19.3334ZM100.836 16.2398H104.134V17.0353H100.836V16.2398Z" fill="#256C44"/>
<path d="M110.783 14.7314C110.57 14.5363 110.325 14.3807 110.059 14.2718C109.781 14.167 109.486 14.115 109.189 14.1186C108.76 14.1134 108.338 14.2275 107.969 14.4486C107.601 14.6678 107.298 14.9834 107.093 15.3619C106.874 15.7682 106.764 16.2252 106.772 16.6878C106.764 17.1604 106.877 17.6272 107.099 18.0431C107.309 18.4207 107.618 18.7326 107.992 18.9446C108.401 19.1615 108.856 19.2709 109.318 19.2628C109.582 19.2674 109.846 19.2296 110.1 19.1509C110.347 19.0633 110.581 18.9403 110.794 18.7855L111.232 19.4396C110.996 19.6597 110.715 19.8247 110.409 19.9228C110.054 20.0434 109.681 20.1032 109.306 20.0996C108.698 20.1069 108.097 19.9654 107.555 19.6871C107.047 19.4183 106.626 19.0096 106.34 18.5086C106.039 17.9552 105.888 17.331 105.903 16.6996C105.892 16.0801 106.047 15.4692 106.352 14.9318C106.639 14.4268 107.054 14.0079 107.555 13.7179C108.045 13.4271 108.603 13.2745 109.172 13.276C109.601 13.2648 110.028 13.343 110.427 13.5058C110.739 13.6341 111.025 13.8222 111.267 14.0597L110.783 14.7314Z" fill="#256C44"/>
<path d="M118.284 13.3701V20.0346H117.449V14.0596L117.578 14.1715H113.725L113.847 14.0596V20.0346H113.013V13.3701H118.284Z" fill="#256C44"/>
<path d="M122.82 18.8565L119.948 13.394H120.87L123.298 17.9844L122.82 18.8565ZM121.856 20.035L122.709 18.0845L122.796 17.9608L124.833 13.394H125.744L122.755 20.035H121.856Z" fill="#256C44"/>
<path d="M129.871 16.0277C130.432 16.0013 130.982 16.1838 131.418 16.5403C131.617 16.7187 131.772 16.9402 131.873 17.1883C131.975 17.4364 132.018 17.7045 132.002 17.9722C132.01 18.344 131.917 18.7109 131.733 19.0329C131.553 19.3405 131.29 19.5898 130.974 19.7518C130.633 19.9272 130.254 20.0162 129.871 20.0111H127.408V13.3701H131.529V14.1715H128.12L128.242 14.0596V19.3629L128.12 19.2391H129.754C130.125 19.2425 130.483 19.1059 130.758 18.8561C130.884 18.7424 130.982 18.602 131.047 18.445C131.111 18.288 131.14 18.1184 131.132 17.9487C131.142 17.787 131.114 17.6252 131.05 17.4766C130.987 17.328 130.888 17.1969 130.764 17.0942C130.467 16.8823 130.106 16.7784 129.743 16.7996H128.079V16.0277H129.871Z" fill="#256C44"/>
<path d="M133.187 19.2627C133.314 19.2698 133.441 19.2486 133.559 19.2008C133.677 19.1529 133.783 19.0795 133.87 18.9858C134.059 18.7646 134.192 18.4994 134.255 18.2138C134.354 17.7973 134.423 17.3738 134.459 16.9469L134.81 13.3701H138.832V20.0346H137.997V13.8003L138.365 14.1715H135.16L135.568 13.8003L135.236 17.1414C135.191 17.6866 135.099 18.2268 134.961 18.7559C134.863 19.1315 134.661 19.4708 134.378 19.7341C134.072 19.9847 133.685 20.1108 133.292 20.0877L133.187 19.2627Z" fill="#256C44"/>
<path d="M141.949 13.3701V18.8561H141.803L145.615 13.376H146.432V20.0346H145.597V14.5251H145.737L141.925 20.0346H141.114V13.3701H141.949Z" fill="#256C44"/>
<path d="M149.549 20.0346H148.714V13.3701H149.549V20.0346ZM152.468 13.3937H153.577L150.18 16.8173V16.2752L153.664 20.0346H152.526L149.31 16.5875L152.468 13.3937Z" fill="#256C44"/>
<path d="M156.134 19.3334L156.011 19.2097H159.455V20.0346H155.276V13.3701H159.432V14.1715H155.988L156.11 14.0478L156.134 19.3334ZM155.982 16.2398H159.286V17.0353H155.982V16.2398Z" fill="#256C44"/>
<path d="M84.0881 27.1062V26.2871H89.6045V27.1062H84.0881ZM87.2637 26.8764V32.9457H86.4289V26.8646L87.2637 26.8764Z" fill="#256C44"/>
<path d="M89.9314 32.934L92.494 26.2871H93.3288L95.8797 32.934H94.9691L92.8443 27.3065H92.9552L90.8362 32.934H89.9314ZM91.2507 31.1662V30.3589H94.5663V31.1603L91.2507 31.1662Z" fill="#256C44"/>
<path d="M96.2009 27.1062V26.2871H101.723V27.1062H96.2009ZM99.3823 26.8764V32.9457H98.5476V26.8646L99.3823 26.8764Z" fill="#256C44"/>
<path d="M102.044 32.934L104.607 26.2871H105.442L107.993 32.934H107.082L104.957 27.3065H105.074L102.949 32.934H102.044ZM103.363 31.1662V30.3589H106.702V31.1603L103.363 31.1662Z" fill="#256C44"/>
<path d="M111.857 29.5219C112.239 29.5492 112.618 29.4315 112.919 29.1919C113.039 29.0782 113.134 28.9401 113.197 28.7867C113.261 28.6334 113.291 28.4683 113.287 28.3022C113.294 28.1365 113.265 27.9713 113.201 27.8185C113.138 27.6656 113.041 27.5289 112.919 27.4183C112.617 27.1808 112.238 27.0653 111.857 27.0942H110.368L110.491 26.9704V32.9337H109.656V26.2869H111.909C112.311 26.2814 112.708 26.3617 113.077 26.5226C113.398 26.669 113.669 26.9065 113.859 27.2061C114.049 27.5388 114.144 27.9182 114.133 28.3022C114.144 28.6868 114.047 29.0666 113.853 29.3982C113.667 29.7056 113.392 29.9482 113.065 30.0935C112.698 30.2572 112.299 30.3377 111.898 30.3292H110.327V29.5219H111.857Z" fill="#256C44"/>
<path d="M120.56 27.648C120.349 27.456 120.106 27.3025 119.842 27.1943C119.563 27.0851 119.266 27.031 118.967 27.0352C118.538 27.0326 118.117 27.1466 117.747 27.3651C117.38 27.5861 117.078 27.9013 116.871 28.2785C116.656 28.6921 116.544 29.1521 116.544 29.6191C116.544 30.086 116.656 30.546 116.871 30.9596C117.085 31.342 117.403 31.6548 117.787 31.8612C118.192 32.0825 118.647 32.1942 119.107 32.1853C119.372 32.1886 119.636 32.1488 119.889 32.0674C120.137 31.9834 120.371 31.8622 120.584 31.708L121.021 32.3562C120.787 32.5801 120.506 32.7474 120.198 32.8453C119.837 32.9566 119.461 33.0084 119.083 32.9985C118.475 33.0089 117.873 32.8672 117.332 32.586C116.822 32.3221 116.399 31.9122 116.118 31.4075C115.813 30.8554 115.659 30.2306 115.674 29.5984C115.662 28.9789 115.818 28.3678 116.124 27.8307C116.417 27.3361 116.834 26.9277 117.332 26.6462C117.765 26.3991 118.246 26.2514 118.741 26.2137C119.237 26.176 119.734 26.2493 120.198 26.4282C120.514 26.5548 120.8 26.7454 121.039 26.988L120.56 27.648Z" fill="#256C44"/>
<path d="M122.516 27.1062V26.2871H128.032V27.1062H122.516ZM125.691 26.8764V32.9457H124.857V26.8646L125.691 26.8764Z" fill="#256C44"/>
<path d="M128.359 32.934L130.916 26.2871H131.751L134.302 32.934H133.391L131.266 27.3065H131.383L129.258 32.934H128.359ZM129.678 31.1662V30.3589H133.012V31.1603L129.678 31.1662Z" fill="#256C44"/>
<path d="M136.8 32.934H135.965V26.2871H136.8V32.934ZM140.554 29.9877H136.648V29.1509H140.554V29.9877ZM140.402 26.3166H141.266V32.934H140.431L140.402 26.3166Z" fill="#256C44"/>
<path d="M86.8319 42.4265C87.2154 42.4544 87.5951 42.3343 87.8943 42.0906C88.0104 41.9838 88.1031 41.8536 88.1664 41.7085C88.2297 41.5634 88.2623 41.4065 88.262 41.2479C88.2702 41.0831 88.2413 40.9185 88.1777 40.7665C88.114 40.6144 88.0171 40.4789 87.8943 40.3699C87.5931 40.1304 87.2143 40.0127 86.8319 40.04H85.3433L85.4659 39.9162V45.8501H84.6428V39.2091H86.8961C87.2976 39.2006 87.6961 39.2811 88.0636 39.4448C88.3862 39.586 88.6575 39.8249 88.8399 40.1283C89.0341 40.4575 89.1313 40.8356 89.1201 41.2185C89.1312 41.6051 89.0341 41.987 88.8399 42.3204C88.6551 42.6269 88.3823 42.8695 88.0577 43.0157C87.689 43.1746 87.2911 43.2529 86.8902 43.2455H85.32V42.4265H86.8319Z" fill="#256C44"/>
<path d="M91.7234 45.1728L91.595 45.049H95.0391V45.8504H90.8887V39.2095H95.0391V40.0109H91.595L91.7234 39.8871V45.1728ZM91.5716 42.0792H94.8698V42.8747H91.5716V42.0792Z" fill="#256C44"/>
<path d="M101.507 40.5703C101.296 40.3766 101.053 40.2211 100.789 40.1107C100.509 40.0059 100.212 39.954 99.9135 39.9575C99.4865 39.9533 99.0666 40.0675 98.6993 40.2875C98.328 40.5044 98.023 40.8204 97.8179 41.2008C97.6013 41.6082 97.4908 42.0644 97.4968 42.5266C97.4875 43.0001 97.6023 43.4677 97.8296 43.8819C98.0439 44.2643 98.3618 44.5771 98.746 44.7835C99.1521 45.0003 99.606 45.1098 100.065 45.1017C100.33 45.1068 100.594 45.069 100.848 44.9897C101.098 44.9036 101.334 44.7805 101.548 44.6244L101.98 45.2785C101.746 45.501 101.464 45.6663 101.157 45.7617C100.804 45.8827 100.433 45.9425 100.059 45.9385C99.4513 45.9458 98.8504 45.8042 98.3082 45.526C97.7999 45.2588 97.3785 44.8497 97.094 44.3475C96.7907 43.7945 96.6376 43.1704 96.6504 42.5384C96.6384 41.9181 96.7959 41.3065 97.1057 40.7707C97.3945 40.2669 97.8092 39.8483 98.3082 39.5568C98.798 39.2652 99.3566 39.1125 99.9252 39.1148C100.353 39.1036 100.778 39.1818 101.174 39.3446C101.49 39.4715 101.777 39.6597 102.021 39.8985L101.507 40.5703Z" fill="#256C44"/>
<path d="M109.014 39.2095V45.8504H108.179V39.8989L108.302 40.0109H104.455L104.577 39.8989V45.8504H103.743V39.2095H109.014Z" fill="#256C44"/>
<path d="M113.55 44.6719L110.678 39.2095H111.6L114.023 43.7998L113.55 44.6719ZM112.581 45.8504L113.439 43.9L113.521 43.7762L115.581 39.2095H116.492L113.509 45.8504H112.581Z" fill="#256C44"/>
<path d="M120.601 41.867C121.16 41.8405 121.709 42.023 122.142 42.3797C122.341 42.558 122.497 42.7796 122.598 43.0277C122.699 43.2758 122.743 43.5438 122.726 43.8116C122.735 44.1833 122.642 44.5503 122.458 44.8723C122.277 45.1798 122.014 45.4292 121.699 45.5912C121.357 45.7666 120.979 45.8555 120.595 45.8504H118.126V39.2095H122.253V40.0109H118.838L118.961 39.8989V45.2022L118.838 45.0785H120.479C120.846 45.0996 121.208 44.9819 121.494 44.7485C121.617 44.6328 121.713 44.4918 121.776 44.3352C121.84 44.1786 121.869 44.0101 121.862 43.8411C121.872 43.68 121.845 43.5188 121.782 43.3704C121.719 43.222 121.623 43.0905 121.5 42.9866C121.203 42.7746 120.842 42.6708 120.479 42.692H118.809V41.867H120.601Z" fill="#256C44"/>
<path d="M123.917 45.1021C124.044 45.1091 124.171 45.088 124.289 45.0401C124.407 44.9923 124.513 44.9189 124.6 44.8251C124.79 44.604 124.922 44.3387 124.985 44.0532C125.082 43.636 125.15 43.2128 125.19 42.7863L125.54 39.2095H129.556V45.8504H128.721V39.6396L129.095 40.0109H125.89L126.299 39.6396L125.966 42.9807C125.921 43.5259 125.829 44.0662 125.692 44.5953C125.593 44.9707 125.39 45.31 125.108 45.5735C124.802 45.8241 124.415 45.9502 124.022 45.927L123.917 45.1021Z" fill="#256C44"/>
<path d="M132.673 39.2095V44.6955H132.51L136.321 39.2095H137.179V45.8504H136.351V40.3703H136.491L132.679 45.8504H131.862V39.2095H132.673Z" fill="#256C44"/>
<path d="M140.279 45.8504H139.445V39.2095H140.279V45.8504ZM143.198 39.2095H144.307L140.916 42.6331V42.091L144.371 45.8504H143.251L140.04 42.4268L143.198 39.2095Z" fill="#256C44"/>
<path d="M145.702 45.8504L148.271 39.2095H149.105L151.656 45.8504H150.746L148.621 40.223H148.738L146.613 45.8504H145.702ZM147.016 44.0826V43.2754H150.355V44.0826H147.016Z" fill="#256C44"/>
<path d="M157.57 40.5707C157.358 40.377 157.115 40.2215 156.852 40.1111C156.572 40.0063 156.275 39.9544 155.976 39.9578C155.549 39.9515 155.128 40.0658 154.762 40.2878C154.391 40.5047 154.086 40.8208 153.88 41.2012C153.666 41.6148 153.553 42.0748 153.553 42.5417C153.553 43.0087 153.666 43.4687 153.88 43.8823C154.098 44.2663 154.42 44.5793 154.809 44.7839C155.215 45.0007 155.669 45.1102 156.128 45.1021C156.393 45.1072 156.657 45.0694 156.91 44.9901C157.16 44.904 157.396 44.7808 157.611 44.6248L158.043 45.2789C157.808 45.5002 157.526 45.6653 157.219 45.7621C156.866 45.8831 156.495 45.9429 156.122 45.9388C155.514 45.9461 154.913 45.8046 154.371 45.5263C153.861 45.2608 153.439 44.8513 153.157 44.3478C152.851 43.7957 152.698 43.171 152.713 42.5388C152.702 41.9194 152.857 41.3085 153.162 40.771C153.455 40.2683 153.871 39.8503 154.371 39.5571C154.861 39.2656 155.419 39.1129 155.988 39.1152C156.415 39.1046 156.841 39.1829 157.237 39.345C157.552 39.4719 157.84 39.6601 158.083 39.8989L157.57 40.5707Z" fill="#256C44"/>
<path d="M160.488 42.5977V41.7904H162.117C162.519 41.7838 162.918 41.8663 163.285 42.032C163.611 42.1811 163.885 42.4253 164.073 42.7332C164.271 43.0609 164.37 43.4397 164.359 43.8234C164.368 44.2071 164.273 44.5862 164.084 44.9194C163.897 45.2223 163.625 45.4623 163.302 45.6088C162.935 45.7742 162.536 45.8566 162.135 45.8504H159.8V39.2095H160.634V45.1728L160.512 45.049H162.064C162.45 45.0761 162.831 44.9563 163.133 44.7132C163.361 44.4766 163.489 44.1595 163.489 43.8293C163.489 43.4991 163.361 43.1819 163.133 42.9454C162.831 42.7023 162.45 42.5824 162.064 42.6095L160.488 42.5977ZM166.215 39.2095V45.8504H165.38V39.2095H166.215Z" fill="#256C44"/>
<path d="M169.326 45.8504H168.491V39.2095H169.326V45.8504ZM173.08 42.9041H169.174V42.0733H173.08V42.9041ZM172.928 39.2389H173.763V45.8504H172.928V39.2389Z" fill="#256C44"/>
<path d="M181.807 45.049V47.1409H181.007V45.7266L181.13 45.8504H176.051L176.174 45.7266V47.1409H175.38V45.049H181.807ZM175.823 45.049C176.079 44.7439 176.256 44.3794 176.337 43.9883C176.48 43.4072 176.581 42.8164 176.641 42.2206L176.932 39.2153H181.077V45.2847H180.242V39.8871L180.365 40.0108H177.283L177.691 39.6396L177.417 42.3855C177.365 42.9523 177.277 43.5152 177.154 44.0708C177.079 44.4262 176.939 44.7641 176.74 45.0667L175.823 45.049Z" fill="#256C44"/>
<path d="M183.213 45.8504L185.77 39.2095H186.605L189.133 45.8504H188.222L186.097 40.223H186.214L184.089 45.8504H183.213ZM184.533 44.0826V43.2754H187.866V44.0826H184.533Z" fill="#256C44"/>
<path d="M90.5912 57.9655V60.1045H89.7973V58.649L89.9199 58.7728H84.6428V52.1318H85.4776V58.0892L85.355 57.9655H90.5912ZM89.0209 58.1953V52.1318H89.8556V58.1953H89.0209Z" fill="#256C44"/>
<path d="M93.2063 52.1318V57.6119H93.0662L96.8781 52.1318H97.6895V58.7728H96.8606V53.2868H97.0007L93.1888 58.7728H92.3716V52.1318H93.2063Z" fill="#256C44"/>
<path d="M103.579 52.515C104.113 52.5187 104.64 52.6351 105.126 52.8567C105.607 53.0697 106.024 53.4071 106.335 53.8349C106.639 54.2911 106.802 54.8287 106.802 55.3788C106.802 55.9288 106.639 56.4664 106.335 56.9226C106.024 57.3504 105.607 57.6878 105.126 57.9008C104.64 58.1224 104.113 58.2389 103.579 58.2426V59.0616H102.739V58.2426C102.203 58.2383 101.675 58.1219 101.186 57.9008C100.703 57.6906 100.286 57.3526 99.9777 56.9226C99.677 56.465 99.5166 55.928 99.5166 55.3788C99.5166 54.8296 99.677 54.2926 99.9777 53.8349C100.286 53.405 100.703 53.067 101.186 52.8567C101.675 52.6356 102.203 52.5192 102.739 52.515V51.6782H103.562L103.579 52.515ZM100.404 55.3906C100.388 55.8136 100.516 56.2294 100.766 56.5691C101.002 56.8735 101.314 57.1094 101.671 57.2526C102.021 57.3968 102.396 57.4708 102.774 57.4706V53.2987C102.396 53.2985 102.021 53.3726 101.671 53.5167C101.306 53.6589 100.987 53.8994 100.748 54.212C100.505 54.5546 100.384 54.9698 100.404 55.3906ZM103.597 57.4648C103.975 57.4649 104.35 57.3909 104.7 57.2467C105.051 57.1026 105.359 56.8691 105.593 56.5691C105.826 56.2211 105.951 55.8106 105.951 55.3906C105.951 54.9705 105.826 54.56 105.593 54.212C105.357 53.904 105.042 53.6658 104.683 53.5226C104.332 53.3784 103.958 53.3044 103.579 53.3046L103.597 57.4648Z" fill="#256C44"/>
<path d="M110.841 55.3904C111.226 55.4187 111.608 55.2987 111.909 55.0545C112.031 54.9425 112.128 54.8047 112.191 54.6509C112.255 54.4972 112.284 54.3312 112.277 54.1648C112.284 53.9991 112.255 53.8339 112.192 53.6811C112.128 53.5282 112.032 53.3915 111.909 53.2809C111.605 53.0435 111.225 52.9281 110.841 52.9568H109.358L109.481 52.833V58.7728H108.646V52.1318H110.911C111.312 52.1245 111.71 52.2028 112.079 52.3616C112.4 52.5016 112.672 52.7356 112.861 53.0334C113.057 53.3619 113.154 53.7405 113.141 54.1235C113.149 54.5079 113.052 54.8871 112.861 55.2195C112.679 55.5326 112.406 55.7816 112.079 55.9325C111.711 56.0962 111.313 56.1767 110.911 56.1682H109.341V55.3904H110.841Z" fill="#256C44"/>
<path d="M113.83 58.0244C113.957 58.0299 114.083 58.008 114.201 57.9603C114.319 57.9125 114.425 57.84 114.513 57.7475C114.707 57.5272 114.84 57.2588 114.898 56.9697C114.998 56.5552 115.066 56.1336 115.102 55.7086L115.453 52.1318H119.475V58.7728H118.64V52.562L119.008 52.9332H115.803L116.212 52.562L115.879 55.9031C115.837 56.4487 115.745 56.9892 115.604 57.5177C115.507 57.8936 115.304 58.2332 115.021 58.4958C114.715 58.7464 114.328 58.8725 113.935 58.8494L113.83 58.0244Z" fill="#256C44"/>
<path d="M121.133 58.7728L123.689 52.1318H124.524L127.075 58.7728H126.164L124.04 53.1454H124.156L122.032 58.7728H121.133ZM122.446 57.005V56.1977H125.785V56.9991L122.446 57.005Z" fill="#256C44"/>
<path d="M135.749 57.9655L135.627 58.0892V52.1318H136.461V58.7728H128.744V52.1318H129.591V58.0892L129.468 57.9655H135.749ZM132.183 58.1953V52.1318H133.017V58.1953H132.183Z" fill="#256C44"/>
<path d="M138.172 52.9332V52.1318H143.688V52.9332H138.172ZM141.347 52.7034V58.7728H140.513V52.7034H141.347Z" fill="#256C44"/>
<path d="M146.087 55.5201V54.7128H147.716C148.118 54.7062 148.517 54.7887 148.884 54.9544C149.21 55.0997 149.485 55.3423 149.672 55.6497C149.869 55.9777 149.968 56.3562 149.958 56.7398C149.969 57.1238 149.874 57.5032 149.683 57.8359C149.499 58.1424 149.226 58.3849 148.901 58.5312C148.534 58.6966 148.136 58.779 147.734 58.7728H145.399V52.1318H146.233V58.0892L146.111 57.9655H147.687C148.072 57.9926 148.453 57.8727 148.755 57.6296C148.874 57.5153 148.968 57.377 149.03 57.2237C149.093 57.0704 149.122 56.9055 149.117 56.7398C149.122 56.5742 149.093 56.4093 149.03 56.256C148.968 56.1027 148.874 55.9643 148.755 55.8501C148.451 55.6116 148.071 55.4942 147.687 55.5201H146.087ZM151.814 52.1318V58.7728H150.979V52.1318H151.814Z" fill="#256C44"/>
<path d="M156.291 55.3904C156.677 55.4174 157.058 55.2976 157.36 55.0545C157.479 54.9402 157.572 54.8019 157.635 54.6486C157.697 54.4952 157.727 54.3304 157.722 54.1647C157.729 53.9996 157.7 53.835 157.638 53.6823C157.575 53.5296 157.48 53.3925 157.36 53.2808C157.055 53.0445 156.675 52.9291 156.291 52.9567H154.803L154.925 52.833V58.7727H154.108V52.1318H156.367C156.768 52.1249 157.166 52.2032 157.535 52.3616C157.852 52.5052 158.122 52.7385 158.311 53.0333C158.493 53.3684 158.588 53.7443 158.588 54.1264C158.588 54.5085 158.493 54.8844 158.311 55.2195C158.125 55.5269 157.85 55.7695 157.523 55.9148C157.156 56.0787 156.757 56.1592 156.356 56.1505H154.779V55.3904H156.291Z" fill="#256C44"/>
<path d="M162.572 57.5943L159.7 52.1318H160.623L163.045 56.7222L162.572 57.5943ZM161.609 58.7728L162.462 56.8164L162.543 56.6927L164.586 52.1318H165.491L162.508 58.7728H161.609Z" fill="#256C44"/>
<path d="M170.85 58.0892L170.727 57.9655H174.166V58.7728H170.015V52.1318H174.166V52.9332H170.727L170.85 52.8095V58.0892ZM170.698 55.0015H173.996V55.797H170.698V55.0015Z" fill="#256C44"/>
<path d="M175.619 58.0244C175.744 58.0282 175.868 58.0055 175.984 57.9578C176.1 57.9101 176.204 57.8385 176.29 57.7475C176.481 57.5246 176.613 57.2573 176.676 56.9697C176.773 56.5546 176.841 56.1332 176.88 55.7086L177.23 52.1318H181.246V58.7728H180.418V52.562L180.785 52.9332H177.581L177.989 52.562L177.656 55.9031C177.612 56.4483 177.52 56.9885 177.382 57.5177C177.28 57.8916 177.078 58.23 176.798 58.4958C176.493 58.7464 176.106 58.8725 175.713 58.8494L175.619 58.0244Z" fill="#256C44"/>
<path d="M184.223 55.5201V54.7128H185.858C186.26 54.7054 186.659 54.7879 187.025 54.9544C187.352 55.1027 187.628 55.3444 187.819 55.6497C188.014 55.9788 188.113 56.3566 188.105 56.7398C188.116 57.1238 188.021 57.5032 187.831 57.8359C187.646 58.1424 187.373 58.3849 187.049 58.5312C186.681 58.6957 186.283 58.7781 185.881 58.7728H183.546V52.1318H184.375V58.0892L184.252 57.9655H185.811C186.195 57.9934 186.574 57.8734 186.873 57.6296C186.996 57.5178 187.092 57.3801 187.156 57.2263C187.22 57.0724 187.249 56.9063 187.241 56.7398C187.246 56.5737 187.215 56.4086 187.152 56.2553C187.088 56.1019 186.993 55.9638 186.873 55.8501C186.572 55.6105 186.194 55.4928 185.811 55.5201H184.223ZM189.95 52.1318V58.7728H189.133V52.1318H189.95Z" fill="#256C44"/>
<path d="M37.8149 0.447754H26.4961V58.7844H37.8149V0.447754Z" fill="#256C44"/>
<path d="M0 0.447794L0 11.8735L32.1526 11.8735V0.447794L0 0.447794Z" fill="#256C44"/>
<path d="M61.1645 12.6808C64.5109 12.6808 67.2237 9.94232 67.2237 6.56427C67.2237 3.18621 64.5109 0.447754 61.1645 0.447754C57.818 0.447754 55.1052 3.18621 55.1052 6.56427C55.1052 9.94232 57.818 12.6808 61.1645 12.6808Z" fill="#256C44"/>
<path d="M46.4543 12.6808C49.8007 12.6808 52.5135 9.94232 52.5135 6.56427C52.5135 3.18621 49.8007 0.447754 46.4543 0.447754C43.1078 0.447754 40.395 3.18621 40.395 6.56427C40.395 9.94232 43.1078 12.6808 46.4543 12.6808Z" fill="#256C44"/>
</g>
<defs>
<clipPath id="clip0_6_6813">
<rect width="194.754" height="60.075" fill="white"/>
</clipPath>
</defs>
</svg>
