<?xml version="1.0" encoding="utf-8"?>
<!-- Generator: Adobe Illustrator 25.3.1, SVG Export Plug-In . SVG Version: 6.00 Build 0)  -->
<svg version="1.1" id="Слой_1" xmlns="http://www.w3.org/2000/svg" xmlns:xlink="http://www.w3.org/1999/xlink" x="0px" y="0px"
     viewBox="0 0 300 100" style="enable-background:new 0 0 300 100;" xml:space="preserve">
<style type="text/css">
	.st0{fill:#009C32;}
	.st1{fill:#170030;}
</style>
    <path class="st0" d="M288.59,47.93c-2.17-5.49-7.54-8.48-13.34-7.43l-11.93,2.14c-1.98,0.36-3.29,2.25-2.94,4.23
	c0.35,1.98,2.25,3.3,4.23,2.94l11.93-2.15c2.84-0.51,4.59,1.19,5.29,2.94c0.69,1.76,0.58,4.2-1.84,5.76l-17.51,11.35
	c-1.63,1.05-3.61,1.13-5.3,0.2c-1.7-0.92-2.71-2.63-2.71-4.56V26.59c0-2.01-1.63-3.64-3.64-3.64c-2.01,0-3.64,1.63-3.64,3.64v36.77
	c0,4.64,2.44,8.74,6.52,10.96c1.89,1.03,3.94,1.54,5.97,1.54c2.35,0,4.68-0.68,6.77-2.03l17.51-11.35
	C288.89,59.27,290.76,53.42,288.59,47.93 M226.99,40.5l-11.93,2.14c-1.98,0.36-3.29,2.25-2.94,4.23c0.35,1.98,2.25,3.3,4.23,2.94
	l11.93-2.15c2.84-0.51,4.59,1.19,5.29,2.94c0.69,1.76,0.58,4.2-1.84,5.76l-17.51,11.35c-1.63,1.05-3.61,1.13-5.3,0.2
	c-1.7-0.92-2.71-2.63-2.71-4.56V35.43c0-4.64-2.44-8.74-6.52-10.96c-4.08-2.22-8.84-2.03-12.74,0.49L142.9,53.49
	c-4.96,3.21-6.83,9.06-4.66,14.55s7.53,8.48,13.34,7.43l38.46-6.91c1.98-0.36,3.29-2.25,2.94-4.23c-0.35-1.98-2.25-3.3-4.23-2.94
	l-38.46,6.91c-2.84,0.51-4.59-1.19-5.29-2.94c-0.69-1.76-0.58-4.19,1.84-5.76l44.04-28.53c1.62-1.05,3.61-1.13,5.3-0.2
	c1.7,0.92,2.71,2.63,2.71,4.56v27.93c0,4.64,2.44,8.74,6.52,10.96c1.9,1.03,3.94,1.54,5.97,1.54c2.35,0,4.68-0.68,6.77-2.03
	l17.51-11.35c4.96-3.21,6.83-9.06,4.66-14.55C238.17,42.44,232.8,39.46,226.99,40.5"/>
    <path class="st1" d="M22.64,34.54l2.92-8.33c0.11-0.29,0.21-0.4,0.43-0.4c0.22,0,0.31,0.1,0.42,0.4l2.94,8.33H22.64z M35.53,42.7
	c0-0.3-0.05-0.58-0.22-1.03l-5.9-16.09c-0.71-1.96-1.75-2.8-3.4-2.8c-1.64,0-2.69,0.84-3.4,2.8l-5.94,16.1
	c-0.18,0.5-0.22,0.8-0.22,1.03c0,0.84,0.66,1.53,1.59,1.53c0.75,0,1.32-0.38,1.63-1.31l1.92-5.47h8.76l1.93,5.49
	c0.31,0.91,0.87,1.29,1.62,1.29C34.86,44.24,35.53,43.55,35.53,42.7 M50.85,41.5l-5.5-5.5l5.23-5.23c0.4-0.41,0.61-0.81,0.61-1.27
	c0-0.77-0.56-1.34-1.36-1.34c-0.46,0-0.81,0.17-1.26,0.62l-5.31,5.31c-0.29,0.29-0.6,0.45-1.01,0.45h-1.08v-4.69
	c0-1.07-0.62-1.69-1.6-1.69c-0.97,0-1.59,0.62-1.59,1.69v12.71c0,1.07,0.62,1.7,1.59,1.7c0.98,0,1.6-0.63,1.6-1.7v-5.07h0.91
	c0.41,0,0.72,0.16,1.01,0.45l5.66,5.67c0.47,0.47,0.83,0.65,1.32,0.65c0.84,0,1.43-0.6,1.43-1.41
	C51.49,42.34,51.27,41.92,50.85,41.5 M45.33,73.07c-1.17,0.63-2.76,1.09-4.23,1.09c-2.63,0-4.12-1.12-4.12-3.05
	c0-1.73,1.31-3.03,4.12-3.03c1.4,0,2.57,0.2,4.23,0.69V73.07z M41.55,59.77c-1.84,0-3.63,0.5-4.6,0.94
	c-0.65,0.28-0.95,0.58-0.94,1.11c0.02,0.54,0.43,0.96,0.95,0.96c0.25,0,0.55-0.1,0.85-0.24c0.74-0.32,2.15-0.74,3.53-0.74
	c2.73,0,3.99,1.11,3.99,3.58v1.47c-1.71-0.49-2.94-0.67-4.42-0.67c-3.99,0-6.02,2.3-6.02,4.89c0,3.05,2.29,5.05,5.93,5.05
	c3,0,5.3-1.06,6.15-1.67c0.34-0.24,0.44-0.44,0.44-0.91v-8.22C47.41,61.54,45.2,59.77,41.55,59.77 M87.28,40.86
	c-0.95,0.5-2.25,0.86-3.49,0.86c-2.05,0-3.34-0.89-3.34-2.43c0-1.4,1.1-2.48,3.32-2.48c1.17,0,2.21,0.17,3.51,0.56V40.86z
	 M84.07,28.01c-1.78,0-3.4,0.45-4.43,0.87c-0.87,0.35-1.24,0.86-1.23,1.53c0.01,0.79,0.6,1.37,1.35,1.37c0.36,0,0.75-0.14,1.18-0.31
	c0.67-0.27,1.78-0.56,2.88-0.56c2.46,0,3.46,0.93,3.46,2.82v1.28c-1.41-0.38-2.57-0.55-3.89-0.55c-4.02,0-5.99,2.29-5.99,4.81
	c0,2.91,2.2,5.1,6.1,5.1c3.03,0,5.34-1.01,6.26-1.64c0.44-0.31,0.6-0.6,0.6-1.2v-7.73C90.36,29.83,88.07,28.01,84.07,28.01
	 M74.07,67.77l6.11-6.11c0.29-0.29,0.41-0.52,0.41-0.85c0-0.48-0.33-0.89-0.9-0.89c-0.3,0-0.53,0.1-0.8,0.37l-5.98,5.98
	c-0.34,0.34-0.67,0.52-1.15,0.52h-1.23v-5.74c0-0.72-0.39-1.12-1.06-1.12c-0.66,0-1.06,0.4-1.06,1.12v13.84
	c0,0.72,0.39,1.12,1.06,1.12c0.67,0,1.06-0.4,1.06-1.12v-6.13h1.09c0.47,0,0.81,0.19,1.15,0.52l6.35,6.35
	C79.41,75.9,79.65,76,79.97,76c0.6,0,0.95-0.43,0.95-0.93c0-0.35-0.13-0.59-0.43-0.9L74.07,67.77z M63.22,59.91
	c-0.67,0-1.06,0.4-1.06,1.12v5.74h-8.79v-5.74c0-0.72-0.39-1.12-1.06-1.12c-0.66,0-1.06,0.4-1.06,1.12v13.84
	c0,0.72,0.4,1.12,1.06,1.12c0.67,0,1.06-0.4,1.06-1.12v-6.13h8.79v6.13c0,0.72,0.39,1.12,1.06,1.12c0.66,0,1.05-0.4,1.05-1.12V61.04
	C64.27,60.31,63.88,59.91,63.22,59.91 M104.6,37.9c-0.19,2.02-1.45,3.4-3.76,3.4c-1.19,0-2.69-0.37-3.43-0.89v-8.43
	c0.74-0.53,2.24-0.9,3.43-0.9c2.31,0,3.57,1.38,3.76,3.41C104.69,35.51,104.7,36.8,104.6,37.9 M100.95,28.01
	c-2.79,0-5.02,0.99-5.92,1.52c-0.73,0.43-0.81,0.78-0.81,2v16.28c0,1.06,0.62,1.69,1.59,1.69c0.98,0,1.6-0.63,1.6-1.69v-4.25
	c0.96,0.46,2.42,0.82,3.82,0.82c3.69,0,6.22-2.46,6.55-6c0.11-1.19,0.11-3.17,0-4.37C107.46,30.46,104.92,28.01,100.95,28.01
	 M63.1,34.07h5.23c2.47,0,3.58,1.26,3.58,3.43c0,2.21-1.11,3.52-3.58,3.52H63.1V34.07z M62.31,44.1h6.36c4.14,0,6.59-2.4,6.59-6.67
	c0-4.02-2.45-6.27-6.59-6.27H63.1v-5.15h9.36c1.02,0,1.69-0.6,1.69-1.57c0-0.92-0.67-1.52-1.69-1.52H62.31
	c-1.6,0-2.49,0.87-2.49,2.49v16.2C59.82,43.23,60.7,44.1,62.31,44.1 M122.56,38.32c-0.72,0.02-1.13,0.45-1.4,0.93
	c-0.55,1.2-1.73,2.04-3.33,2.04c-2.26,0-3.6-1.37-3.79-3.38c-0.1-1.08-0.1-2.33,0-3.41c0.19-2.02,1.54-3.39,3.79-3.39
	c1.6,0,2.76,0.83,3.33,2.05c0.28,0.46,0.68,0.91,1.4,0.91c0.93,0.01,1.55-0.57,1.55-1.48c0-0.47-0.18-0.94-0.46-1.46
	c-0.93-1.73-2.96-3.12-5.87-3.12c-3.93,0-6.57,2.48-6.9,6.02c-0.11,1.18-0.11,3.13,0,4.32c0.34,3.54,2.97,6.03,6.9,6.03
	c2.91,0,4.93-1.38,5.87-3.13c0.28-0.52,0.46-0.99,0.46-1.46C124.11,38.9,123.49,38.3,122.56,38.32 M26.16,73.78H20.2v-8.46h5.97
	c3.12,0,4.41,1.53,4.41,4.17C30.57,72.2,29.28,73.78,26.16,73.78 M26.43,63.29H20.2v-6.53h10.39c0.69,0,1.17-0.39,1.17-1.05
	c0-0.63-0.48-1.03-1.17-1.03H19.93c-1.19,0-1.87,0.67-1.87,1.88v17.43c0,1.21,0.68,1.87,1.87,1.87h6.5c3.99,0,6.31-2.32,6.31-6.38
	C32.74,65.53,30.43,63.29,26.43,63.29"/>
</svg>
