<svg width="144" height="134" viewBox="0 0 144 134" fill="none" xmlns="http://www.w3.org/2000/svg">
<path d="M101.8 11.0656L0 43.5205L41.6222 122.899L143.422 90.4443L101.8 11.0656Z" fill="white"/>
<path d="M23.4526 36.0435L0.123779 43.481L15.8605 48.6525L23.4526 36.0435Z" fill="#266D45"/>
<path d="M15.8677 48.6666L8.8177 60.3773L17.639 77.2006L31.6794 53.8626L15.8677 48.6666Z" fill="#266D45"/>
<path d="M47.4909 59.0585L70.3226 21.101L46.8875 28.5723L31.6792 53.8625L47.4909 59.0585Z" fill="#266D45"/>
<path d="M47.4983 59.0723L26.4602 94.0237L35.2815 110.847L63.3098 64.2683L47.4983 59.0723Z" fill="#266D45"/>
<path d="M79.1218 69.4644L107.601 22.1293L101.8 11.0658L93.7758 13.624L63.3101 64.2684L79.1218 69.4644Z" fill="#266D45"/>
<path d="M79.1393 69.4588L48.2822 120.776L71.6995 113.31L94.9582 74.6686L79.1393 69.4588Z" fill="#266D45"/>
<path d="M110.77 79.8642L125.251 55.7893L116.43 38.966L94.9583 74.6682L110.77 79.8642Z" fill="#266D45"/>
<path d="M110.771 79.8644L95.1533 105.833L118.588 98.3618L126.582 85.0604L110.771 79.8644Z" fill="#266D45"/>
<path d="M142.401 90.2704L142.901 89.4499L134.08 72.6267L126.589 85.0744L142.401 90.2704Z" fill="#266D45"/>
</svg>
