<svg width="111" height="112" viewBox="0 0 111 112" fill="none" xmlns="http://www.w3.org/2000/svg">
<path d="M28.1868 0.692609L0 83L81.9744 111.073L110.161 28.7653L28.1868 0.692609Z" fill="#266D45"/>
<path d="M71.7133 31.6826C64.8348 31.1303 63.1179 36.6396 61.0273 41.9886C56.6509 36.0665 51.3412 33.011 44.6233 32.6511L70.0963 84.6698L72.3311 83.5753C77.1 79.095 80.1158 73.6181 79.9879 67.0727C79.9027 63.0003 78.8651 58.8281 77.7825 54.8346C75.4225 46.1177 76.6596 42.765 84.7272 38.1448C81.2818 34.0376 76.834 32.1019 71.7133 31.6826Z" fill="#DE0541"/>
<path d="M27.2732 53.4678C31.056 47.6875 36.454 49.7059 41.9688 51.3357C39.9729 44.2476 40.8137 38.1796 44.6476 32.6513L70.0965 84.6699L67.8617 85.7645C61.3986 86.7857 55.2227 85.811 50.1226 81.6951C46.9573 79.1313 44.3019 75.7635 41.8104 72.4601C36.3702 65.2519 32.9582 64.1643 24.3695 67.7084C23.2489 62.4566 24.4514 57.7172 27.2732 53.4678Z" fill="white"/>
</svg>
