<svg width="267" height="28" viewBox="0 0 267 28" fill="none" xmlns="http://www.w3.org/2000/svg">
<path d="M5.57854 21.6821V3.35614H0V0H14.8377V3.35614H9.25916V21.6821H5.57854Z" fill="white"/>
<path d="M21.8958 21.978C20.4696 22.0567 19.068 21.583 17.9848 20.6561C17.4997 20.1895 17.121 19.6248 16.8741 18.9999C16.6272 18.3751 16.518 17.7048 16.5538 17.0343C16.5161 16.3295 16.6445 15.6256 16.9288 14.9789C17.213 14.3323 17.6453 13.7607 18.1909 13.31C19.2824 12.4287 20.8003 11.9881 22.7447 11.9881H26.6012V10.6359C26.6159 10.2972 26.5557 9.95945 26.4247 9.64651C26.2937 9.33357 26.0952 9.05313 25.8432 8.82508C25.2411 8.34636 24.4847 8.10181 23.7149 8.13695C22.9913 8.10837 22.2755 8.29543 21.6593 8.67417C21.409 8.82542 21.1978 9.03317 21.043 9.28063C20.8882 9.52809 20.7939 9.80833 20.768 10.0987H17.2874C17.3069 9.38336 17.4896 8.68177 17.8215 8.04701C18.1535 7.41224 18.6261 6.86092 19.2036 6.43474C20.5446 5.4669 22.1753 4.97967 23.8301 5.05244C25.5384 4.95054 27.2245 5.47923 28.5658 6.53735C29.1406 7.04377 29.5938 7.67229 29.8919 8.37648C30.19 9.08066 30.3253 9.84252 30.2879 10.6058V21.6822H26.7467V18.9176H26.6921C26.5934 19.3786 26.4024 19.815 26.1305 20.2008C25.8586 20.5866 25.5114 20.9139 25.1095 21.1631C24.1427 21.7448 23.0244 22.0284 21.8958 21.978ZM23.1085 19.2194C24.0182 19.2574 24.9126 18.9777 25.6371 18.4287C25.9533 18.1801 26.2064 17.8611 26.376 17.4972C26.5455 17.1334 26.6268 16.735 26.6133 16.3341V14.3784H22.8478C22.1515 14.3295 21.4625 14.5452 20.9196 14.982C20.4566 15.4624 20.2042 16.1061 20.2179 16.7717C20.2315 17.4372 20.5101 18.0701 20.9923 18.5313C21.591 19.0077 22.3428 19.2522 23.1085 19.2194Z" fill="white"/>
<path d="M38.116 21.6822V8.6741H32.6223V5.34814H47.2842V8.6741H41.7905V21.6822H38.116Z" fill="white"/>
<path d="M54.4392 21.9779C53.0128 22.0579 51.6108 21.584 50.5282 20.6559C50.0419 20.1904 49.6622 19.6257 49.4153 19.0007C49.1683 18.3756 49.0598 17.7049 49.0972 17.0342C49.0583 16.3298 49.1856 15.6261 49.4688 14.9794C49.752 14.3327 50.1834 13.7609 50.7283 13.3099C51.8197 12.4286 53.3397 11.9879 55.2881 11.9879H59.1446V10.6358C59.1599 10.2965 59.0993 9.95803 58.9672 9.64486C58.835 9.3317 58.6347 9.05165 58.3806 8.82496C57.7798 8.34375 57.0224 8.09888 56.2523 8.13683C55.5266 8.10704 54.8086 8.29414 54.1906 8.67405C53.9418 8.82709 53.7319 9.03528 53.5773 9.28239C53.4227 9.5295 53.3276 9.80884 53.2993 10.0986H49.8248C49.8443 9.38323 50.0269 8.68164 50.3589 8.04688C50.6908 7.41212 51.1634 6.8608 51.7409 6.43461C53.0815 5.46591 54.7126 4.97858 56.3675 5.05232C58.0637 4.95773 59.7359 5.4861 61.0668 6.53723C61.6434 7.04251 62.0982 7.67068 62.3974 8.37503C62.6966 9.07939 62.8325 9.84182 62.7949 10.6056V21.6821H59.2598V18.9175H59.1992C59.1015 19.3781 58.9116 19.8143 58.6407 20.2001C58.3698 20.5859 58.0236 20.9134 57.6226 21.163C56.6645 21.7389 55.5576 22.0223 54.4392 21.9779ZM55.652 19.2193C56.5599 19.2584 57.4528 18.9785 58.1744 18.4286C58.4925 18.1813 58.7473 17.8626 58.918 17.4986C59.0887 17.1346 59.1705 16.7355 59.1567 16.334V14.3783H55.3852C54.6889 14.3294 53.9998 14.5451 53.4569 14.9819C52.9969 15.4638 52.7466 16.1069 52.7602 16.7714C52.7738 17.436 53.0504 18.0684 53.5297 18.5312C54.1273 19.0053 54.8763 19.2495 55.6398 19.2193H55.652Z" fill="white"/>
<path d="M65.9784 27.0242V5.34809H69.5377V8.28773H69.5984C69.8313 7.33178 70.3801 6.48146 71.1567 5.87325C71.9656 5.28949 72.9475 4.992 73.946 5.02818C74.669 5.00241 75.3884 5.14126 76.0493 5.43416C76.7103 5.72705 77.2954 6.16626 77.76 6.71832C78.7775 8.00977 79.2902 9.62461 79.2032 11.2636V15.6881C79.2932 17.3368 78.7806 18.9621 77.76 20.2636C77.2954 20.8156 76.7103 21.2549 76.0493 21.5477C75.3884 21.8406 74.669 21.9795 73.946 21.9537C72.9542 21.9822 71.9805 21.6853 71.1749 21.1087C70.3905 20.5043 69.8348 19.6532 69.5984 18.6942H69.5377L69.6287 22.4064V26.9759L65.9784 27.0242ZM72.6059 18.7726C73.0075 18.7964 73.4095 18.7344 73.7849 18.5907C74.1604 18.447 74.5006 18.225 74.7828 17.9396C75.3357 17.2742 75.6113 16.423 75.5528 15.5614V11.4628C75.6104 10.6031 75.3348 9.75414 74.7828 9.09055C74.1875 8.54589 73.4084 8.24363 72.5999 8.24363C71.7913 8.24363 71.0123 8.54589 70.417 9.09055C69.8573 9.7674 69.5757 10.63 69.6287 11.505V15.4286C69.5763 16.3035 69.8579 17.1659 70.417 17.8431C70.6912 18.1481 71.0294 18.3895 71.4076 18.5502C71.7859 18.7108 72.1949 18.7867 72.6059 18.7726Z" fill="white"/>
<path d="M88.8443 21.978C87.6056 22.0074 86.3782 21.7382 85.2667 21.1933C84.2722 20.6966 83.4442 19.9227 82.8837 18.9659C82.3014 17.9268 82.0103 16.751 82.0409 15.5615V11.4629C82.0114 10.2754 82.3025 9.10186 82.8837 8.0645C83.4442 7.10769 84.2722 6.33381 85.2667 5.83714C86.3782 5.29223 87.6056 5.023 88.8443 5.05243C90.6034 4.96156 92.3333 5.52769 93.6952 6.63996C94.303 7.18415 94.7872 7.85115 95.1156 8.59644C95.4439 9.34172 95.6087 10.1481 95.5991 10.9619H92.0337C92.0255 10.5844 91.9363 10.2129 91.7721 9.87251C91.6079 9.53209 91.3725 9.23053 91.0817 8.98805C90.444 8.50028 89.6538 8.25231 88.8503 8.28785C88.4303 8.26497 88.0098 8.32521 87.6133 8.46508C87.2167 8.60495 86.852 8.82168 86.5401 9.10273C86.2459 9.4136 86.0193 9.78146 85.8743 10.1834C85.7293 10.5853 85.669 11.0126 85.6972 11.4388V15.5615C85.6536 15.9863 85.7047 16.4155 85.8471 16.8183C85.9895 17.2211 86.2196 17.5876 86.5209 17.8916C86.8222 18.1956 87.1872 18.4295 87.5899 18.5766C87.9927 18.7237 88.4231 18.7804 88.8503 18.7426C89.6599 18.7819 90.4571 18.5338 91.0999 18.0424C91.3859 17.797 91.6169 17.4944 91.7777 17.1543C91.9386 16.8143 92.0258 16.4443 92.0337 16.0685H95.5991C95.6087 16.8823 95.4439 17.6887 95.1156 18.434C94.7872 19.1793 94.303 19.8463 93.6952 20.3905C92.3333 21.5027 90.6034 22.0689 88.8443 21.978Z" fill="white"/>
<path d="M103.185 21.6822V8.6741H97.6912V5.34814H112.353V8.6741H106.865V21.6822H103.185Z" fill="white"/>
<path d="M119.52 21.9778C118.094 22.0578 116.692 21.584 115.609 20.6559C115.123 20.1903 114.743 19.6257 114.496 19.0006C114.249 18.3756 114.141 17.7048 114.178 17.0342C114.14 16.3293 114.269 15.6254 114.553 14.9788C114.837 14.3321 115.27 13.7606 115.815 13.3098C116.901 12.4285 118.423 11.9879 120.369 11.9879H124.226V10.6358C124.241 10.2965 124.18 9.95799 124.048 9.64482C123.916 9.33166 123.716 9.05161 123.462 8.82491C122.862 8.34512 122.107 8.10034 121.339 8.13679C120.614 8.10699 119.896 8.2941 119.278 8.67401C119.029 8.82704 118.819 9.03524 118.664 9.28235C118.51 9.52946 118.415 9.80879 118.386 10.0986H114.912C114.931 9.38319 115.114 8.6816 115.446 8.04684C115.778 7.41208 116.25 6.86076 116.828 6.43457C118.169 5.46673 119.8 4.9795 121.454 5.05228C123.153 4.95789 124.827 5.48616 126.16 6.53719C126.735 7.0436 127.188 7.67212 127.486 8.37631C127.784 9.0805 127.919 9.84236 127.882 10.6056V21.6821H124.347V18.9175H124.286C124.189 19.378 123.999 19.8143 123.728 20.2001C123.457 20.5859 123.111 20.9134 122.71 21.1629C121.75 21.74 120.641 22.0234 119.52 21.9778ZM120.733 19.2193C121.641 19.2583 122.534 18.9784 123.255 18.4285C123.573 18.1813 123.828 17.8626 123.999 17.4986C124.17 17.1345 124.251 16.7355 124.238 16.334V14.3782H120.466C119.77 14.3306 119.081 14.5461 118.538 14.9819C118.078 15.4637 117.828 16.1068 117.841 16.7714C117.855 17.436 118.131 18.0684 118.611 18.5312C119.212 19.007 119.965 19.2513 120.733 19.2193Z" fill="white"/>
<path d="M131.041 21.6822V5.34814H134.679V11.6439H140.403V5.34814H144.042V21.6822H140.403V15.0001H134.679V21.6822H131.041Z" fill="white"/>
<path d="M150.408 21.6821V0H163.178V3.35614H153.974V8.70423H157.115C158.398 8.67326 159.671 8.94853 160.826 9.50704C161.834 10.0132 162.676 10.7967 163.251 11.7646C163.856 12.7984 164.16 13.9791 164.13 15.1751C164.158 16.3784 163.854 17.5664 163.251 18.6097C162.677 19.581 161.835 20.3685 160.826 20.8793C159.678 21.439 158.411 21.7144 157.133 21.6821H150.408ZM153.974 18.501H157.115C157.558 18.5347 158.002 18.4724 158.419 18.3185C158.835 18.1647 159.213 17.9228 159.527 17.6096C159.84 17.2964 160.082 16.9192 160.235 16.5042C160.388 16.0891 160.449 15.646 160.413 15.2052C160.435 14.7638 160.367 14.3226 160.214 13.9078C160.061 13.4931 159.826 13.1132 159.522 12.7907C159.2 12.4848 158.819 12.2477 158.402 12.0941C157.985 11.9404 157.541 11.8735 157.097 11.8974H153.943L153.974 18.501Z" fill="white"/>
<path d="M169.242 27.0242L171.522 20.8129L165.331 5.34814H169.302L172.462 13.6902C172.659 14.2309 172.823 14.7833 172.953 15.3441C173.11 15.984 173.226 16.5151 173.304 16.9316C173.402 16.5151 173.535 15.984 173.699 15.3441C173.862 14.7043 174.026 14.1369 174.184 13.6902L177.216 5.34814H181.011L173.098 27.0242H169.242Z" fill="white"/>
<path d="M181.369 25.8411V18.5312H182.455C182.91 17.9746 183.262 17.3407 183.491 16.66C183.878 15.5834 184.071 14.4473 184.061 13.3039L184.231 5.34814H195.479V18.5312H197.377V25.8411H194.042V21.6822H184.753V25.8411H181.369ZM186.159 18.5312H192.005V8.58356H187.621L187.506 13.3039C187.515 14.4406 187.352 15.5722 187.02 16.66C186.847 17.3254 186.564 17.9577 186.184 18.5312H186.159Z" fill="white"/>
<path d="M201.779 27.0242L204.059 20.8129L197.868 5.34814H201.84L205.017 13.6902C205.217 14.2307 205.383 14.7831 205.514 15.3441C205.672 15.984 205.787 16.5151 205.866 16.9316C205.963 16.5151 206.096 15.984 206.26 15.3441C206.424 14.7043 206.588 14.1369 206.739 13.6902L209.771 5.34814H213.506L205.624 27.0242H201.779Z" fill="white"/>
<path d="M231.582 25.8411V21.6822H215.325V5.34814H219V18.8331H222.602V5.34814H225.828V18.8331H229.357V5.34814H233.031V18.8331H235.184V25.8411H231.582Z" fill="white"/>
<path d="M243.364 21.9779C242.127 22.0083 240.902 21.7325 239.798 21.1751C238.815 20.6706 237.999 19.8926 237.452 18.9356C236.877 17.9048 236.588 16.7402 236.615 15.5614V11.4628C236.587 10.2859 236.876 9.12301 237.452 8.09459C237.999 7.13762 238.815 6.35963 239.798 5.85516C240.902 5.29775 242.127 5.02189 243.364 5.05234C244.585 5.02177 245.795 5.29786 246.881 5.85516C247.86 6.36338 248.672 7.1406 249.221 8.09459C249.793 9.12424 250.08 10.2866 250.052 11.4628V14.4085H240.15V15.5614C240.15 17.8793 241.235 19.0383 243.394 19.0383C245.068 19.0383 246.05 18.4749 246.341 17.3481H249.937C249.812 18.0275 249.553 18.6753 249.174 19.2536C248.795 19.832 248.304 20.3293 247.729 20.7163C246.444 21.5837 244.916 22.0252 243.364 21.9779ZM240.15 11.4628V12.0664H246.517V11.4628C246.58 10.5291 246.3 9.60424 245.729 8.86119C245.427 8.5447 245.058 8.29919 244.649 8.14256C244.24 7.98593 243.801 7.92211 243.364 7.95576C242.916 7.92126 242.466 7.98622 242.047 8.14594C241.627 8.30565 241.249 8.55615 240.938 8.8793C240.369 9.61679 240.089 10.535 240.15 11.4628Z" fill="white"/>
<path d="M259.632 21.9779C258.396 22.0083 257.17 21.7325 256.067 21.1751C255.083 20.6706 254.268 19.8926 253.72 18.9356C253.146 17.9048 252.857 16.7401 252.884 15.5614V11.4628C252.856 10.2859 253.145 9.12299 253.72 8.09458C254.268 7.1376 255.083 6.35961 256.067 5.85514C257.17 5.29774 258.396 5.02187 259.632 5.05232C260.854 5.02304 262.063 5.29907 263.149 5.85514C264.129 6.36336 264.941 7.14058 265.49 8.09458C266.062 9.12422 266.348 10.2866 266.321 11.4628V14.4085H256.419V15.5614C256.419 17.8793 257.5 19.0382 259.663 19.0382C261.336 19.0382 262.319 18.4749 262.61 17.3481H266.205C266.08 18.027 265.82 18.6743 265.441 19.2525C265.062 19.8307 264.572 20.3282 263.998 20.7163C262.712 21.5829 261.185 22.0244 259.632 21.9779ZM256.419 11.4628V12.0664H262.786V11.4628C262.849 10.529 262.569 9.60422 261.997 8.86117C261.695 8.54571 261.326 8.30091 260.917 8.14435C260.508 7.98779 260.069 7.92338 259.632 7.95574C259.185 7.92124 258.735 7.9862 258.315 8.14592C257.896 8.30564 257.517 8.55613 257.207 8.87929C256.638 9.61677 256.358 10.5349 256.419 11.4628Z" fill="white"/>
</svg>
