<svg width="381" height="150" viewBox="0 0 381 150" fill="none" xmlns="http://www.w3.org/2000/svg">
<g clip-path="url(#clip0_38_1915)">
<path d="M52.6565 76.5273L52.9355 117.266C52.8485 119.567 53.5905 121.823 55.0274 123.628C56.3978 125.27 58.3887 126.075 61.0001 126.042L73.5396 125.958L73.7034 149.867L58.4958 149.97C48.5353 150.042 40.6869 147.262 34.9507 141.628C29.2145 135.994 26.3141 128.221 26.2494 118.31L25.9644 76.6902L0.163718 76.8653L0 52.9679L25.8007 52.7928L25.7219 41.7949L52.4019 41.6138L52.4807 52.6118" fill="#E00040"/>
<path d="M67.3851 0.162978L40.4262 0.350101L40.5899 24.507L67.5488 24.326L67.7368 51.163L92.0034 51L91.8215 24.1569L91.6517 0L67.3851 0.162978Z" fill="#256C44"/>
<path d="M119.508 68.4751V50.1491H113.929V46.793H128.767V50.1491H123.189V68.4751H119.508Z" fill="#256C44"/>
<path d="M135.825 68.7705C134.399 68.8492 132.997 68.3755 131.914 67.4485C131.429 66.982 131.05 66.4172 130.804 65.7924C130.557 65.1676 130.447 64.4973 130.483 63.8268C130.446 63.1219 130.574 62.4181 130.858 61.7714C131.142 61.1248 131.575 60.5532 132.12 60.1025C133.212 59.2212 134.73 58.7805 136.674 58.7805H140.531V57.4284C140.545 57.0897 140.485 56.7519 140.354 56.439C140.223 56.126 140.025 55.8456 139.773 55.6176C139.171 55.1388 138.414 54.8943 137.644 54.9294C136.921 54.9009 136.205 55.0879 135.589 55.4667C135.338 55.6179 135.127 55.8256 134.972 56.0731C134.818 56.3206 134.723 56.6008 134.697 56.8912H131.217C131.236 56.1758 131.419 55.4742 131.751 54.8395C132.083 54.2047 132.556 53.6534 133.133 53.2272C134.474 52.2594 136.105 51.7721 137.76 51.8449C139.468 51.743 141.154 52.2717 142.495 53.3298C143.07 53.8362 143.523 54.4648 143.821 55.169C144.119 55.8731 144.255 56.635 144.217 57.3982V68.4747H140.676V65.7101H140.622C140.523 66.1711 140.332 66.6075 140.06 66.9933C139.788 67.3791 139.441 67.7064 139.039 67.9556C138.072 68.5373 136.954 68.8208 135.825 68.7705ZM137.038 66.0119C137.948 66.0498 138.842 65.7701 139.567 65.2212C139.883 64.9726 140.136 64.6536 140.305 64.2897C140.475 63.9259 140.556 63.5275 140.543 63.1266V61.1709H136.777C136.081 61.122 135.392 61.3377 134.849 61.7745C134.386 62.2549 134.134 62.8986 134.147 63.5641C134.161 64.2297 134.44 64.8626 134.922 65.3238C135.52 65.8002 136.272 66.0447 137.038 66.0119Z" fill="#256C44"/>
<path d="M152.045 68.4746V55.4666H146.552V52.1406H161.214V55.4666H155.72V68.4746H152.045Z" fill="#256C44"/>
<path d="M168.369 68.7704C166.942 68.8504 165.54 68.3765 164.458 67.4484C163.971 66.9828 163.592 66.4182 163.345 65.7932C163.098 65.1681 162.989 64.4973 163.027 63.8267C162.988 63.1223 163.115 62.4185 163.398 61.7718C163.681 61.1251 164.113 60.5534 164.658 60.1023C165.749 59.2211 167.269 58.7804 169.218 58.7804H173.074V57.4283C173.089 57.089 173.029 56.7505 172.897 56.4373C172.764 56.1242 172.564 55.8441 172.31 55.6174C171.709 55.1362 170.952 54.8914 170.182 54.9293C169.456 54.8995 168.738 55.0866 168.12 55.4665C167.871 55.6196 167.661 55.8278 167.507 56.0749C167.352 56.322 167.257 56.6013 167.229 56.8911H163.754C163.774 56.1757 163.956 55.4741 164.288 54.8394C164.62 54.2046 165.093 53.6533 165.67 53.2271C167.011 52.2584 168.642 51.7711 170.297 51.8448C171.993 51.7502 173.665 52.2786 174.996 53.3297C175.573 53.835 176.028 54.4632 176.327 55.1675C176.626 55.8719 176.762 56.6343 176.724 57.3981V68.4746H173.189V65.71H173.129C173.031 66.1706 172.841 66.6068 172.57 66.9926C172.299 67.3784 171.953 67.7059 171.552 67.9555C170.594 68.5314 169.487 68.8147 168.369 68.7704ZM169.581 66.0118C170.489 66.0509 171.382 65.771 172.104 65.2211C172.422 64.9738 172.677 64.6551 172.847 64.2911C173.018 63.9271 173.1 63.528 173.086 63.1265V61.1708H169.315C168.618 61.1219 167.929 61.3376 167.386 61.7744C166.926 62.2562 166.676 62.8993 166.69 63.5639C166.703 64.2285 166.98 64.8609 167.459 65.3237C168.057 65.7977 168.806 66.042 169.569 66.0118H169.581Z" fill="#256C44"/>
<path d="M179.908 73.8169V52.1408H183.467V55.0805H183.528C183.761 54.1245 184.31 53.2742 185.086 52.666C185.895 52.0822 186.877 51.7847 187.875 51.8209C188.598 51.7951 189.318 51.934 189.979 52.2269C190.64 52.5198 191.225 52.959 191.689 53.511C192.707 54.8025 193.22 56.4173 193.133 58.0563V62.4809C193.223 64.1295 192.71 65.7548 191.689 67.0563C191.225 67.6084 190.64 68.0476 189.979 68.3405C189.318 68.6334 188.598 68.7722 187.875 68.7465C186.884 68.7749 185.91 68.478 185.104 67.9014C184.32 67.297 183.764 66.4459 183.528 65.4869H183.467L183.558 69.1992V73.7686L179.908 73.8169ZM186.535 65.5654C186.937 65.5891 187.339 65.5271 187.714 65.3834C188.09 65.2397 188.43 65.0178 188.712 64.7324C189.265 64.0669 189.541 63.2158 189.482 62.3541V58.2555C189.54 57.3958 189.264 56.5469 188.712 55.8833C188.117 55.3386 187.338 55.0364 186.529 55.0364C185.721 55.0364 184.942 55.3386 184.346 55.8833C183.787 56.5601 183.505 57.4227 183.558 58.2978V62.2213C183.506 63.0963 183.787 63.9586 184.346 64.6358C184.621 64.9409 184.959 65.1823 185.337 65.3429C185.715 65.5035 186.124 65.5795 186.535 65.5654Z" fill="#256C44"/>
<path d="M202.774 68.7705C201.535 68.7999 200.308 68.5307 199.196 67.9858C198.202 67.4891 197.374 66.7152 196.813 65.7584C196.231 64.7193 195.94 63.5435 195.97 62.354V58.2554C195.941 57.0679 196.232 55.8943 196.813 54.857C197.374 53.9002 198.202 53.1263 199.196 52.6296C200.308 52.0847 201.535 51.8155 202.774 51.8449C204.533 51.754 206.263 52.3202 207.625 53.4324C208.232 53.9766 208.717 54.6436 209.045 55.3889C209.373 56.1342 209.538 56.9406 209.529 57.7544H205.963C205.955 57.3768 205.866 57.0054 205.702 56.665C205.537 56.3246 205.302 56.023 205.011 55.7805C204.373 55.2928 203.583 55.0448 202.78 55.0803C202.36 55.0575 201.939 55.1177 201.543 55.2576C201.146 55.3974 200.781 55.6142 200.47 55.8952C200.175 56.2061 199.949 56.5739 199.804 56.9759C199.659 57.3778 199.598 57.8051 199.627 58.2312V62.354C199.583 62.7788 199.634 63.208 199.777 63.6108C199.919 64.0136 200.149 64.3801 200.45 64.6841C200.752 64.988 201.117 65.2219 201.519 65.3691C201.922 65.5162 202.352 65.5729 202.78 65.5351C203.589 65.5744 204.387 65.3262 205.029 64.8349C205.315 64.5894 205.546 64.2869 205.707 63.9468C205.868 63.6067 205.955 63.2368 205.963 62.861H209.529C209.538 63.6748 209.373 64.4812 209.045 65.2265C208.717 65.9717 208.232 66.6387 207.625 67.1829C206.263 68.2952 204.533 68.8613 202.774 68.7705Z" fill="#256C44"/>
<path d="M217.114 68.4746V55.4666H211.621V52.1406H226.282V55.4666H220.795V68.4746H217.114Z" fill="#256C44"/>
<path d="M233.45 68.7703C232.023 68.8503 230.621 68.3764 229.539 67.4484C229.052 66.9828 228.673 66.4182 228.426 65.7931C228.179 65.1681 228.07 64.4973 228.108 63.8266C228.07 63.1218 228.198 62.4179 228.483 61.7713C228.767 61.1246 229.199 60.5531 229.745 60.1023C230.83 59.221 232.352 58.7804 234.299 58.7804H238.155V57.4283C238.17 57.0889 238.11 56.7505 237.978 56.4373C237.845 56.1241 237.645 55.8441 237.391 55.6174C236.792 55.1376 236.037 54.8928 235.269 54.9293C234.543 54.8995 233.825 55.0866 233.207 55.4665C232.958 55.6195 232.748 55.8277 232.594 56.0748C232.439 56.3219 232.344 56.6013 232.316 56.891H228.841C228.861 56.1757 229.043 55.4741 229.375 54.8393C229.707 54.2046 230.18 53.6532 230.757 53.2271C232.098 52.2592 233.729 51.772 235.384 51.8448C237.082 51.7504 238.756 52.2786 240.089 53.3297C240.664 53.8361 241.117 54.4646 241.415 55.1688C241.713 55.873 241.849 56.6348 241.811 57.3981V68.4745H238.276V65.7099H238.216C238.118 66.1705 237.928 66.6067 237.657 66.9926C237.386 67.3784 237.04 67.7059 236.639 67.9554C235.679 68.5325 234.57 68.8159 233.45 68.7703ZM234.662 66.0118C235.57 66.0508 236.463 65.7709 237.185 65.221C237.503 64.9737 237.758 64.6551 237.928 64.291C238.099 63.927 238.181 63.528 238.167 63.1264V61.1707H234.396C233.699 61.1231 233.011 61.3386 232.467 61.7743C232.007 62.2562 231.757 62.8993 231.771 63.5639C231.784 64.2285 232.061 64.8609 232.54 65.3236C233.141 65.7995 233.895 66.0438 234.662 66.0118Z" fill="#256C44"/>
<path d="M244.971 68.4746V52.1406H248.609V58.4364H254.333V52.1406H257.971V68.4746H254.333V61.7925H248.609V68.4746H244.971Z" fill="#256C44"/>
<path d="M264.338 68.4751V46.793H277.108V50.1491H267.903V55.4972H271.044C272.328 55.4662 273.6 55.7415 274.755 56.3C275.764 56.8061 276.606 57.5896 277.181 58.5576C277.785 59.5914 278.09 60.7721 278.06 61.968C278.088 63.1714 277.784 64.3594 277.181 65.4026C276.606 66.374 275.764 67.1615 274.755 67.6722C273.607 68.232 272.34 68.5074 271.062 68.4751H264.338ZM267.903 65.294H271.044C271.487 65.3277 271.932 65.2654 272.348 65.1115C272.765 64.9576 273.143 64.7158 273.456 64.4025C273.77 64.0893 274.011 63.7122 274.164 63.2971C274.317 62.8821 274.378 62.4389 274.343 61.9982C274.364 61.5568 274.297 61.1156 274.143 60.7008C273.99 60.286 273.755 59.9061 273.451 59.5837C273.13 59.2778 272.749 59.0407 272.332 58.887C271.914 58.7334 271.47 58.6665 271.026 58.6904H267.873L267.903 65.294Z" fill="#E00040"/>
<path d="M283.171 73.8167L285.451 67.6054L279.26 52.1406H283.232L286.391 60.4827C286.589 61.0234 286.753 61.5758 286.882 62.1366C287.04 62.7764 287.155 63.3076 287.234 63.7241C287.331 63.3076 287.464 62.7764 287.628 62.1366C287.792 61.4968 287.955 60.9294 288.113 60.4827L291.145 52.1406H294.941L287.028 73.8167H283.171Z" fill="#E00040"/>
<path d="M295.299 72.6336V65.3237H296.384C296.84 64.7671 297.191 64.1332 297.421 63.4525C297.808 62.3758 298.001 61.2397 297.991 60.0964L298.161 52.1406H309.409V65.3237H311.307V72.6336H307.972V68.4746H298.682V72.6336H295.299ZM300.089 65.3237H305.934V55.376H301.55L301.435 60.0964C301.445 61.2331 301.281 62.3647 300.95 63.4525C300.776 64.1179 300.494 64.7502 300.113 65.3237H300.089Z" fill="#E00040"/>
<path d="M315.709 73.8167L317.989 67.6054L311.798 52.1406H315.769L318.947 60.4827C319.147 61.0232 319.313 61.5756 319.444 62.1366C319.602 62.7764 319.717 63.3076 319.796 63.7241C319.893 63.3076 320.026 62.7764 320.19 62.1366C320.353 61.4968 320.517 60.9294 320.669 60.4827L323.701 52.1406H327.436L319.553 73.8167H315.709Z" fill="#E00040"/>
<path d="M345.511 72.6336V68.4746H329.255V52.1406H332.929V65.6255H336.531V52.1406H339.757V65.6255H343.286V52.1406H346.961V65.6255H349.113V72.6336H345.511Z" fill="#E00040"/>
<path d="M357.293 68.7706C356.056 68.8011 354.831 68.5252 353.728 67.9678C352.744 67.4633 351.929 66.6853 351.381 65.7284C350.806 64.6975 350.517 63.5329 350.544 62.3541V58.2555C350.517 57.0786 350.806 55.9157 351.381 54.8873C351.929 53.9303 352.744 53.1523 353.728 52.6479C354.831 52.0905 356.056 51.8146 357.293 51.8451C358.515 51.8145 359.724 52.0906 360.81 52.6479C361.789 53.1561 362.602 53.9333 363.151 54.8873C363.722 55.917 364.009 57.0794 363.981 58.2555V61.2012H354.079V62.3541C354.079 64.672 355.165 65.831 357.323 65.831C358.997 65.831 359.979 65.2676 360.27 64.1408H363.866C363.742 64.8202 363.482 65.468 363.103 66.0464C362.724 66.6247 362.233 67.122 361.659 67.509C360.373 68.3764 358.845 68.8179 357.293 68.7706ZM354.079 58.2555V58.8591H360.446V58.2555C360.51 57.3218 360.23 56.397 359.658 55.6539C359.356 55.3374 358.987 55.0919 358.578 54.9353C358.169 54.7787 357.73 54.7148 357.293 54.7485C356.845 54.714 356.395 54.7789 355.976 54.9387C355.557 55.0984 355.178 55.3489 354.868 55.672C354.299 56.4095 354.019 57.3277 354.079 58.2555Z" fill="#E00040"/>
<path d="M373.562 68.7706C372.325 68.8011 371.1 68.5252 369.996 67.9678C369.013 67.4633 368.198 66.6853 367.65 65.7283C367.075 64.6975 366.786 63.5329 366.813 62.3541V58.2555C366.785 57.0786 367.074 55.9157 367.65 54.8873C368.198 53.9303 369.013 53.1523 369.996 52.6479C371.1 52.0905 372.325 51.8146 373.562 51.845C374.783 51.8158 375.992 52.0918 377.079 52.6479C378.058 53.1561 378.87 53.9333 379.419 54.8873C379.991 55.9169 380.278 57.0793 380.25 58.2555V61.2012H370.348V62.3541C370.348 64.672 371.43 65.831 373.592 65.831C375.266 65.831 376.248 65.2676 376.539 64.1408H380.135C380.009 64.8197 379.749 65.467 379.371 66.0452C378.992 66.6234 378.501 67.121 377.928 67.509C376.642 68.3757 375.114 68.8171 373.562 68.7706ZM370.348 58.2555V58.8591H376.715V58.2555C376.779 57.3218 376.498 56.3969 375.927 55.6539C375.624 55.3384 375.255 55.0936 374.846 54.9371C374.437 54.7805 373.999 54.7161 373.562 54.7485C373.114 54.714 372.664 54.7789 372.245 54.9386C371.825 55.0984 371.447 55.3489 371.136 55.672C370.568 56.4095 370.287 57.3277 370.348 58.2555Z" fill="#E00040"/>
<path d="M119.508 99.471V81.1511H113.929V77.7949H128.767V81.1511H123.189V99.471H119.508Z" fill="#256C44"/>
<path d="M135.825 99.7726C134.399 99.8513 132.997 99.3776 131.914 98.4507C131.429 97.9841 131.05 97.4194 130.804 96.7945C130.557 96.1697 130.447 95.4994 130.483 94.829C130.445 94.124 130.573 93.42 130.858 92.7733C131.142 92.1265 131.574 91.555 132.12 91.1046C133.212 90.2233 134.73 89.7827 136.674 89.7827H140.531V88.4125C140.55 88.0688 140.492 87.7251 140.361 87.4066C140.23 87.0881 140.029 86.8027 139.773 86.5714C139.164 86.1042 138.406 85.8726 137.638 85.9195C136.915 85.8909 136.199 86.078 135.583 86.4567C135.332 86.6072 135.12 86.8148 134.965 87.0624C134.81 87.31 134.716 87.5906 134.691 87.8813H131.217C131.236 87.165 131.419 86.4626 131.751 85.8268C132.083 85.1911 132.555 84.6387 133.133 84.2112C134.475 83.246 136.105 82.759 137.76 82.829C139.469 82.7305 141.156 83.2635 142.495 84.3259C143.069 84.8329 143.522 85.4615 143.82 86.1656C144.118 86.8696 144.254 87.6312 144.217 88.3943V99.4708H140.676V96.7123H140.622C140.522 97.172 140.33 97.6071 140.058 97.9918C139.787 98.3765 139.44 98.7029 139.039 98.9517C138.074 99.5382 136.955 99.8241 135.825 99.7726ZM137.038 97.008C137.947 97.0477 138.841 96.7701 139.567 96.2233C139.882 95.9741 140.135 95.6549 140.304 95.2913C140.474 94.9276 140.555 94.5295 140.543 94.1288V92.167H136.777C136.076 92.1288 135.387 92.3576 134.849 92.8068C134.386 93.2872 134.134 93.9309 134.147 94.5965C134.161 95.262 134.44 95.8949 134.922 96.3561C135.525 96.8201 136.277 97.0516 137.038 97.008Z" fill="#256C44"/>
<path d="M155.635 99.4707C154.977 99.5207 154.316 99.4282 153.697 99.1997C153.078 98.9712 152.517 98.612 152.051 98.1469C151.585 97.6817 151.225 97.1217 150.997 96.5052C150.769 95.8886 150.678 95.2303 150.73 94.5753V86.4989H146.376V83.1427H150.73V78.5371H154.41V83.1427H160.571V86.4989H154.41V94.4848C154.392 94.9102 154.532 95.3275 154.804 95.6558C154.939 95.8108 155.107 95.9333 155.296 96.0138C155.485 96.0944 155.69 96.1309 155.896 96.1206H160.28V99.4707H155.635Z" fill="#256C44"/>
<path d="M168.369 99.7728C166.942 99.8528 165.54 99.379 164.458 98.4509C163.971 97.9853 163.592 97.4207 163.345 96.7957C163.098 96.1706 162.989 95.4998 163.027 94.8292C162.987 94.1247 163.114 93.4208 163.398 92.774C163.681 92.1273 164.112 91.5556 164.658 91.1048C165.749 90.2235 167.269 89.7829 169.218 89.7829H173.074V88.4127C173.094 88.0684 173.036 87.724 172.903 87.4053C172.771 87.0865 172.568 86.8016 172.31 86.5716C171.704 86.1034 170.947 85.8715 170.182 85.9197C169.456 85.8899 168.738 86.077 168.12 86.4569C167.871 86.6093 167.66 86.8173 167.506 87.0645C167.351 87.3118 167.256 87.5915 167.229 87.8815H163.754C163.774 87.1653 163.956 86.4628 164.288 85.8271C164.62 85.1913 165.093 84.6389 165.67 84.2115C167.012 83.2453 168.642 82.7583 170.297 82.8292C171.993 82.7346 173.665 83.263 174.996 84.3141C175.573 84.8196 176.027 85.4479 176.326 86.1521C176.625 86.8564 176.761 87.6187 176.724 88.3825V99.459H173.189V96.7004H173.129C173.03 97.1599 172.84 97.595 172.569 97.9797C172.298 98.3644 171.952 98.691 171.552 98.9398C170.597 99.5248 169.489 99.8147 168.369 99.7728ZM169.581 97.0083C170.489 97.049 171.381 96.7713 172.104 96.2235C172.421 95.9756 172.675 95.6568 172.846 95.2929C173.017 94.9291 173.099 94.5303 173.086 94.129V92.1672H169.315C168.614 92.1291 167.924 92.3578 167.386 92.807C166.926 93.2889 166.676 93.932 166.69 94.5966C166.703 95.2612 166.98 95.8936 167.459 96.3563C168.062 96.8175 168.81 97.0487 169.569 97.0083H169.581Z" fill="#256C44"/>
<path d="M180.375 99.4708V83.173H183.934V86.2877H184.025C184.078 85.7973 184.23 85.3224 184.47 84.8911C184.711 84.4599 185.036 84.0809 185.426 83.7767C186.286 83.1464 187.336 82.8271 188.403 82.8712C189.146 82.8399 189.886 82.9713 190.573 83.256C191.259 83.5408 191.874 83.9719 192.375 84.5191C193.424 85.7794 193.957 87.3876 193.866 89.0221V90.3561H190.04V89.2877C190.092 88.4315 189.814 87.5878 189.264 86.9276C188.975 86.6348 188.626 86.4076 188.241 86.2618C187.856 86.1159 187.444 86.0547 187.033 86.0825C185.026 86.0825 184.001 87.2173 184.001 89.499V99.501L180.375 99.4708Z" fill="#256C44"/>
<path d="M202.07 99.7422C200.962 99.7561 199.861 99.551 198.832 99.1386C197.966 98.8041 197.211 98.2329 196.656 97.4907C196.133 96.7537 195.861 95.8695 195.879 94.9676H199.56C199.549 95.2282 199.607 95.4871 199.727 95.7189C199.847 95.9506 200.026 96.1473 200.245 96.2895C200.805 96.6194 201.45 96.7789 202.101 96.7483H203.356C204.074 96.8008 204.79 96.6231 205.399 96.2412C205.617 96.081 205.792 95.8702 205.91 95.6272C206.027 95.3842 206.083 95.1163 206.072 94.8469C206.072 93.7201 205.246 93.0279 203.592 92.7704L201.343 92.4686C197.971 91.9736 196.288 90.3418 196.292 87.5732C196.25 86.9083 196.366 86.2428 196.632 85.6312C196.897 85.0196 197.304 84.4792 197.82 84.0541C198.843 83.2493 200.328 82.8469 202.277 82.8469H203.386C204.935 82.7629 206.469 83.187 207.752 84.0541C208.273 84.421 208.696 84.9093 208.983 85.4765C209.271 86.0437 209.414 86.6724 209.401 87.3076H205.721C205.729 87.0854 205.677 86.8652 205.57 86.6699C205.463 86.4745 205.306 86.3112 205.114 86.197C204.582 85.8953 203.973 85.7547 203.362 85.7925H202.252C200.66 85.7925 199.851 86.378 199.827 87.5491C199.827 88.5551 200.538 89.1587 201.961 89.3599L204.241 89.7161C205.719 89.8364 207.128 90.3934 208.286 91.3157C208.737 91.7527 209.09 92.2811 209.319 92.8653C209.548 93.4495 209.648 94.0758 209.614 94.702C209.644 95.387 209.517 96.0698 209.24 96.6978C208.964 97.3258 208.546 97.8821 208.019 98.3237C206.958 99.199 205.399 99.6336 203.332 99.6336L202.07 99.7422Z" fill="#256C44"/>
<path d="M220.716 99.4707C220.058 99.5207 219.397 99.4282 218.778 99.1997C218.159 98.9712 217.598 98.612 217.131 98.1469C216.665 97.6817 216.306 97.1217 216.078 96.5052C215.85 95.8886 215.759 95.2303 215.81 94.5753V86.4989H211.457V83.1427H215.81V78.5371H219.503V83.1427H225.664V86.4989H219.503V94.4848C219.487 94.9098 219.627 95.3261 219.897 95.6558C220.033 95.811 220.202 95.9334 220.392 96.0139C220.583 96.0944 220.789 96.1309 220.995 96.1206H225.373V99.4707H220.716Z" fill="#256C44"/>
<path d="M233.45 99.7728C232.023 99.8528 230.621 99.3789 229.539 98.4509C229.052 97.9853 228.673 97.4207 228.426 96.7956C228.179 96.1706 228.07 95.4998 228.108 94.8291C228.069 94.1242 228.198 93.4202 228.482 92.7734C228.766 92.1267 229.199 91.5552 229.745 91.1048C230.83 90.2235 232.352 89.7829 234.299 89.7829H238.155V88.4126C238.175 88.0683 238.116 87.724 237.984 87.4052C237.852 87.0865 237.649 86.8015 237.391 86.5716C236.785 86.1033 236.028 85.8715 235.263 85.9197C234.537 85.8899 233.819 86.077 233.201 86.4569C232.952 86.6092 232.741 86.8173 232.587 87.0645C232.432 87.3117 232.337 87.5914 232.31 87.8814H228.835C228.855 87.1652 229.037 86.4628 229.369 85.827C229.701 85.1913 230.174 84.6389 230.751 84.2114C232.094 83.2462 233.723 82.7592 235.378 82.8291C237.076 82.7347 238.75 83.263 240.083 84.314C240.657 84.821 241.11 85.4496 241.408 86.1537C241.706 86.8577 241.842 87.6193 241.805 88.3825V99.4589H238.27V96.7004H238.21C238.111 97.1598 237.921 97.5949 237.65 97.9796C237.379 98.3644 237.033 98.6909 236.633 98.9398C235.678 99.5247 234.57 99.8146 233.45 99.7728ZM234.662 97.0082C235.57 97.049 236.462 96.7713 237.185 96.2235C237.502 95.9756 237.756 95.6568 237.927 95.2929C238.098 94.929 238.18 94.5303 238.167 94.1289V92.1672H234.396C233.695 92.1296 233.005 92.3583 232.467 92.807C232.007 93.2889 231.757 93.932 231.771 94.5965C231.784 95.2611 232.061 95.8935 232.54 96.3563C233.146 96.8192 233.899 97.0505 234.662 97.0082Z" fill="#256C44"/>
<path d="M244.971 99.4709V83.1731H248.53V86.2878H248.591C248.715 85.3094 249.204 84.4133 249.961 83.7768C250.787 83.1445 251.812 82.8237 252.853 82.8713C253.564 82.8429 254.272 82.9722 254.927 83.2499C255.581 83.5276 256.165 83.9467 256.637 84.477C257.632 85.6858 258.137 87.2204 258.056 88.7808V99.5011H254.418V89.1369C254.474 88.3049 254.198 87.4844 253.648 86.8552C253.375 86.5828 253.048 86.3705 252.687 86.2322C252.327 86.0939 251.941 86.0326 251.556 86.0524C251.159 86.0307 250.763 86.0932 250.393 86.2358C250.023 86.3783 249.687 86.5977 249.409 86.8794C248.857 87.5454 248.582 88.3962 248.639 89.2576V99.4709H244.971Z" fill="#256C44"/>
<path d="M264.556 99.471V77.7949H277.817V81.2416H268.152V87.0303H277.059V90.477H268.206V99.471H264.556Z" fill="#E00040"/>
<path d="M287.252 99.7728C286.367 99.8263 285.481 99.6997 284.647 99.4008C283.813 99.102 283.049 98.637 282.401 98.0344C281.801 97.4046 281.336 96.6596 281.035 95.8449C280.733 95.0302 280.602 94.1629 280.649 93.296V83.1431H284.287V93.2658C284.231 94.1363 284.501 94.9965 285.045 95.6803C285.63 96.2238 286.4 96.5262 287.201 96.5262C288.001 96.5262 288.771 96.2238 289.356 95.6803C289.91 95.0011 290.185 94.1385 290.126 93.2658V83.1431H293.765V93.296C293.81 94.1648 293.676 95.0338 293.371 95.8489C293.065 96.664 292.594 97.4079 291.988 98.0344C291.353 98.6214 290.608 99.0772 289.795 99.3756C288.982 99.674 288.118 99.809 287.252 99.7728Z" fill="#E00040"/>
<path d="M305.267 99.4707C304.609 99.5207 303.948 99.4282 303.329 99.1997C302.711 98.9712 302.149 98.612 301.683 98.1469C301.217 97.6817 300.857 97.1217 300.629 96.5052C300.401 95.8886 300.31 95.2303 300.362 94.5753V86.4989H296.014V83.1427H300.362V78.5371H304.042V83.1427H310.203V86.4989H304.042V94.4848C304.027 94.9098 304.167 95.3261 304.437 95.6558C304.572 95.8106 304.742 95.9328 304.932 96.0133C305.122 96.0938 305.328 96.1305 305.534 96.1206H309.912V99.4707H305.267Z" fill="#E00040"/>
<path d="M319.784 99.7728C318.899 99.8256 318.013 99.6987 317.179 99.3998C316.345 99.101 315.581 98.6364 314.933 98.0344C314.334 97.4038 313.869 96.6587 313.568 95.8442C313.267 95.0297 313.135 94.1628 313.18 93.296V83.1431H316.818V93.2658C316.759 94.1366 317.03 94.9979 317.576 95.6803C318.16 96.2234 318.93 96.5256 319.729 96.5256C320.528 96.5256 321.298 96.2234 321.882 95.6803C322.437 95.0017 322.714 94.1393 322.658 93.2658V83.1431H326.296V93.296C326.342 94.1654 326.207 95.0349 325.901 95.8502C325.594 96.6655 325.122 97.409 324.513 98.0344C323.879 98.6209 323.135 99.0765 322.323 99.3749C321.511 99.6733 320.648 99.8085 319.784 99.7728Z" fill="#E00040"/>
<path d="M330.007 99.4708V83.173H333.572V86.2877H333.657C333.713 85.798 333.865 85.324 334.106 84.8931C334.346 84.4622 334.67 84.0828 335.058 83.7766C335.92 83.1464 336.972 82.8271 338.041 82.8712C338.779 82.8428 339.514 82.9744 340.196 83.2568C340.877 83.5393 341.489 83.9659 341.989 84.507C343.034 85.7693 343.564 87.3767 343.474 89.0101V90.3441H339.648V89.2756C339.702 88.4201 339.426 87.5763 338.878 86.9155C338.588 86.6222 338.238 86.3949 337.852 86.249C337.466 86.1031 337.053 86.0422 336.64 86.0704C334.633 86.0704 333.609 87.2052 333.609 89.4869V99.4889L330.007 99.4708Z" fill="#E00040"/>
<path d="M352.351 99.7728C351.115 99.8003 349.89 99.5246 348.786 98.97C347.803 98.4601 346.986 97.681 346.433 96.7245C345.861 95.6949 345.575 94.5325 345.602 93.3563V89.2577C345.575 88.0815 345.861 86.9191 346.433 85.8895C346.986 84.9331 347.803 84.154 348.786 83.644C349.89 83.0895 351.115 82.8138 352.351 82.8412C353.572 82.815 354.781 83.0909 355.868 83.644C356.845 84.1565 357.655 84.9354 358.203 85.8895C358.778 86.9179 359.067 88.0808 359.039 89.2577V92.1974H349.137V93.3563C349.137 95.6742 350.217 96.8332 352.375 96.8332C354.053 96.8332 355.037 96.2678 355.328 95.137H358.918C358.794 95.8164 358.535 96.4644 358.157 97.0436C357.779 97.6228 357.29 98.1217 356.717 98.5112C355.43 99.3767 353.903 99.818 352.351 99.7728ZM349.137 89.2577V89.8613L355.504 89.8312V89.2275C355.565 88.296 355.285 87.3739 354.716 86.632C354.414 86.3165 354.045 86.0717 353.636 85.9151C353.227 85.7586 352.788 85.6942 352.351 85.7265C351.904 85.6913 351.454 85.7553 351.035 85.9139C350.615 86.0726 350.237 86.322 349.926 86.644C349.353 87.3913 349.073 88.3202 349.137 89.2577Z" fill="#E00040"/>
<path d="M119.508 130.473V112.153H113.929V108.797H128.767V112.153H123.189V130.473H119.508Z" fill="#256C44"/>
<path d="M135.825 130.768C134.399 130.847 132.997 130.374 131.914 129.447C131.429 128.98 131.05 128.416 130.803 127.791C130.556 127.166 130.447 126.495 130.483 125.825C130.445 125.119 130.573 124.414 130.858 123.766C131.142 123.119 131.574 122.546 132.12 122.094C133.212 121.213 134.73 120.773 136.674 120.773H140.531V119.408C140.545 119.07 140.485 118.732 140.354 118.419C140.223 118.106 140.025 117.826 139.773 117.597C139.164 117.13 138.406 116.899 137.638 116.946C136.915 116.915 136.2 117.1 135.583 117.477C135.332 117.628 135.121 117.836 134.966 118.083C134.812 118.331 134.717 118.611 134.691 118.901H131.217C131.236 118.186 131.419 117.484 131.751 116.85C132.083 116.215 132.556 115.663 133.133 115.237C134.474 114.269 136.105 113.782 137.76 113.855C139.458 113.761 141.132 114.289 142.465 115.34C143.039 115.847 143.492 116.476 143.79 117.18C144.088 117.884 144.224 118.645 144.187 119.408V130.485H140.676V127.726H140.622C140.522 128.186 140.33 128.621 140.058 129.006C139.787 129.39 139.44 129.717 139.039 129.966C138.071 130.543 136.953 130.822 135.825 130.768ZM137.038 128.01C137.948 128.048 138.842 127.768 139.567 127.219C139.883 126.971 140.136 126.652 140.305 126.288C140.475 125.924 140.556 125.525 140.543 125.125V123.169H136.777C136.076 123.128 135.385 123.357 134.849 123.809C134.619 124.046 134.439 124.326 134.318 124.632C134.197 124.939 134.139 125.266 134.145 125.595C134.152 125.925 134.224 126.249 134.357 126.551C134.491 126.852 134.682 127.125 134.922 127.352C135.523 127.821 136.276 128.055 137.038 128.01Z" fill="#256C44"/>
<path d="M152.045 130.473V117.465H146.552V114.139H161.214V117.465H155.72V130.473H152.045Z" fill="#256C44"/>
<path d="M168.369 130.769C166.942 130.849 165.54 130.375 164.458 129.447C163.971 128.981 163.591 128.417 163.344 127.792C163.097 127.166 162.989 126.496 163.027 125.825C162.987 125.12 163.114 124.415 163.398 123.767C163.681 123.119 164.112 122.546 164.658 122.094C165.749 121.213 167.269 120.773 169.218 120.773H173.074V119.408C173.089 119.069 173.029 118.731 172.897 118.417C172.764 118.104 172.564 117.824 172.31 117.598C171.704 117.129 170.947 116.897 170.182 116.946C169.457 116.914 168.739 117.099 168.12 117.477C167.871 117.63 167.661 117.838 167.507 118.085C167.352 118.332 167.257 118.612 167.229 118.901H163.754C163.774 118.186 163.956 117.484 164.288 116.85C164.62 116.215 165.093 115.664 165.67 115.237C167.011 114.269 168.642 113.781 170.297 113.855C171.993 113.76 173.665 114.289 174.996 115.34C175.573 115.846 176.027 116.474 176.326 117.178C176.625 117.882 176.762 118.645 176.724 119.408V130.485H173.189V127.726H173.129C173.03 128.186 172.84 128.621 172.569 129.006C172.298 129.39 171.952 129.717 171.552 129.966C170.593 130.537 169.486 130.817 168.369 130.769ZM169.581 128.01C170.489 128.049 171.382 127.769 172.104 127.219C172.422 126.972 172.677 126.653 172.847 126.289C173.018 125.925 173.1 125.526 173.086 125.125V123.169H169.315C168.613 123.128 167.923 123.357 167.386 123.809C166.927 124.29 166.677 124.932 166.69 125.595C166.704 126.259 166.98 126.89 167.459 127.352C168.06 127.818 168.809 128.051 169.569 128.01H169.581Z" fill="#256C44"/>
<path d="M179.908 135.815V114.139H183.467V117.102H183.528C183.762 116.147 184.311 115.297 185.086 114.688C185.896 114.107 186.877 113.809 187.875 113.843C188.598 113.817 189.318 113.956 189.979 114.249C190.64 114.542 191.225 114.981 191.689 115.533C192.707 116.824 193.22 118.439 193.133 120.078V124.503C193.223 126.151 192.71 127.777 191.689 129.078C191.225 129.63 190.64 130.07 189.979 130.362C189.318 130.655 188.598 130.794 187.875 130.768C186.883 130.8 185.909 130.503 185.104 129.923C184.317 129.321 183.761 128.469 183.528 127.509H183.467L183.558 131.221V135.815H179.908ZM186.535 127.557C186.937 127.581 187.339 127.519 187.714 127.375C188.09 127.232 188.43 127.01 188.712 126.724C189.264 126.061 189.54 125.212 189.482 124.352V120.253C189.541 119.392 189.265 118.541 188.712 117.875C188.113 117.335 187.332 117.038 186.523 117.043C185.715 117.049 184.938 117.356 184.346 117.905C183.787 118.582 183.506 119.445 183.558 120.32V124.243C183.505 125.118 183.787 125.981 184.346 126.658C184.623 126.958 184.962 127.195 185.34 127.352C185.718 127.508 186.126 127.58 186.535 127.563V127.557Z" fill="#256C44"/>
<path d="M202.774 130.769C201.535 130.798 200.308 130.529 199.196 129.984C198.202 129.487 197.374 128.713 196.813 127.756C196.232 126.719 195.941 125.546 195.97 124.358V120.259C195.94 119.07 196.231 117.894 196.813 116.855C197.374 115.898 198.202 115.124 199.196 114.628C200.308 114.083 201.535 113.814 202.774 113.843C204.533 113.752 206.263 114.318 207.625 115.43C208.232 115.975 208.717 116.642 209.045 117.387C209.373 118.132 209.538 118.939 209.529 119.752H205.963C205.955 119.375 205.866 119.003 205.702 118.663C205.537 118.323 205.302 118.021 205.011 117.779C204.373 117.291 203.583 117.043 202.78 117.078C202.359 117.055 201.938 117.116 201.541 117.257C201.145 117.397 200.78 117.616 200.47 117.899C200.175 118.209 199.948 118.575 199.803 118.976C199.658 119.377 199.598 119.804 199.627 120.229V124.346C199.584 124.77 199.636 125.199 199.779 125.601C199.921 126.003 200.152 126.369 200.453 126.672C200.754 126.975 201.119 127.209 201.521 127.355C201.923 127.502 202.353 127.559 202.78 127.521C203.589 127.56 204.387 127.312 205.029 126.821C205.315 126.575 205.546 126.273 205.707 125.933C205.868 125.593 205.955 125.223 205.963 124.847H209.529C209.539 125.662 209.374 126.47 209.045 127.217C208.715 127.963 208.229 128.631 207.619 129.175C206.261 130.291 204.532 130.859 202.774 130.769Z" fill="#256C44"/>
<path d="M217.114 130.473V117.465H211.621V114.139H226.282V117.465H220.795V130.473H217.114Z" fill="#256C44"/>
<path d="M233.45 130.769C232.023 130.849 230.621 130.375 229.539 129.447C229.052 128.981 228.672 128.417 228.425 127.792C228.178 127.167 228.07 126.496 228.108 125.825C228.069 125.119 228.198 124.414 228.482 123.767C228.766 123.119 229.199 122.546 229.745 122.095C230.83 121.213 232.352 120.773 234.299 120.773H238.155V119.408C238.17 119.069 238.11 118.731 237.978 118.418C237.845 118.104 237.645 117.824 237.391 117.598C236.785 117.129 236.028 116.898 235.263 116.946C234.538 116.914 233.82 117.099 233.201 117.477C232.948 117.63 232.735 117.839 232.578 118.089C232.422 118.338 232.325 118.621 232.298 118.913H228.823C228.843 118.198 229.025 117.497 229.357 116.862C229.689 116.227 230.162 115.676 230.739 115.25C232.08 114.282 233.711 113.794 235.366 113.867C237.064 113.773 238.738 114.301 240.071 115.352C240.645 115.859 241.098 116.488 241.396 117.192C241.694 117.896 241.83 118.657 241.793 119.421V130.497H238.258V127.738H238.197C238.099 128.198 237.909 128.633 237.638 129.018C237.367 129.402 237.021 129.729 236.621 129.978C235.664 130.543 234.561 130.818 233.45 130.769ZM234.662 128.01C235.57 128.049 236.463 127.769 237.185 127.219C237.503 126.972 237.758 126.653 237.928 126.289C238.099 125.925 238.181 125.526 238.167 125.125V123.169H234.396C233.694 123.129 233.004 123.358 232.467 123.809C232.008 124.29 231.757 124.932 231.771 125.595C231.785 126.259 232.061 126.89 232.54 127.352C233.144 127.82 233.898 128.053 234.662 128.01Z" fill="#256C44"/>
<path d="M244.971 130.473V114.139H248.609V120.434H254.333V114.139H257.971V130.473H254.333V123.791H248.609V130.473H244.971Z" fill="#256C44"/>
<path d="M264.556 130.473V108.797H268.194V117.646H270.705L274.767 108.797H278.709L273.918 119.131L278.945 130.473H274.882L270.68 120.881H268.194V130.473H264.556Z" fill="#E00040"/>
<path d="M280.855 130.473V114.139H284.154V122.185C284.154 122.724 284.129 123.34 284.081 124.032C284.032 124.72 283.972 125.402 283.893 126.078C283.814 126.754 283.735 127.334 283.656 127.829L289.38 114.139H293.88V130.473H290.581V122.426C290.581 121.889 290.581 121.298 290.654 120.646C290.727 119.994 290.757 119.348 290.83 118.714C290.902 118.08 290.957 117.543 291.018 117.108L285.354 130.473H280.855Z" fill="#E00040"/>
<path d="M295.547 130.678V127.298H296.275C296.577 127.311 296.877 127.241 297.142 127.096C297.407 126.951 297.627 126.737 297.779 126.477C298.18 125.672 298.366 124.778 298.318 123.881L298.494 114.139H310.148V130.473H306.51V117.525H302.096L301.969 124.086C301.932 126.247 301.441 127.883 300.495 129.006C300.002 129.568 299.386 130.011 298.694 130.301C298.003 130.591 297.254 130.72 296.505 130.678H295.547Z" fill="#E00040"/>
<path d="M319.874 113.843C321.109 113.813 322.332 114.089 323.434 114.646C324.418 115.152 325.235 115.929 325.787 116.885C326.359 117.917 326.646 119.081 326.617 120.259V124.346C326.647 125.522 326.36 126.685 325.787 127.714C325.235 128.67 324.418 129.447 323.434 129.954C322.332 130.51 321.109 130.786 319.874 130.756C318.651 130.786 317.44 130.51 316.351 129.954C315.374 129.445 314.563 128.668 314.017 127.714C313.444 126.685 313.157 125.522 313.186 124.346V121.406H323.082V120.247C323.082 117.929 322.003 116.77 319.844 116.77C318.171 116.77 317.188 117.338 316.891 118.461H313.301C313.427 117.782 313.686 117.134 314.065 116.556C314.444 115.978 314.935 115.48 315.509 115.092C316.796 114.229 318.323 113.792 319.874 113.843ZM323.082 124.346V123.742L316.715 123.772V124.376C316.655 125.309 316.934 126.233 317.504 126.978C317.807 127.294 318.177 127.539 318.587 127.695C318.997 127.852 319.437 127.916 319.874 127.883C320.322 127.918 320.771 127.854 321.191 127.696C321.61 127.537 321.989 127.288 322.3 126.966C322.872 126.216 323.15 125.285 323.082 124.346Z" fill="#E00040"/>
<path d="M338.854 130.473V125.01C338.427 125.111 337.993 125.175 337.556 125.203C336.978 125.251 336.359 125.275 335.701 125.275C333.497 125.275 331.866 124.815 330.807 123.893C329.748 122.972 329.219 121.541 329.219 119.601V114.169H332.857V119.457C332.826 119.812 332.88 120.17 333.015 120.5C333.15 120.831 333.362 121.125 333.633 121.358C334.37 121.816 335.235 122.027 336.101 121.962C336.707 121.962 337.235 121.962 337.75 121.901C338.118 121.886 338.483 121.838 338.841 121.756V114.139H342.522V130.473H338.854Z" fill="#E00040"/>
<path d="M352.406 113.843C353.643 113.813 354.868 114.088 355.971 114.646C356.955 115.152 357.772 115.929 358.324 116.885C358.895 117.918 359.181 119.082 359.155 120.26V124.346C359.182 125.522 358.896 126.685 358.324 127.714C357.772 128.67 356.955 129.448 355.971 129.954C354.868 130.511 353.643 130.787 352.406 130.757C351.185 130.786 349.975 130.51 348.889 129.954C347.91 129.445 347.097 128.668 346.548 127.714C345.977 126.685 345.69 125.522 345.718 124.346V121.406H355.62V120.247C355.62 117.93 354.538 116.771 352.376 116.771C350.702 116.771 349.72 117.338 349.429 118.461H345.839C345.963 117.782 346.221 117.135 346.599 116.556C346.977 115.978 347.467 115.48 348.04 115.093C349.328 114.231 350.855 113.794 352.406 113.843ZM355.62 124.358V123.755L349.265 123.742V124.346C349.201 125.28 349.482 126.205 350.053 126.948C350.356 127.263 350.725 127.508 351.134 127.664C351.542 127.821 351.981 127.885 352.418 127.853C352.865 127.888 353.315 127.824 353.734 127.666C354.154 127.507 354.533 127.258 354.843 126.936C355.406 126.193 355.681 125.274 355.62 124.346V124.358Z" fill="#E00040"/>
<path d="M362.277 130.473V114.139H365.916V120.555H368.456L372.373 114.139H376.46L371.609 122.04L376.551 130.491H372.373L368.456 123.718H365.916V130.491L362.277 130.473Z" fill="#E00040"/>
</g>
<defs>
<clipPath id="clip0_38_1915">
<rect width="380.25" height="150" fill="white"/>
</clipPath>
</defs>
</svg>
