<svg width="156" height="156" viewBox="0 0 156 156" fill="none" xmlns="http://www.w3.org/2000/svg">
<path d="M115.836 2.90782e-05L0 40.1638L40.1638 156L156 115.836L115.836 2.90782e-05Z" fill="white"/>
<path d="M120.513 75.0881C115.012 66.7397 107.203 69.677 99.2914 72.0523C102.16 61.8594 100.863 52.9732 95.277 44.9758L58.9261 120.449L62.1473 122.023C71.4708 123.389 80.4495 122.047 87.7309 116.073C92.2372 112.127 96.2505 107.647 99.6836 102.73C107.485 92.253 112.379 90.671 124.728 95.8173C125.495 92.2624 125.516 88.5836 124.791 85.0148C124.065 81.446 122.608 78.0655 120.513 75.0881Z" fill="#266D45"/>
<path d="M56.9141 43.1361C66.5424 42.4047 69.0575 50.3599 72.0969 58.0419C78.0088 49.5889 85.4689 45.2184 94.8648 44.7734L60.243 119.301L57.1059 117.713C50.4198 111.181 45.9966 103.27 46.042 93.9008C46.27 87.9474 47.1974 82.059 48.804 76.3634C51.9351 63.8434 50.1519 59.019 38.7906 52.3929C40.996 49.6312 43.7458 47.3824 46.8656 45.7889C49.9854 44.1954 53.4072 43.292 56.9141 43.1361Z" fill="#DE0541"/>
</svg>
