<svg width="217" height="49" viewBox="0 0 217 49" fill="none" xmlns="http://www.w3.org/2000/svg">
<g clip-path="url(#clip0_6_1659)">
<path d="M13.2662 6.75024H0V33.5657H13.2662V6.75024Z" fill="#A8170A"/>
<path fill-rule="evenodd" clip-rule="evenodd" d="M6.63049 2.07715e-06C7.94334 -0.0010458 9.227 0.394401 10.319 1.1363C11.4111 1.87821 12.2624 2.93322 12.7653 4.16785C13.2682 5.40247 13.4 6.76122 13.1441 8.07215C12.8883 9.38309 12.2562 10.5873 11.3278 11.5324C10.3995 12.4775 9.21665 13.121 7.92897 13.3815C6.64129 13.642 5.30664 13.5077 4.09392 12.9958C2.88119 12.4838 1.84489 11.6171 1.11615 10.5054C0.387405 9.39363 -0.00102725 8.08678 2.04031e-06 6.75022C0.0013804 4.96038 0.70039 3.24425 1.94355 1.97864C3.18671 0.713037 4.87239 0.00140532 6.63049 2.07715e-06Z" fill="#E32716"/>
<path d="M35.0155 26.8154H6.63037V40.3212H35.0155V26.8154Z" fill="#A8170A"/>
<path fill-rule="evenodd" clip-rule="evenodd" d="M6.63049 26.8154C7.94334 26.8144 9.227 27.2098 10.319 27.9517C11.4111 28.6936 12.2624 29.7486 12.7653 30.9833C13.2682 32.2179 13.4 33.5766 13.1441 34.8876C12.8883 36.1985 12.2562 37.4027 11.3278 38.3478C10.3995 39.2929 9.21665 39.9364 7.92897 40.1969C6.64129 40.4574 5.30664 40.3232 4.09392 39.8112C2.88119 39.2992 1.84489 38.4326 1.11615 37.3208C0.387405 36.2091 -0.00102725 34.9022 2.04031e-06 33.5656C0.0013804 31.7758 0.70039 30.0597 1.94355 28.7941C3.18671 27.5285 4.87239 26.8168 6.63049 26.8154Z" fill="#E32716"/>
<path d="M41.6512 6.75024H28.385V33.5657H41.6512V6.75024Z" fill="#A8170A"/>
<path fill-rule="evenodd" clip-rule="evenodd" d="M35.0207 0C36.3333 4.11024e-07 37.6165 0.396339 38.7078 1.13888C39.7992 1.88142 40.6497 2.9368 41.1518 4.17152C41.6539 5.40623 41.785 6.76482 41.5285 8.0754C41.272 9.38599 40.6395 10.5897 39.711 11.5343C38.7825 12.4788 37.5996 13.1218 36.3121 13.3819C35.0245 13.6419 33.6901 13.5074 32.4777 12.9953C31.2653 12.4832 30.2293 11.6165 29.5008 10.5048C28.7723 9.39319 28.384 8.08656 28.385 6.75022C28.3864 4.95946 29.0861 3.24253 30.3304 1.97677C31.5747 0.711012 33.2617 -5.5079e-07 35.0207 0" fill="#E32716"/>
<path d="M39.2837 28.3962L30.7563 38.7422L40.9507 47.4508L49.478 37.1048L39.2837 28.3962Z" fill="#A8170A"/>
<path fill-rule="evenodd" clip-rule="evenodd" d="M40.1004 37.9103C40.9454 36.8915 42.0679 36.1503 43.3262 35.7803C44.5845 35.4102 45.9223 35.4279 47.1708 35.831C48.4193 36.2341 49.5226 37.0046 50.3414 38.0454C51.1602 39.0861 51.6579 40.3504 51.7717 41.6788C51.8855 43.0072 51.6103 44.3401 50.9809 45.5095C50.3514 46.6788 49.3958 47.6322 48.2348 48.2492C47.0737 48.8663 45.7591 49.1195 44.4568 48.9768C43.1546 48.8341 41.923 48.302 40.9175 47.4475C40.246 46.8778 39.6919 46.1785 39.287 45.3898C38.8822 44.6011 38.6347 43.7386 38.5588 42.8521C38.4828 41.9656 38.5799 41.0725 38.8445 40.2244C39.1091 39.3762 39.5359 38.5898 40.1004 37.9103Z" fill="#E32716"/>
<path fill-rule="evenodd" clip-rule="evenodd" d="M13.2661 33.5656V26.8154H6.63037C8.38936 26.8154 10.0764 27.5264 11.3207 28.7922C12.565 30.058 13.2647 31.7749 13.2661 33.5656Z" fill="#CE3023"/>
<path fill-rule="evenodd" clip-rule="evenodd" d="M28.385 33.5656V26.8154H35.0207C33.2617 26.8154 31.5747 27.5264 30.3304 28.7922C29.0861 30.058 28.3864 31.7749 28.385 33.5656Z" fill="#CE3023"/>
<path fill-rule="evenodd" clip-rule="evenodd" d="M29.936 29.2263C30.7812 28.2057 31.9044 27.4629 33.164 27.0917C34.4235 26.7204 35.7628 26.7374 37.0129 27.1405C38.2629 27.5436 39.3676 28.3146 40.1876 29.3564C41.0075 30.3981 41.5059 31.6638 41.6199 32.9937C41.7338 34.3236 41.4582 35.658 40.8278 36.8286C40.1974 37.9991 39.2404 38.9532 38.0778 39.5705C36.9152 40.1878 35.599 40.4406 34.2953 40.297C32.9917 40.1534 31.7591 39.6198 30.7531 38.7635C30.0834 38.1926 29.5309 37.4927 29.1272 36.7041C28.7236 35.9154 28.4768 35.0534 28.4009 34.1675C28.3249 33.2816 28.4215 32.3891 28.6849 31.5412C28.9483 30.6933 29.3735 29.9067 29.936 29.2263Z" fill="#E32716"/>
<path fill-rule="evenodd" clip-rule="evenodd" d="M39.2832 28.3943C40.0172 29.0244 40.6077 29.8095 41.014 30.6951C41.4202 31.5808 41.6323 32.5458 41.6356 33.5232V30.4183L39.2832 28.3943Z" fill="#CE3023"/>
<path d="M203.926 16.0331V11.9215H212.311V16.0331H203.926ZM199.638 18.7141L206.034 1.18685H210.598L217.026 18.7141H212.342L207.658 4.82158H209.027L204.343 18.7141H199.638ZM194.054 8.96496C194.561 8.98449 195.057 8.80854 195.443 8.47221C195.623 8.31036 195.765 8.11 195.859 7.88555C195.954 7.6611 195.998 7.41813 195.99 7.17409C196.001 6.93684 195.961 6.69993 195.871 6.48078C195.78 6.26164 195.643 6.06583 195.469 5.90776C195.069 5.59026 194.571 5.42867 194.064 5.4521H190.171L191.561 4.0904V18.7141H187.147V1.18685H194.215C195.331 1.16804 196.438 1.40526 197.452 1.88095C198.381 2.32276 199.162 3.03428 199.695 3.92615C200.262 4.90894 200.546 6.03473 200.512 7.17409C200.545 8.29163 200.261 9.39519 199.695 10.3532C199.156 11.2334 198.376 11.9348 197.452 12.3719C196.438 12.8475 195.331 13.0848 194.215 13.066H190.889V8.96496H194.054ZM176.952 13.5587C177.529 13.556 178.096 13.3949 178.591 13.0925C179.129 12.7715 179.577 12.3154 179.892 11.7678C180.245 11.1567 180.425 10.458 180.413 9.74914C180.425 9.03857 180.245 8.33821 179.892 7.72513C179.58 7.17911 179.131 6.72743 178.591 6.41641C178.094 6.11955 177.528 5.96231 176.952 5.96075V13.5587ZM169.145 9.74914C169.13 10.4583 169.31 11.1577 169.665 11.7678C169.981 12.3154 170.429 12.7715 170.967 13.0925C171.454 13.3921 172.011 13.5531 172.58 13.5587V5.96075C172.012 5.96522 171.455 6.12242 170.967 6.41641C170.426 6.72743 169.977 7.17911 169.665 7.72513C169.321 8.34038 169.151 9.04128 169.176 9.74914H169.145ZM176.952 1.97102C178.296 2.0437 179.61 2.40482 180.808 3.03071C181.988 3.6389 182.989 4.5526 183.712 5.67993C184.465 6.88677 184.849 8.29364 184.816 9.72264C184.862 11.1515 184.491 12.5621 183.749 13.776C183.027 14.9109 182.026 15.8335 180.845 16.4517C179.649 17.0843 178.334 17.4458 176.988 17.5114V19.4347H172.575V17.5484C171.233 17.4791 169.922 17.1177 168.729 16.4888C167.552 15.8703 166.556 14.9475 165.84 13.813C165.087 12.6025 164.703 11.1921 164.737 9.75973C164.701 8.33041 165.085 6.9228 165.84 5.71702C166.56 4.5926 167.555 3.6793 168.729 3.0678C169.922 2.44125 171.233 2.08005 172.575 2.00811V0H176.988L176.952 1.97102ZM151.091 1.18685V12.9812H150.274L158.013 1.18685H162.452V18.7141H158.085V6.91977H158.856L151.143 18.7141H146.729V1.18685H151.091ZM144.684 14.4436V22.2535H140.369V17.0186L142.404 18.7141H127.312V1.18685H131.725V16.1391L129.966 14.4436H144.684ZM138.262 15.8106V1.18685H142.675V15.8106H138.262ZM120.202 11.9692H112.546V7.73043H120.187L120.202 11.9692ZM112.937 18.7141H108.523V1.18685H112.937V18.7141ZM119.765 1.18685H124.178V18.7141H119.765V1.18685ZM94.0394 1.18685V12.9812H93.2223L100.967 1.18685H105.406V18.7141H101.039V6.91977H101.81L94.0914 18.7141H89.6781V1.18685H94.0394ZM66.7056 18.7141V1.18685H73.2788L77.8691 15.0264H75.3658L80.0498 1.18685H86.5502V18.7141H82.2565V2.90355H83.4275L78.119 18.7141H75.116L69.8074 2.90355H70.9992V18.7141H66.7056Z" fill="white"/>
<path d="M215.746 34.8427H212.368V33.428H215.746V34.8427ZM212.571 37.5396H211.114V30.8529H212.571V37.5396ZM215.543 30.8529H217.026V37.5396H215.569L215.543 30.8529ZM203.088 31.494C203.46 31.2515 203.868 31.0725 204.296 30.9642C204.772 30.8266 205.264 30.7571 205.758 30.7576C206.558 30.6948 207.35 30.9578 207.96 31.4887C208.208 31.7498 208.402 32.0596 208.529 32.3994C208.656 32.7392 208.714 33.1018 208.699 33.4651V37.5396H207.257V33.4651C207.265 33.2027 207.186 32.9454 207.033 32.7339C206.888 32.5258 206.688 32.3641 206.456 32.2676C206.199 32.1635 205.925 32.1113 205.649 32.114C205.296 32.1123 204.944 32.1678 204.608 32.2782C204.284 32.3912 203.975 32.5442 203.687 32.7339L203.088 31.494ZM207.72 35.2029C207.411 35.0066 207.076 34.8534 206.726 34.7473C206.362 34.6434 205.985 34.5935 205.607 34.5989C205.278 34.588 204.952 34.6706 204.665 34.8374C204.55 34.8969 204.453 34.9878 204.385 35.1C204.317 35.2122 204.281 35.3413 204.28 35.4732C204.273 35.6471 204.331 35.8173 204.442 35.95C204.563 36.089 204.72 36.1916 204.894 36.2467C205.098 36.3192 205.313 36.355 205.529 36.3527C205.809 36.3505 206.085 36.291 206.341 36.1779C206.59 36.076 206.813 35.9205 206.997 35.7222C207.16 35.5519 207.251 35.324 207.252 35.0864V36.1461C207.241 36.4101 207.142 36.6625 206.971 36.8614C206.767 37.1048 206.511 37.2971 206.222 37.423C205.893 37.5684 205.539 37.6424 205.181 37.6402C204.777 37.6432 204.378 37.5583 204.01 37.3912C203.659 37.2294 203.357 36.9752 203.135 36.6547C202.911 36.3191 202.795 35.9212 202.802 35.5156C202.792 35.1021 202.922 34.6977 203.172 34.3711C203.43 34.0492 203.77 33.8055 204.155 33.6664C204.589 33.5041 205.047 33.4233 205.509 33.428C205.925 33.4224 206.341 33.4687 206.747 33.5657C207.094 33.6605 207.423 33.8089 207.726 34.0055L207.72 35.2029ZM195.578 32.2676V30.8529H201.413V32.2676H195.578ZM199.222 31.8702V37.5396H197.77V31.8702H199.222ZM193.497 32.8081C193.318 32.6199 193.106 32.4672 192.872 32.3577C192.605 32.2331 192.313 32.1715 192.019 32.1775C191.68 32.1756 191.347 32.2613 191.051 32.4266C190.753 32.593 190.504 32.8383 190.332 33.1366C190.151 33.4585 190.059 33.825 190.067 34.1962C190.062 34.5707 190.163 34.9388 190.358 35.2559C190.548 35.5551 190.812 35.7982 191.123 35.9606C191.436 36.1226 191.782 36.2062 192.133 36.2044C192.62 36.2255 193.097 36.0612 193.471 35.7434L194.22 36.8031C193.972 37.0721 193.668 37.2804 193.33 37.4124C192.929 37.5709 192.501 37.6482 192.071 37.6402C191.484 37.6417 190.906 37.5057 190.379 37.2428C189.968 37.0181 189.606 36.7106 189.314 36.3389C189.023 35.9673 188.809 35.5393 188.686 35.0809C188.562 34.6225 188.531 34.1434 188.595 33.6725C188.659 33.2017 188.816 32.7489 189.057 32.3418C189.375 31.8301 189.82 31.4133 190.348 31.1337C190.857 30.8551 191.425 30.7094 192.003 30.7099C192.471 30.6984 192.937 30.7906 193.367 30.9801C193.71 31.1287 194.015 31.3574 194.256 31.6477L193.497 32.8081ZM181.776 30.8529V40.3212H180.319V30.8529H181.776ZM181.729 32.3206C181.764 32.0701 181.865 31.8338 182.021 31.6371C182.22 31.3682 182.479 31.1504 182.775 31.0013C183.13 30.8184 183.523 30.7274 183.92 30.7364C184.413 30.7375 184.895 30.8808 185.31 31.1496C185.76 31.4449 186.12 31.8612 186.351 32.3524C186.617 32.9332 186.754 33.5661 186.754 34.2068C186.754 34.8475 186.617 35.4805 186.351 36.0613C186.12 36.5556 185.76 36.9754 185.31 37.2746C184.896 37.5475 184.414 37.6928 183.92 37.6932C183.523 37.7022 183.13 37.6112 182.775 37.4283C182.479 37.2791 182.22 37.0614 182.021 36.7925C181.865 36.5958 181.764 36.3595 181.729 36.109L181.755 34.5194C181.752 34.8331 181.835 35.1415 181.995 35.4096C182.154 35.6651 182.372 35.8778 182.63 36.0295C182.887 36.1818 183.18 36.2605 183.478 36.2573C183.786 36.2594 184.088 36.1751 184.352 36.0136C184.628 35.8389 184.853 35.5918 185.003 35.2983C185.172 34.9569 185.256 34.5785 185.248 34.1962C185.255 33.8142 185.171 33.436 185.003 33.0942C184.854 32.8025 184.629 32.5585 184.352 32.3895C184.087 32.2321 183.785 32.1498 183.478 32.151C183.18 32.1479 182.887 32.2266 182.63 32.3789C182.37 32.5341 182.151 32.7525 181.995 33.0147C181.834 33.2806 181.751 33.5875 181.755 33.8995L181.729 32.3206ZM172.268 31.494C172.639 31.2515 173.047 31.0725 173.475 30.9642C173.951 30.827 174.443 30.7574 174.938 30.7576C175.738 30.6948 176.529 30.9578 177.139 31.4887C177.389 31.7527 177.584 32.0662 177.71 32.4098C177.836 32.7535 177.892 33.1199 177.873 33.4863V37.5608H176.431V33.4651C176.438 33.2037 176.361 32.9471 176.213 32.7339C176.064 32.5268 175.862 32.3655 175.63 32.2676C175.374 32.1624 175.099 32.1102 174.823 32.114C174.47 32.1113 174.118 32.1668 173.782 32.2782C173.456 32.3901 173.145 32.5432 172.856 32.7339L172.268 31.494ZM176.9 35.2029C176.59 35.0066 176.255 34.8534 175.906 34.7473C175.542 34.6431 175.165 34.5931 174.787 34.5989C174.457 34.588 174.131 34.6706 173.845 34.8374C173.729 34.8974 173.633 34.9884 173.565 35.1005C173.497 35.2126 173.46 35.3415 173.459 35.4732C173.453 35.6471 173.51 35.8173 173.621 35.95C173.742 36.089 173.899 36.1916 174.074 36.2467C174.279 36.3197 174.496 36.3555 174.714 36.3527C174.991 36.3498 175.266 36.2903 175.52 36.1779C175.77 36.0746 175.995 35.9194 176.181 35.7222C176.341 35.5502 176.43 35.3229 176.431 35.0864V36.1461C176.416 36.4101 176.315 36.6617 176.145 36.8614C175.941 37.1031 175.687 37.2951 175.401 37.423C175.072 37.5675 174.718 37.6415 174.36 37.6402C173.958 37.6438 173.56 37.5589 173.194 37.3912C172.843 37.2294 172.541 36.9752 172.32 36.6547C172.092 36.3206 171.974 35.922 171.981 35.5156C171.971 35.1021 172.102 34.6977 172.351 34.3711C172.609 34.0492 172.95 33.8055 173.335 33.6664C173.77 33.5042 174.23 33.4234 174.693 33.428C175.108 33.4224 175.522 33.4687 175.926 33.5657C176.273 33.6605 176.603 33.8089 176.905 34.0055L176.9 35.2029ZM164.768 32.2676V30.8529H170.576V32.2676H164.768ZM168.411 31.8702V37.5396H166.954V31.8702H168.411ZM157.523 31.494C157.894 31.2505 158.302 31.0715 158.731 30.9642C159.207 30.8266 159.699 30.7571 160.193 30.7576C160.985 30.6932 161.77 30.9482 162.379 31.4675C162.629 31.7315 162.824 32.045 162.95 32.3887C163.076 32.7323 163.132 33.0987 163.113 33.4651V37.5396H161.671V33.4651C161.679 33.2027 161.6 32.9454 161.448 32.7339C161.302 32.5244 161.099 32.3625 160.865 32.2676C160.61 32.1631 160.338 32.1109 160.063 32.114C159.71 32.112 159.358 32.1674 159.022 32.2782C158.698 32.3912 158.389 32.5442 158.101 32.7339L157.523 31.494ZM162.155 35.2029C161.845 35.0066 161.511 34.8534 161.161 34.7473C160.797 34.6434 160.42 34.5935 160.042 34.5989C159.713 34.5875 159.386 34.67 159.1 34.8374C158.984 34.8967 158.886 34.9874 158.818 35.0995C158.749 35.2117 158.712 35.3409 158.71 35.4732C158.705 35.6477 158.765 35.8178 158.877 35.95C158.998 36.0869 159.152 36.1892 159.324 36.2467C159.53 36.3188 159.747 36.3546 159.964 36.3527C160.244 36.3505 160.52 36.291 160.776 36.1779C161.025 36.076 161.248 35.9205 161.432 35.7222C161.595 35.5519 161.686 35.324 161.687 35.0864V36.1461C161.674 36.4096 161.575 36.6612 161.406 36.8614C161.202 37.1048 160.945 37.2971 160.656 37.423C160.328 37.5684 159.974 37.6424 159.616 37.6402C159.212 37.6432 158.813 37.5583 158.445 37.3912C158.094 37.2294 157.792 36.9752 157.57 36.6547C157.344 36.3202 157.228 35.9215 157.237 35.5156C157.225 35.1026 157.354 34.6982 157.601 34.3711C157.862 34.049 158.204 33.8054 158.59 33.6664C159.023 33.5041 159.482 33.4233 159.943 33.428C160.359 33.4221 160.773 33.4683 161.177 33.5657C161.525 33.6595 161.857 33.8078 162.161 34.0055L162.155 35.2029ZM149.144 30.0105V28.6117H156.597V30.0529L149.144 30.0105ZM153.625 29.6661V37.5396H152.132V29.6714L153.625 29.6661ZM140.297 35.2453L143.419 30.8529H144.835V37.5396H143.367V33.1313L140.281 37.5396H138.865V30.8529H140.317L140.297 35.2453ZM132.828 30.8529V37.5396H131.371V30.8529H132.828ZM135.285 30.8529H137.07L133.843 34.44L133.916 33.4598L137.205 37.5343H135.384L132.474 33.9896L135.285 30.8529ZM124.387 35.2453L127.509 30.8529H128.93V37.5396H127.462V33.1313L124.371 37.5396H122.929V30.8529H124.387V35.2453ZM120.457 30.8529V37.5396H119.005V31.5841L119.703 32.257H116.268L116.955 31.5841L116.71 34.0585C116.662 34.7211 116.552 35.3775 116.382 36.0189C116.263 36.4796 116.015 36.8954 115.669 37.2164C115.265 37.5408 114.757 37.7013 114.243 37.6667L114.004 36.2891C114.156 36.2986 114.308 36.2725 114.449 36.2128C114.59 36.1531 114.715 36.0614 114.816 35.9447C115.01 35.6916 115.144 35.3959 115.206 35.0811C115.302 34.6159 115.37 34.1453 115.409 33.6717V33.5021L115.654 30.8529H120.457ZM112.016 27.605L112.291 29.0726L110.106 29.5124C109.531 29.6006 108.983 29.8197 108.503 30.1535C108.137 30.444 107.868 30.8417 107.732 31.2927C107.57 31.8911 107.497 32.5108 107.514 33.1313V33.8677C107.508 34.2729 107.59 34.6745 107.753 35.044C107.904 35.3851 108.141 35.6794 108.44 35.897C108.748 36.1059 109.111 36.2149 109.481 36.2096C109.807 36.2144 110.128 36.1322 110.413 35.9712C110.688 35.8095 110.912 35.5704 111.058 35.2824C111.222 34.9547 111.302 34.5903 111.292 34.2227C111.306 33.8508 111.214 33.4828 111.027 33.163C110.855 32.9005 110.616 32.6914 110.335 32.559C110.058 32.418 109.754 32.3454 109.445 32.3471C109.107 32.3435 108.774 32.4274 108.477 32.5908C108.175 32.7404 107.918 32.969 107.732 33.2531C107.556 33.531 107.464 33.8551 107.467 34.1856V32.7551C107.481 32.437 107.596 32.1321 107.795 31.8861C108.033 31.6098 108.333 31.3955 108.669 31.2609C109.038 31.097 109.437 31.0139 109.84 31.0172C110.343 31.0167 110.838 31.1481 111.277 31.3987C111.733 31.662 112.111 32.0466 112.37 32.5113C112.655 33.0397 112.799 33.6356 112.786 34.2386C112.803 34.8795 112.654 35.5137 112.354 36.0772C112.081 36.5836 111.671 36.9994 111.172 37.2746C110.653 37.559 110.071 37.7031 109.481 37.6932C108.834 37.7021 108.199 37.5179 107.654 37.1634C107.104 36.8015 106.667 36.2867 106.395 35.6798C106.078 34.9627 105.923 34.1823 105.942 33.3962C105.873 32.1422 106.203 30.8989 106.884 29.8515C107.622 28.9159 108.676 28.2928 109.84 28.103L112.016 27.605ZM99.2699 30.8529L101.586 36.9938L100.446 37.9634L97.6461 30.8529H99.2699ZM104.365 30.8529L100.649 40.3212H99.0877L100.472 36.8296L100.597 36.5858L102.746 30.8529H104.365ZM95.9234 30.8529V37.5396H94.4662V31.8808L94.8721 32.2676H91.1249L91.5204 31.8808V37.5396H90.0632V30.8529H95.9234ZM87.3933 32.8081C87.2114 32.6209 86.9982 32.4684 86.7636 32.3577C86.4961 32.2325 86.2043 32.1709 85.91 32.1775C85.572 32.177 85.2392 32.2626 84.942 32.4266C84.6457 32.5933 84.3993 32.8387 84.229 33.1366C84.0472 33.4585 83.9554 33.825 83.9636 34.1962C83.9557 34.571 84.0571 34.9398 84.255 35.2559C84.4421 35.5575 84.7067 35.8012 85.0201 35.9606C85.3307 36.1232 85.6753 36.2068 86.0245 36.2044C86.5127 36.2248 86.991 36.0606 87.3673 35.7434L88.1115 36.8031C87.8639 37.0721 87.5596 37.2804 87.2215 37.4124C86.8204 37.5714 86.3925 37.6488 85.9621 37.6402C85.3758 37.6417 84.797 37.5057 84.2706 37.2428C83.7358 36.9757 83.2824 36.5654 82.9591 36.056C82.6078 35.4947 82.4268 34.8405 82.4386 34.175C82.4254 33.5281 82.5972 32.8912 82.9331 32.3418C83.251 31.8301 83.6963 31.4133 84.2238 31.1337C84.7341 30.8544 85.3046 30.7088 85.884 30.7099C86.3507 30.6989 86.8141 30.7911 87.2424 30.9801C87.5862 31.1287 87.891 31.3574 88.1323 31.6477L87.3933 32.8081ZM80.565 36.6229C80.2845 36.9625 79.9273 37.2279 79.5242 37.3965C79.0743 37.5805 78.5933 37.6723 78.1085 37.6667C77.4735 37.6754 76.8455 37.5301 76.2766 37.2428C75.7291 36.9742 75.2672 36.5536 74.9442 36.0295C74.6214 35.4619 74.4575 34.815 74.4706 34.1592C74.4613 33.5437 74.6026 32.9355 74.8818 32.3895C75.1426 31.8843 75.5375 31.4639 76.0216 31.1761C76.5204 30.8861 77.0866 30.7379 77.661 30.747C78.2072 30.7384 78.7459 30.8773 79.2223 31.1496C79.6684 31.4211 80.0295 31.8162 80.2632 32.2888C80.5203 32.8131 80.6489 33.3931 80.6379 33.979V34.6519H75.3762V33.4915H79.342L79.2275 33.6611C79.2318 33.3645 79.1638 33.0714 79.0297 32.8081C78.9033 32.5644 78.7098 32.3637 78.4729 32.2305C78.2153 32.0895 77.9274 32.0157 77.6349 32.0157C77.3425 32.0157 77.0546 32.0895 76.797 32.2305C76.563 32.3716 76.3692 32.5725 76.2349 32.8134C76.103 33.0388 76.0263 33.2932 76.0111 33.5551L75.9851 34.44C75.9788 34.7843 76.071 35.123 76.2505 35.4149C76.4397 35.7082 76.7094 35.9385 77.026 36.0772C77.3511 36.235 77.7068 36.3165 78.0669 36.3156C78.3959 36.3227 78.7224 36.2576 79.0245 36.1249C79.3011 35.9966 79.5518 35.8169 79.7636 35.595L80.565 36.6229ZM69.8439 32.8504C70.2746 32.8771 70.6996 32.7391 71.0357 32.4637C71.1727 32.3345 71.2809 32.1767 71.3527 32.0012C71.4246 31.8256 71.4584 31.6364 71.452 31.4464C71.4601 31.2576 71.4269 31.0695 71.3549 30.8954C71.2829 30.7213 71.1739 30.5657 71.0357 30.4396C70.6971 30.1698 70.273 30.0359 69.8439 30.0635H67.8558L68.1992 29.7297V37.5396H66.7056V28.6117H69.9219C70.4718 28.6003 71.0173 28.7125 71.5197 28.9402C71.9649 29.1431 72.3401 29.4771 72.597 29.8992C72.8503 30.3684 72.9831 30.8951 72.9831 31.4305C72.9831 31.9658 72.8503 32.4925 72.597 32.9617C72.3374 33.3809 71.9603 33.7112 71.5145 33.9101C71.0134 34.1362 70.4699 34.2484 69.9219 34.2386H67.9598V32.8504H69.8439Z" fill="white"/>
</g>
<defs>
<clipPath id="clip0_6_1659">
<rect width="217" height="49" fill="white"/>
</clipPath>
</defs>
</svg>
