<?xml version="1.0" encoding="utf-8"?>
<!-- Generator: Adobe Illustrator 25.3.1, SVG Export Plug-In . SVG Version: 6.00 Build 0)  -->
<svg version="1.1" id="Слой_1" xmlns="http://www.w3.org/2000/svg" xmlns:xlink="http://www.w3.org/1999/xlink" x="0px" y="0px"
     viewBox="0 0 300 100" style="enable-background:new 0 0 300 100;" xml:space="preserve">
<style type="text/css">
	.st0{fill:#FFFFFF;}
</style>
    <path class="st0" d="M294.88,43.98c-2.29-5.8-7.96-8.96-14.1-7.86l-12.61,2.27c-2.09,0.38-3.48,2.38-3.11,4.47
	c0.37,2.09,2.37,3.48,4.47,3.11l12.61-2.27c3-0.54,4.85,1.25,5.59,3.11c0.73,1.86,0.61,4.43-1.95,6.09l-18.51,11.99
	c-1.72,1.11-3.81,1.19-5.61,0.22c-1.79-0.98-2.87-2.78-2.87-4.82V21.42c0-2.12-1.72-3.85-3.85-3.85c-2.12,0-3.85,1.72-3.85,3.85
	v38.86c0,4.91,2.57,9.24,6.89,11.58c2,1.09,4.16,1.63,6.31,1.63c2.48,0,4.95-0.72,7.15-2.15l18.51-11.99
	C295.2,55.96,297.18,49.78,294.88,43.98 M229.79,36.12l-12.61,2.27c-2.09,0.38-3.48,2.38-3.11,4.47c0.37,2.09,2.38,3.48,4.47,3.11
	l12.61-2.27c3-0.54,4.85,1.25,5.59,3.11c0.73,1.86,0.61,4.43-1.95,6.09l-18.51,11.99c-1.72,1.11-3.81,1.19-5.61,0.22
	c-1.8-0.98-2.87-2.78-2.87-4.82V30.77c0-4.91-2.58-9.24-6.89-11.58c-4.31-2.34-9.34-2.15-13.46,0.52l-46.54,30.15
	c-5.24,3.39-7.21,9.57-4.92,15.38c2.29,5.8,7.96,8.96,14.1,7.86l40.64-7.31c2.09-0.38,3.48-2.37,3.11-4.47
	c-0.37-2.09-2.38-3.48-4.47-3.11l-40.64,7.31c-3,0.54-4.85-1.25-5.59-3.11c-0.73-1.86-0.61-4.43,1.95-6.09l46.54-30.16
	c1.71-1.11,3.81-1.19,5.61-0.21c1.79,0.98,2.87,2.78,2.87,4.82v29.52c0,4.91,2.57,9.24,6.89,11.58c2,1.09,4.16,1.63,6.31,1.63
	c2.48,0,4.95-0.72,7.15-2.15l18.51-11.99c5.24-3.39,7.22-9.57,4.92-15.37C241.6,38.18,235.92,35.02,229.79,36.12"/>
    <path class="st0" d="M13.82,29.83l3.09-8.8c0.12-0.31,0.22-0.42,0.45-0.42c0.23,0,0.33,0.11,0.44,0.42l3.11,8.8H13.82z M27.44,38.46
	c0-0.32-0.05-0.62-0.23-1.09l-6.23-17c-0.75-2.08-1.85-2.96-3.59-2.96c-1.73,0-2.84,0.88-3.59,2.96L7.52,37.37
	C7.34,37.9,7.3,38.22,7.3,38.46c0,0.89,0.7,1.62,1.68,1.62c0.8,0,1.4-0.4,1.73-1.38l2.03-5.78h9.26l2.04,5.8
	c0.32,0.96,0.92,1.37,1.71,1.37C26.74,40.08,27.44,39.35,27.44,38.46 M43.63,37.18l-5.82-5.82l5.52-5.52
	c0.43-0.43,0.65-0.85,0.65-1.34c0-0.82-0.59-1.42-1.44-1.42c-0.49,0-0.85,0.18-1.33,0.65l-5.61,5.61c-0.31,0.31-0.64,0.48-1.07,0.48
	h-1.15v-4.96c0-1.13-0.66-1.78-1.69-1.78c-1.02,0-1.68,0.66-1.68,1.78v13.43c0,1.13,0.66,1.79,1.68,1.79c1.03,0,1.69-0.66,1.69-1.79
	v-5.36h0.96c0.43,0,0.76,0.17,1.07,0.48l5.99,5.99c0.5,0.5,0.88,0.69,1.39,0.69c0.89,0,1.51-0.63,1.51-1.49
	C44.31,38.07,44.08,37.63,43.63,37.18 M37.8,70.55c-1.24,0.67-2.91,1.15-4.47,1.15c-2.78,0-4.35-1.18-4.35-3.22
	c0-1.83,1.38-3.2,4.35-3.2c1.48,0,2.72,0.22,4.47,0.73V70.55z M33.81,56.49c-1.94,0-3.84,0.53-4.87,0.99c-0.69,0.3-1,0.62-0.99,1.17
	c0.02,0.57,0.46,1.02,1,1.02c0.27,0,0.59-0.1,0.9-0.25c0.79-0.34,2.27-0.78,3.73-0.78c2.88,0,4.22,1.17,4.22,3.78v1.56
	c-1.81-0.52-3.11-0.71-4.67-0.71c-4.22,0-6.36,2.43-6.36,5.17c0,3.22,2.42,5.34,6.26,5.34c3.17,0,5.6-1.12,6.49-1.77
	c0.36-0.26,0.47-0.46,0.47-0.96v-8.69C40,58.36,37.67,56.49,33.81,56.49 M82.13,36.51c-1,0.53-2.37,0.91-3.69,0.91
	c-2.17,0-3.53-0.94-3.53-2.57c0-1.48,1.16-2.62,3.51-2.62c1.24,0,2.34,0.18,3.71,0.59V36.51z M78.74,22.93
	c-1.89,0-3.59,0.48-4.68,0.92c-0.92,0.37-1.31,0.91-1.3,1.62c0.01,0.84,0.64,1.45,1.43,1.45c0.38,0,0.8-0.15,1.25-0.32
	c0.71-0.28,1.88-0.59,3.05-0.59c2.6,0,3.65,0.98,3.65,2.98v1.35c-1.49-0.4-2.71-0.58-4.11-0.58c-4.25,0-6.33,2.42-6.33,5.08
	c0,3.08,2.33,5.39,6.45,5.39c3.2,0,5.64-1.07,6.62-1.74c0.47-0.32,0.63-0.63,0.63-1.26v-8.17C85.39,24.85,82.97,22.93,78.74,22.93
	 M68.18,64.95l6.46-6.46c0.31-0.31,0.44-0.55,0.44-0.9c0-0.51-0.35-0.94-0.95-0.94c-0.31,0-0.57,0.11-0.85,0.39l-6.32,6.32
	c-0.35,0.35-0.71,0.55-1.21,0.55h-1.3v-6.07c0-0.76-0.41-1.19-1.12-1.19c-0.7,0-1.12,0.42-1.12,1.19v14.63
	c0,0.76,0.42,1.19,1.12,1.19c0.71,0,1.12-0.43,1.12-1.19v-6.48h1.15c0.5,0,0.86,0.2,1.21,0.55l6.71,6.71
	c0.29,0.29,0.56,0.41,0.89,0.41c0.63,0,1-0.45,1-0.99c0-0.37-0.14-0.63-0.46-0.95L68.18,64.95z M56.71,56.64
	c-0.71,0-1.12,0.42-1.12,1.19v6.07H46.3v-6.07c0-0.76-0.41-1.19-1.12-1.19c-0.7,0-1.12,0.42-1.12,1.19v14.63
	c0,0.76,0.42,1.19,1.12,1.19c0.71,0,1.12-0.43,1.12-1.19v-6.48h9.29v6.48c0,0.76,0.41,1.19,1.12,1.19c0.7,0,1.11-0.43,1.11-1.19
	V57.83C57.82,57.07,57.41,56.64,56.71,56.64 M100.44,33.38c-0.2,2.14-1.53,3.59-3.97,3.59c-1.26,0-2.85-0.39-3.63-0.94v-8.91
	c0.78-0.56,2.37-0.95,3.63-0.95c2.44,0,3.78,1.45,3.97,3.6C100.54,30.85,100.55,32.21,100.44,33.38 M96.58,22.93
	c-2.95,0-5.31,1.04-6.26,1.6c-0.77,0.46-0.86,0.82-0.86,2.11v17.21c0,1.12,0.65,1.78,1.68,1.78c1.03,0,1.7-0.66,1.7-1.78v-4.49
	c1.01,0.49,2.56,0.87,4.03,0.87c3.9,0,6.57-2.6,6.93-6.34c0.12-1.26,0.12-3.35,0-4.62C103.46,25.52,100.77,22.93,96.58,22.93
	 M56.58,29.33h5.52c2.61,0,3.78,1.33,3.78,3.63c0,2.34-1.17,3.72-3.78,3.72h-5.52V29.33z M55.74,39.93h6.72
	c4.37,0,6.96-2.54,6.96-7.04c0-4.25-2.59-6.63-6.96-6.63h-5.89v-5.44h9.89c1.08,0,1.78-0.64,1.78-1.66c0-0.97-0.7-1.61-1.78-1.61
	H55.74c-1.7,0-2.63,0.92-2.63,2.63V37.3C53.11,39.01,54.04,39.93,55.74,39.93 M119.42,33.82c-0.77,0.02-1.19,0.47-1.48,0.98
	c-0.58,1.26-1.82,2.15-3.52,2.15c-2.39,0-3.8-1.44-4-3.57c-0.1-1.14-0.1-2.46,0-3.61c0.2-2.14,1.63-3.58,4-3.58
	c1.7,0,2.92,0.88,3.52,2.17c0.3,0.49,0.72,0.96,1.48,0.96c0.98,0.01,1.64-0.6,1.64-1.56c0-0.5-0.19-0.99-0.49-1.54
	c-0.99-1.83-3.13-3.3-6.2-3.3c-4.15,0-6.94,2.62-7.29,6.37c-0.12,1.25-0.12,3.31,0,4.56c0.36,3.75,3.14,6.38,7.29,6.38
	c3.08,0,5.21-1.46,6.21-3.31c0.3-0.54,0.48-1.04,0.48-1.54C121.06,34.44,120.4,33.8,119.42,33.82 M17.55,71.3h-6.3v-8.94h6.3
	c3.3,0,4.66,1.62,4.66,4.41C22.2,69.63,20.84,71.3,17.55,71.3 M17.83,60.22h-6.59v-6.9h10.98c0.73,0,1.24-0.41,1.24-1.11
	c0-0.67-0.5-1.09-1.24-1.09H10.96c-1.26,0-1.98,0.7-1.98,1.98v18.42c0,1.28,0.72,1.98,1.98,1.98h6.87c4.22,0,6.67-2.45,6.67-6.74
	C24.5,62.58,22.05,60.22,17.83,60.22"/>
</svg>
