<svg width="150" height="46" viewBox="0 0 150 46" fill="none" xmlns="http://www.w3.org/2000/svg">
<g clip-path="url(#clip0_6_1688)">
<path d="M68.3661 0.343018V0.961164H65.7314L65.8258 0.870923V5.41452H65.1919V0.343018H68.3661Z" fill="white"/>
<path d="M71.7381 5.49566C71.2898 5.50168 70.8482 5.38573 70.4603 5.1601C70.0724 4.93448 69.7527 4.60762 69.535 4.21424C69.3117 3.80839 69.197 3.35132 69.2023 2.88771C69.197 2.4241 69.3117 1.96703 69.535 1.56118C69.7527 1.1678 70.0724 0.840941 70.4603 0.615317C70.8482 0.389694 71.2898 0.273736 71.7381 0.279765C72.1851 0.273907 72.6254 0.390024 73.0118 0.615715C73.3983 0.841405 73.7163 1.16819 73.9321 1.56118C74.1555 1.96703 74.2701 2.4241 74.2648 2.88771C74.2701 3.35132 74.1555 3.80839 73.9321 4.21424C73.7163 4.60723 73.3983 4.93401 73.0118 5.1597C72.6254 5.3854 72.1851 5.50151 71.7381 5.49566ZM71.7381 4.85946C72.0712 4.86518 72.3993 4.77793 72.6859 4.60744C72.9725 4.43695 73.2063 4.18991 73.3611 3.89389C73.5219 3.58331 73.6038 3.23768 73.5994 2.88771C73.6038 2.53774 73.5219 2.19211 73.3611 1.88153C73.2033 1.5874 72.9691 1.34165 72.6833 1.17035C72.3976 0.999047 72.0709 0.908596 71.7381 0.908596C71.4052 0.908596 71.0786 0.999047 70.7928 1.17035C70.507 1.34165 70.2728 1.5874 70.115 1.88153C69.9472 2.18981 69.862 2.5365 69.8677 2.88771C69.8689 3.24094 69.9619 3.58776 70.1375 3.89389C70.2924 4.18991 70.5261 4.43695 70.8127 4.60744C71.0993 4.77793 71.4274 4.86518 71.7605 4.85946H71.7381Z" fill="white"/>
<path d="M79.9972 4.81431V6.4251H79.3813V5.33319L79.4757 5.43245H75.5642L75.6586 5.33319V6.4251H75.0471V4.81431H79.9972ZM75.3888 4.81431C75.5858 4.58069 75.7217 4.3016 75.7845 4.00215C75.8953 3.55729 75.9734 3.10487 76.0183 2.64854L76.2431 0.347412H79.4352V4.99479H78.7923V0.866294L78.8867 0.961046H76.5128L76.8275 0.672277L76.6162 2.77939C76.5819 3.21001 76.5203 3.63801 76.4319 4.0608C76.3752 4.33316 76.2668 4.59204 76.1127 4.82333L75.3888 4.81431Z" fill="white"/>
<path d="M88.0361 4.81443V6.42521H87.4201V5.33331L87.5145 5.43257H83.4412V0.343018H84.0751V4.90918L83.9807 4.81443H88.0361ZM86.8222 4.99039V0.343018H87.4651V4.99039H86.8222Z" fill="white"/>
<path d="M90.0504 0.343018V4.5437H89.92L92.8739 0.343018H93.5168V5.41452H92.8739V1.23188H92.9818L90.0369 5.41452H89.4075V0.343018H90.0504Z" fill="white"/>
<path d="M98.0398 0.636194C98.4496 0.640546 98.854 0.73124 99.2267 0.902403C99.5985 1.06535 99.9211 1.32367 100.162 1.6514C100.406 1.99782 100.532 2.41397 100.522 2.83806C100.531 3.25777 100.405 3.66922 100.162 4.01118C99.9212 4.34012 99.5987 4.59994 99.2267 4.76469C98.8537 4.93443 98.4493 5.02359 98.0398 5.02639V5.64904H97.4013V5.02639C96.9904 5.02302 96.5847 4.9339 96.2099 4.76469C95.8384 4.60111 95.5171 4.34099 95.2792 4.01118C95.0366 3.66922 94.9104 3.25777 94.9195 2.83806C94.9091 2.41397 95.0353 1.99782 95.2792 1.6514C95.5178 1.32154 95.841 1.0627 96.2144 0.902403C96.5889 0.731767 96.9946 0.641113 97.4058 0.636194V0H98.0443L98.0398 0.636194ZM95.576 2.83806C95.5636 3.16196 95.662 3.48036 95.8547 3.74046C96.0369 3.97359 96.2773 4.15417 96.5516 4.26385C96.8216 4.37337 97.1101 4.43004 97.4013 4.4308V1.2408C97.1101 1.24157 96.8216 1.29823 96.5516 1.40775C96.2762 1.51753 96.0354 1.69992 95.8547 1.93565C95.6623 2.19592 95.564 2.51421 95.576 2.83806ZM98.0398 4.42629C98.3387 4.42939 98.6352 4.37264 98.912 4.25934C99.1862 4.14966 99.4267 3.96908 99.6089 3.73595C99.8016 3.47585 99.9 3.15745 99.8876 2.83355C99.8996 2.50969 99.8013 2.19141 99.6089 1.93114C99.4276 1.69707 99.1869 1.51628 98.912 1.40775C98.6422 1.29736 98.3536 1.24067 98.0622 1.2408L98.0398 4.42629Z" fill="white"/>
<path d="M103.633 2.82004C103.929 2.83987 104.221 2.74996 104.455 2.56736C104.552 2.48138 104.628 2.37565 104.68 2.25732C104.732 2.13899 104.758 2.01084 104.757 1.88154C104.762 1.75589 104.739 1.63067 104.691 1.51457C104.643 1.39848 104.57 1.29429 104.478 1.20925C104.243 1.02826 103.95 0.939967 103.655 0.961086H102.509L102.603 0.866333V5.41444H101.96V0.34294H103.7C104.009 0.339137 104.316 0.400629 104.599 0.52342C104.849 0.633906 105.06 0.816027 105.206 1.04681C105.352 1.30012 105.425 1.58905 105.418 1.88154C105.424 2.17103 105.351 2.45674 105.206 2.70724C105.063 2.94265 104.851 3.12843 104.599 3.23965C104.316 3.36514 104.009 3.42675 103.7 3.42013H102.486V2.82004H103.633Z" fill="white"/>
<path d="M109.118 5.49564C108.665 5.50106 108.219 5.38251 107.827 5.15273C107.449 4.92666 107.139 4.60246 106.928 4.21423C106.703 3.80915 106.588 3.35156 106.596 2.8877C106.588 2.42384 106.703 1.96624 106.928 1.56116C107.139 1.17294 107.449 0.848739 107.827 0.622665C108.219 0.392886 108.665 0.27434 109.118 0.279752C109.565 0.273895 110.005 0.390012 110.392 0.615702C110.778 0.841392 111.096 1.16818 111.312 1.56116C111.535 1.96702 111.65 2.42408 111.645 2.8877C111.65 3.35131 111.535 3.80838 111.312 4.21423C111.096 4.60722 110.778 4.934 110.392 5.15969C110.005 5.38538 109.565 5.5015 109.118 5.49564ZM109.118 4.85945C109.451 4.86517 109.779 4.77792 110.066 4.60743C110.352 4.43693 110.586 4.1899 110.741 3.89388C110.902 3.58329 110.983 3.23767 110.979 2.8877C110.983 2.53773 110.902 2.1921 110.741 1.88152C110.583 1.58739 110.349 1.34164 110.063 1.17034C109.777 0.999035 109.451 0.908584 109.118 0.908584C108.785 0.908584 108.458 0.999035 108.173 1.17034C107.887 1.34164 107.653 1.58739 107.495 1.88152C107.327 2.1898 107.242 2.53648 107.247 2.8877C107.242 3.23891 107.327 3.5856 107.495 3.89388C107.65 4.1899 107.883 4.43693 108.17 4.60743C108.457 4.77792 108.785 4.86517 109.118 4.85945Z" fill="white"/>
<path d="M115.817 2.79757C115.978 2.84411 116.13 2.91731 116.267 3.01415C116.413 3.11274 116.534 3.24598 116.617 3.40218C116.711 3.58316 116.757 3.78494 116.752 3.98874C116.761 4.27182 116.682 4.55072 116.527 4.78737C116.373 5.00648 116.157 5.17453 115.907 5.27015C115.61 5.38414 115.294 5.4393 114.976 5.43259H113.101V0.343033H114.99C115.277 0.336592 115.562 0.39198 115.826 0.505466C116.049 0.598653 116.24 0.755558 116.374 0.956667C116.507 1.16199 116.574 1.4026 116.568 1.64701C116.581 1.90893 116.506 2.16776 116.356 2.38246C116.22 2.56993 116.033 2.71404 115.817 2.79757ZM115.925 1.73725C115.932 1.62783 115.912 1.51838 115.868 1.41795C115.825 1.31752 115.758 1.229 115.673 1.15971C115.46 1.01581 115.206 0.946061 114.949 0.961179H113.749V2.5449H114.931C115.19 2.56034 115.445 2.4854 115.655 2.33283C115.743 2.26118 115.813 2.17012 115.86 2.0668C115.906 1.96347 115.929 1.85068 115.925 1.73725ZM114.985 4.81444C115.272 4.82919 115.558 4.75687 115.803 4.60689C115.904 4.53744 115.984 4.44327 116.038 4.33343C116.092 4.2236 116.116 4.10179 116.109 3.97972C116.117 3.8582 116.092 3.73684 116.039 3.62764C115.985 3.51843 115.904 3.42516 115.803 3.35706C115.556 3.21225 115.271 3.14325 114.985 3.15853H113.749V4.82346L114.985 4.81444Z" fill="white"/>
<path d="M118.883 0.343018V4.5437H118.775L121.711 0.343018H122.336V5.41452H121.693V1.23188H121.806L118.87 5.41452H118.245V0.343018H118.883Z" fill="white"/>
<path d="M126.257 2.77026C126.431 2.81129 126.597 2.8831 126.747 2.98233C126.91 3.08679 127.046 3.22918 127.142 3.39743C127.25 3.58503 127.305 3.79892 127.3 4.01558C127.304 4.29377 127.219 4.56599 127.057 4.79165C126.889 5.02442 126.661 5.20568 126.396 5.31504C126.089 5.44049 125.76 5.5019 125.429 5.49552C125.07 5.50025 124.713 5.4438 124.373 5.32858C124.113 5.25435 123.876 5.1181 123.68 4.93152L123.986 4.40361C124.178 4.55821 124.396 4.67738 124.629 4.75555C124.866 4.83971 125.115 4.88244 125.366 4.88189C125.585 4.88335 125.802 4.84984 126.009 4.78262C126.184 4.72429 126.339 4.61985 126.459 4.48032C126.575 4.34365 126.636 4.16813 126.63 3.98851C126.638 3.85703 126.608 3.72601 126.546 3.61036C126.483 3.4947 126.389 3.39905 126.275 3.33426C125.975 3.17925 125.64 3.10611 125.303 3.1222H124.629V2.52661H125.227C125.543 2.54457 125.856 2.46589 126.126 2.30101C126.233 2.23368 126.319 2.13942 126.378 2.02773C126.436 1.91603 126.464 1.79085 126.459 1.66482C126.467 1.55037 126.444 1.43585 126.393 1.33338C126.341 1.23092 126.263 1.14432 126.167 1.08277C125.931 0.949845 125.663 0.887223 125.393 0.902288C125.139 0.901677 124.886 0.945968 124.647 1.03314C124.414 1.11984 124.193 1.23663 123.991 1.38056L123.685 0.861679C123.906 0.679094 124.159 0.539812 124.431 0.451086C124.744 0.342469 125.072 0.287553 125.402 0.288653C125.709 0.28199 126.014 0.334055 126.302 0.442062C126.541 0.532127 126.75 0.688606 126.904 0.893264C127.055 1.10634 127.132 1.36299 127.124 1.62421C127.128 1.81625 127.087 2.0065 127.003 2.17919C126.924 2.32892 126.813 2.45974 126.679 2.56271C126.552 2.65621 126.409 2.72646 126.257 2.77026Z" fill="white"/>
<path d="M128.226 5.41452L130.195 0.343018H130.834L132.803 5.41452H132.101L130.465 1.10555H130.555L128.918 5.41452H128.226ZM129.237 4.06092V3.46082H131.809V4.06092H129.237Z" fill="white"/>
<path d="M138.679 4.81443V6.42521H138.063V5.33331L138.158 5.43257H134.084V0.343018H134.727V4.90918L134.633 4.81443H138.679ZM137.465 4.99039V0.343018H138.108V4.99039H137.465Z" fill="white"/>
<path d="M140.693 0.343018V4.5437H140.581L143.517 0.343018H144.146V5.41452H143.503V1.23188H143.611L140.675 5.41452H140.05V0.343018H140.693Z" fill="white"/>
<path d="M146.569 0.343018V4.5437H146.457L149.37 0.343018H150V5.41452H149.357V1.23188H149.465L146.534 5.41452H145.904V0.343018H146.569Z" fill="white"/>
<path d="M67.8895 12.6923C68.058 12.7348 68.2177 12.8066 68.3616 12.9043C68.5075 13.0058 68.6276 13.1403 68.7123 13.2969C68.8062 13.4761 68.8526 13.6765 68.8471 13.8789C68.8574 14.1622 68.7787 14.4415 68.6223 14.6776C68.4678 14.8967 68.2518 15.0647 68.0019 15.1603C67.705 15.2743 67.389 15.3295 67.0712 15.3228H65.1919V10.2377H67.0802C67.3673 10.2318 67.6523 10.2872 67.9165 10.4002C68.1389 10.4943 68.3294 10.651 68.465 10.8514C68.5973 11.0583 68.6647 11.3004 68.6583 11.5462C68.6722 11.8068 68.5977 12.0645 68.447 12.2772C68.3041 12.4658 68.1108 12.6097 67.8895 12.6923ZM67.9974 11.6274C68.0031 11.5188 67.9832 11.4104 67.9395 11.3108C67.8958 11.2113 67.8293 11.1235 67.7456 11.0544C67.5339 10.907 67.2789 10.8355 67.0218 10.8514H65.8393V12.4351H66.9903C67.2488 12.4505 67.5046 12.3756 67.7141 12.223C67.8019 12.1514 67.8719 12.0603 67.9187 11.957C67.9654 11.8537 67.9878 11.7409 67.9839 11.6274H67.9974ZM67.0577 14.7091C67.3455 14.7225 67.6307 14.6486 67.876 14.4971C67.9712 14.4233 68.0483 14.3286 68.1013 14.2203C68.1543 14.1119 68.1819 13.9929 68.1819 13.8722C68.1819 13.7515 68.1543 13.6324 68.1013 13.524C68.0483 13.4157 67.9712 13.321 67.876 13.2472C67.6288 13.1009 67.3444 13.0303 67.0577 13.0442H65.8393V14.7091H67.0577Z" fill="white"/>
<path d="M74.0177 12.715C74.3131 12.7364 74.6056 12.6444 74.836 12.4578C74.9301 12.372 75.0042 12.2665 75.0531 12.1487C75.1021 12.031 75.1247 11.9039 75.1193 11.7765C75.1255 11.6502 75.1033 11.5242 75.0543 11.4078C75.0052 11.2914 74.9306 11.1876 74.836 11.1042C74.6041 10.9207 74.3123 10.8307 74.0177 10.8515H72.8713L72.9657 10.7568V15.341H72.3228V10.2379H74.0627C74.3719 10.2324 74.6786 10.294 74.9619 10.4184C75.209 10.5287 75.4173 10.7111 75.5599 10.9418C75.7 11.1991 75.7734 11.4877 75.7734 11.781C75.7734 12.0743 75.7 12.3628 75.5599 12.6202C75.4164 12.8556 75.2046 13.0414 74.9529 13.1526C74.6689 13.2744 74.3625 13.3344 74.0537 13.3286H72.8353V12.715H74.0177Z" fill="white"/>
<path d="M77.7809 14.804L77.6864 14.7092H80.3346V15.3409H77.1379V10.2378H80.3346V10.8514H77.6909L77.7854 10.7567L77.7809 14.804ZM77.664 12.4351H80.2042V13.0443H77.664V12.4351Z" fill="white"/>
<path d="M85.3251 11.2801C85.1614 11.1307 84.9727 11.0115 84.7676 10.9281C84.5534 10.8479 84.3263 10.8081 84.0977 10.8108C83.7673 10.8068 83.4422 10.8942 83.158 11.0635C82.8745 11.2313 82.6415 11.473 82.4836 11.7629C82.3147 12.074 82.2295 12.4238 82.2363 12.7781C82.2299 13.14 82.3166 13.4974 82.4881 13.8158C82.6499 14.105 82.8879 14.3438 83.176 14.5062C83.4904 14.6722 83.8414 14.756 84.1966 14.7498C84.4007 14.7533 84.604 14.7244 84.7991 14.6641C84.9898 14.5971 85.17 14.5028 85.3341 14.3843L85.6713 14.8852C85.4896 15.0537 85.2732 15.18 85.0374 15.2552C84.7636 15.3475 84.4764 15.3933 84.1876 15.3905C83.7192 15.3961 83.2564 15.2877 82.8388 15.0747C82.4482 14.8688 82.1239 14.5559 81.9036 14.1723C81.6713 13.7485 81.555 13.2706 81.5664 12.7871C81.5579 12.3128 81.6775 11.845 81.9126 11.4335C82.1339 11.0468 82.4535 10.7261 82.8388 10.504C83.2163 10.2814 83.6464 10.1645 84.0842 10.1656C84.415 10.157 84.7441 10.2169 85.0508 10.3416C85.2918 10.4399 85.5116 10.5839 85.6983 10.7657L85.3251 11.2801Z" fill="white"/>
<path d="M91.1024 10.2378V15.3409H90.4594V10.7657L90.5583 10.8514H87.591L87.6854 10.7657V15.3409H87.0425V10.2378H91.1024Z" fill="white"/>
<path d="M94.5958 14.4385L92.3838 10.2559H93.0942L94.9645 13.7707L94.5958 14.4385ZM93.854 15.3409L94.5104 13.8474L94.5778 13.7527L96.1469 10.2559H96.8483L94.5464 15.3409H93.854Z" fill="white"/>
<path d="M100.027 12.2727C100.459 12.2525 100.883 12.3922 101.218 12.6653C101.371 12.8018 101.491 12.9715 101.569 13.1614C101.647 13.3514 101.681 13.5567 101.668 13.7617C101.675 14.0463 101.603 14.3273 101.461 14.5738C101.322 14.8093 101.12 15.0003 100.877 15.1243C100.614 15.2586 100.322 15.3267 100.027 15.3228H98.1296V10.2378H101.304V10.8514H98.6782L98.7726 10.7657V14.8265L98.6782 14.7318H99.937C100.222 14.7344 100.498 14.6297 100.71 14.4385C100.807 14.3514 100.883 14.2439 100.932 14.1237C100.982 14.0035 101.005 13.8736 100.998 13.7436C101.006 13.6198 100.985 13.4959 100.935 13.3821C100.886 13.2684 100.81 13.168 100.715 13.0894C100.486 12.9271 100.208 12.8475 99.928 12.8638H98.6467V12.2727H100.027Z" fill="white"/>
<path d="M102.581 14.7498C102.679 14.7552 102.776 14.739 102.867 14.7024C102.958 14.6657 103.04 14.6095 103.107 14.5377C103.253 14.3684 103.355 14.1653 103.404 13.9467C103.48 13.6277 103.533 13.3034 103.561 12.9766L103.831 10.2378H106.928V15.3409H106.286V10.5672L106.569 10.8514H104.1L104.415 10.5672L104.159 13.1255C104.124 13.543 104.054 13.9566 103.948 14.3618C103.872 14.6493 103.716 14.9092 103.498 15.1108C103.263 15.3026 102.964 15.3992 102.662 15.3815L102.581 14.7498Z" fill="white"/>
<path d="M109.329 10.2378V14.4385H109.217L112.153 10.2423H112.782V15.3409H112.139V11.1221H112.247L109.311 15.3409H108.686V10.2378H109.329Z" fill="white"/>
<path d="M115.183 15.3409H114.54V10.2378H115.183V15.3409ZM117.431 10.2558H118.285L115.669 12.8773V12.4622L118.353 15.3409H117.476L114.999 12.7014L117.431 10.2558Z" fill="white"/>
<path d="M120.254 14.804L120.16 14.7092H122.813V15.3409H119.594V10.2378H122.795V10.8514H120.142L120.236 10.7567L120.254 14.804ZM120.138 12.4351H122.682V13.0443H120.138V12.4351Z" fill="white"/>
<path d="M64.7649 20.7553V20.1282H69.0136V20.7553H64.7649ZM67.2107 20.5794V25.2268H66.5678V20.5704L67.2107 20.5794Z" fill="white"/>
<path d="M69.2654 25.2177L71.2391 20.1282H71.8821L73.8468 25.2177H73.1454L71.5089 20.9088H71.5943L69.9623 25.2177H69.2654ZM70.2815 23.8641V23.246H72.8352V23.8596L70.2815 23.8641Z" fill="white"/>
<path d="M74.094 20.7553V20.1282H78.3472V20.7553H74.094ZM76.5443 20.5794V25.2268H75.9014V20.5704L76.5443 20.5794Z" fill="white"/>
<path d="M78.5945 25.2177L80.5682 20.1282H81.2112L83.1759 25.2177H82.4745L80.838 20.9088H80.9279L79.2914 25.2177H78.5945ZM79.6106 23.8641V23.246H82.1823V23.8596L79.6106 23.8641Z" fill="white"/>
<path d="M86.1523 22.6052C86.4468 22.6261 86.7386 22.536 86.9705 22.3526C87.0629 22.2654 87.1359 22.1597 87.1848 22.0423C87.2336 21.9249 87.2571 21.7984 87.2538 21.6712C87.2595 21.5444 87.237 21.4179 87.188 21.3009C87.139 21.1838 87.0647 21.0792 86.9705 20.9944C86.738 20.8126 86.4463 20.7241 86.1523 20.7463H85.0058L85.1002 20.6515V25.2177H84.4573V20.1281H86.1927C86.5018 20.1239 86.8083 20.1854 87.0919 20.3086C87.3391 20.4207 87.5484 20.6026 87.6944 20.832C87.8409 21.0867 87.9141 21.3773 87.9057 21.6712C87.9137 21.9658 87.8389 22.2566 87.6899 22.5105C87.5464 22.7459 87.3346 22.9317 87.0829 23.0429C86.7999 23.1682 86.493 23.2298 86.1837 23.2234H84.9743V22.6052H86.1523Z" fill="white"/>
<path d="M92.856 21.1703C92.693 21.0233 92.5059 20.9058 92.303 20.8229C92.088 20.7393 91.8591 20.6979 91.6286 20.701C91.2984 20.6991 90.9738 20.7864 90.6889 20.9537C90.4065 21.1229 90.1738 21.3643 90.0145 21.6531C89.8491 21.9698 89.7627 22.322 89.7627 22.6796C89.7627 23.0371 89.8491 23.3894 90.0145 23.706C90.1796 23.9988 90.4244 24.2383 90.7204 24.3964C91.032 24.5659 91.3821 24.6514 91.7365 24.6445C91.9408 24.6471 92.1442 24.6166 92.3389 24.5543C92.53 24.4899 92.7103 24.3972 92.874 24.2791L93.2112 24.7754C93.0309 24.9469 92.8141 25.075 92.5772 25.1499C92.2991 25.2352 92.0092 25.2748 91.7185 25.2672C91.2498 25.2752 90.7864 25.1667 90.3697 24.9514C89.9764 24.7493 89.6511 24.4355 89.4345 24.049C89.1992 23.6262 89.0812 23.1479 89.0928 22.6638C89.0836 22.1894 89.2033 21.7214 89.439 21.3102C89.665 20.9315 89.9858 20.6188 90.3697 20.4033C90.7027 20.214 91.0732 20.1009 91.4549 20.0721C91.8365 20.0432 92.2197 20.0993 92.5772 20.2363C92.82 20.3333 93.0403 20.4791 93.2246 20.6649L92.856 21.1703Z" fill="white"/>
<path d="M94.3621 20.7553V20.1282H98.6108V20.7553H94.3621ZM96.8079 20.5794V25.2268H96.165V20.5704L96.8079 20.5794Z" fill="white"/>
<path d="M98.8625 25.2177L100.832 20.1282H101.475L103.439 25.2177H102.738L101.102 20.9088H101.191L99.5549 25.2177H98.8625ZM99.8786 23.8641V23.246H102.446V23.8596L99.8786 23.8641Z" fill="white"/>
<path d="M105.364 25.2177H104.721V20.1282H105.364V25.2177ZM108.255 22.9617H105.247V22.321H108.255V22.9617ZM108.138 20.1507H108.803V25.2177H108.16L108.138 20.1507Z" fill="white"/>
<path d="M66.8779 32.4865C67.1733 32.5079 67.4657 32.4159 67.6962 32.2293C67.7856 32.1475 67.857 32.0479 67.9058 31.9367C67.9545 31.8256 67.9796 31.7055 67.9794 31.5841C67.9857 31.4578 67.9635 31.3318 67.9144 31.2154C67.8654 31.099 67.7908 30.9952 67.6962 30.9118C67.4642 30.7283 67.1725 30.6383 66.8779 30.6591H65.7314L65.8258 30.5644V35.108H65.1919V30.0229H66.9274C67.2366 30.0165 67.5435 30.0781 67.8266 30.2034C68.0751 30.3115 68.284 30.4944 68.4245 30.7268C68.574 30.9788 68.6489 31.2683 68.6403 31.5615C68.6489 31.8575 68.5741 32.15 68.4245 32.4053C68.2822 32.64 68.0721 32.8257 67.8221 32.9377C67.538 33.0593 67.2316 33.1193 66.9229 33.1137H65.7134V32.4865H66.8779Z" fill="white"/>
<path d="M70.6456 34.5891L70.5467 34.4944H73.1993V35.108H70.0027V30.0229H73.1993V30.6366H70.5467L70.6456 30.5418V34.5891ZM70.5287 32.2203H73.069V32.8294H70.5287V32.2203Z" fill="white"/>
<path d="M78.1809 31.0652C78.0181 30.9169 77.831 30.7979 77.6279 30.7133C77.4122 30.6331 77.1836 30.5933 76.9535 30.596C76.6246 30.5928 76.3012 30.6802 76.0184 30.8487C75.7323 31.0148 75.4974 31.2567 75.3395 31.548C75.1727 31.8599 75.0876 32.2093 75.0922 32.5632C75.085 32.9258 75.1734 33.2838 75.3485 33.601C75.5135 33.8938 75.7584 34.1333 76.0543 34.2913C76.3671 34.4573 76.7167 34.5412 77.0704 34.535C77.2745 34.5389 77.4779 34.5099 77.6729 34.4492C77.8655 34.3833 78.0473 34.289 78.2124 34.1695L78.5451 34.6703C78.3648 34.8407 78.1479 34.9673 77.9112 35.0403C77.6391 35.133 77.3533 35.1788 77.0659 35.1757C76.5975 35.1813 76.1347 35.0729 75.7171 34.8598C75.3256 34.6552 75.001 34.342 74.782 33.9574C74.5483 33.534 74.4304 33.0561 74.4403 32.5722C74.431 32.0973 74.5524 31.6289 74.791 31.2186C75.0134 30.8329 75.3328 30.5124 75.7171 30.2892C76.0943 30.0659 76.5246 29.949 76.9625 29.9508C77.2919 29.9422 77.6195 30.0021 77.9247 30.1267C78.1676 30.2239 78.3891 30.368 78.5766 30.5509L78.1809 31.0652Z" fill="white"/>
<path d="M83.9627 30.0229V35.108H83.3198V30.5509L83.4142 30.6366H80.4513L80.5458 30.5509V35.108H79.9028V30.0229H83.9627Z" fill="white"/>
<path d="M87.4562 34.2056L85.2441 30.0229H85.9545L87.8203 33.5378L87.4562 34.2056ZM86.7098 35.108L87.3707 33.6145L87.4337 33.5198L89.0208 30.0229H89.7222L87.4247 35.108H86.7098Z" fill="white"/>
<path d="M92.8873 32.0579C93.3176 32.0375 93.7402 32.1773 94.0742 32.4504C94.2271 32.587 94.3471 32.7566 94.425 32.9466C94.5029 33.1366 94.5367 33.3418 94.5238 33.5468C94.5304 33.8315 94.4588 34.1124 94.317 34.359C94.1782 34.5945 93.9755 34.7854 93.7325 34.9095C93.4695 35.0438 93.1779 35.1119 92.8828 35.108H90.981V30.0229H94.1596V30.6366H91.5295L91.6239 30.5509V34.6117L91.5295 34.5169H92.7928C93.0758 34.533 93.3547 34.443 93.5752 34.2642C93.6693 34.1756 93.7433 34.0677 93.7922 33.9478C93.8411 33.8279 93.8636 33.6988 93.8584 33.5694C93.8662 33.4461 93.845 33.3226 93.7966 33.209C93.7482 33.0953 93.6739 32.9947 93.5796 32.9151C93.3503 32.7528 93.073 32.6733 92.7928 32.6895H91.507V32.0579H92.8873Z" fill="white"/>
<path d="M95.4412 34.535C95.539 34.5404 95.6367 34.5242 95.7276 34.4875C95.8185 34.4509 95.9003 34.3947 95.9672 34.3229C96.1133 34.1536 96.2153 33.9505 96.2639 33.7318C96.3382 33.4124 96.3908 33.0883 96.4213 32.7617L96.691 30.0229H99.7843V35.108H99.1414V30.3523L99.4291 30.6366H96.9608L97.2755 30.3523L97.0193 32.9106C96.9847 33.3281 96.914 33.7418 96.8079 34.1469C96.732 34.4344 96.5761 34.6942 96.3583 34.8959C96.1231 35.0878 95.8248 35.1844 95.5221 35.1666L95.4412 34.535Z" fill="white"/>
<path d="M102.185 30.0229V34.2236H102.059L104.995 30.0229H105.656V35.108H105.017V30.9118H105.125L102.189 35.108H101.56V30.0229H102.185Z" fill="white"/>
<path d="M108.043 35.108H107.4V30.0229H108.043V35.108ZM110.291 30.0229H111.146L108.533 32.6444V32.2293L111.195 35.108H110.332L107.859 32.4865L110.291 30.0229Z" fill="white"/>
<path d="M112.22 35.108L114.198 30.0229H114.841L116.806 35.108H116.105L114.468 30.799H114.558L112.922 35.108H112.22ZM113.232 33.7544V33.1362H115.804V33.7544H113.232Z" fill="white"/>
<path d="M121.361 31.0651C121.198 30.9168 121.011 30.7978 120.808 30.7132C120.592 30.633 120.363 30.5932 120.133 30.5959C119.804 30.5911 119.48 30.6786 119.198 30.8486C118.912 31.0147 118.677 31.2566 118.519 31.5479C118.354 31.8646 118.267 32.2168 118.267 32.5744C118.267 32.932 118.354 33.2842 118.519 33.6009C118.687 33.895 118.935 34.1346 119.234 34.2912C119.547 34.4572 119.896 34.5411 120.25 34.5349C120.454 34.5388 120.658 34.5098 120.853 34.4492C121.045 34.3832 121.227 34.2889 121.392 34.1694L121.725 34.6702C121.544 34.8397 121.327 34.9662 121.091 35.0402C120.819 35.1329 120.533 35.1787 120.246 35.1756C119.777 35.1812 119.314 35.0728 118.897 34.8597C118.504 34.6564 118.179 34.3429 117.962 33.9573C117.726 33.5346 117.608 33.0562 117.62 32.5722C117.611 32.0979 117.731 31.6301 117.966 31.2186C118.192 30.8336 118.512 30.5135 118.897 30.2891C119.274 30.0658 119.704 29.9489 120.142 29.9507C120.472 29.9426 120.799 30.0025 121.104 30.1266C121.347 30.2238 121.569 30.3679 121.756 30.5508L121.361 31.0651Z" fill="white"/>
<path d="M123.608 32.6174V31.9992H124.863C125.172 31.9942 125.479 32.0573 125.762 32.1842C126.013 32.2983 126.225 32.4853 126.369 32.7211C126.521 32.9721 126.598 33.2621 126.589 33.5559C126.596 33.8497 126.523 34.1399 126.378 34.3951C126.234 34.6271 126.024 34.8108 125.775 34.923C125.493 35.0496 125.186 35.1128 124.876 35.108H123.078V30.0229H123.721V34.5891L123.626 34.4944H124.822C125.119 34.5151 125.413 34.4233 125.645 34.2372C125.821 34.056 125.919 33.8132 125.919 33.5604C125.919 33.3075 125.821 33.0647 125.645 32.8836C125.413 32.6974 125.119 32.6056 124.822 32.6264L123.608 32.6174ZM128.019 30.0229V35.108H127.376V30.0229H128.019Z" fill="white"/>
<path d="M130.415 35.108H129.772V30.0229H130.415V35.108ZM133.306 32.852H130.298V32.2158H133.306V32.852ZM133.189 30.0455H133.832V35.108H133.189V30.0455Z" fill="white"/>
<path d="M140.028 34.4945V36.0962H139.412V35.0134L139.506 35.1081H135.595L135.689 35.0134V36.0962H135.078V34.4945H140.028ZM135.42 34.4945C135.617 34.2609 135.752 33.9818 135.815 33.6823C135.925 33.2373 136.003 32.7849 136.049 32.3287L136.274 30.0276H139.466V34.675H138.823V30.542L138.917 30.6367H136.544L136.858 30.3525L136.647 32.4551C136.607 32.8891 136.539 33.3201 136.445 33.7455C136.387 34.0176 136.279 34.2763 136.125 34.508L135.42 34.4945Z" fill="white"/>
<path d="M141.111 35.108L143.081 30.0229H143.724L145.67 35.108H144.969L143.332 30.799H143.422L141.786 35.108H141.111ZM142.127 33.7544V33.1362H144.695V33.7544H142.127Z" fill="white"/>
<path d="M69.7733 44.3846V46.0225H69.1619V44.908L69.2563 45.0028H65.1919V39.9177H65.8348V44.4794L65.7404 44.3846H69.7733ZM68.5639 44.5606V39.9177H69.2068V44.5606H68.5639Z" fill="white"/>
<path d="M71.7877 39.9177V44.1139H71.6798L74.6157 39.9177H75.2406V45.0028H74.6022V40.8021H74.7101L71.7742 45.0028H71.1448V39.9177H71.7877Z" fill="white"/>
<path d="M79.7769 40.211C80.1879 40.2139 80.5937 40.303 80.9683 40.4727C81.3388 40.6358 81.6599 40.8942 81.899 41.2217C82.1335 41.5711 82.2587 41.9827 82.2587 42.4039C82.2587 42.8251 82.1335 43.2367 81.899 43.586C81.6599 43.9136 81.3388 44.1719 80.9683 44.335C80.5937 44.5047 80.1879 44.5939 79.7769 44.5967V45.2239H79.1295V44.5967C78.7171 44.5934 78.3098 44.5043 77.9335 44.335C77.5617 44.174 77.2402 43.9152 77.0029 43.586C76.7712 43.2356 76.6477 42.8244 76.6477 42.4039C76.6477 41.9833 76.7712 41.5722 77.0029 41.2217C77.2402 40.8925 77.5617 40.6337 77.9335 40.4727C78.3098 40.3034 78.7171 40.2143 79.1295 40.211V39.5703H79.7634L79.7769 40.211ZM77.3311 42.4129C77.3187 42.7368 77.4171 43.0552 77.6098 43.3153C77.792 43.5484 78.0324 43.729 78.3067 43.8387C78.5765 43.9491 78.8651 44.0058 79.1564 44.0056V40.8111C78.8651 40.811 78.5765 40.8677 78.3067 40.9781C78.0258 41.087 77.7801 41.2711 77.5963 41.5105C77.4093 41.7728 77.3159 42.0907 77.3311 42.4129ZM79.7904 44.0011C80.0817 44.0013 80.3703 43.9446 80.6401 43.8342C80.9103 43.7238 81.1473 43.545 81.328 43.3153C81.5076 43.0488 81.6035 42.7345 81.6035 42.4129C81.6035 42.0912 81.5076 41.7769 81.328 41.5105C81.1456 41.2746 80.9034 41.0922 80.6266 40.9826C80.3568 40.8722 80.0682 40.8155 79.7769 40.8156L79.7904 44.0011Z" fill="white"/>
<path d="M85.3699 42.413C85.6667 42.4346 85.9607 42.3427 86.1927 42.1558C86.2868 42.07 86.3609 41.9645 86.4098 41.8468C86.4588 41.729 86.4814 41.6019 86.476 41.4745C86.4816 41.3477 86.4592 41.2212 86.4102 41.1041C86.3612 40.9871 86.2869 40.8824 86.1927 40.7977C85.9584 40.6159 85.6653 40.5276 85.3699 40.5495H84.228L84.3224 40.4548V45.0029H83.6794V39.9178H85.4239C85.7326 39.9122 86.0391 39.9722 86.3231 40.0938C86.5706 40.201 86.7805 40.3802 86.9256 40.6082C87.0763 40.8597 87.1512 41.1496 87.1414 41.4429C87.1476 41.7372 87.073 42.0276 86.9256 42.2821C86.7854 42.5219 86.575 42.7125 86.3231 42.8281C86.0401 42.9534 85.7332 43.015 85.4239 43.0086H84.2145V42.413H85.3699Z" fill="white"/>
<path d="M87.6719 44.4297C87.7695 44.4339 87.867 44.4172 87.9577 44.3806C88.0484 44.3441 88.1303 44.2885 88.1979 44.2177C88.3476 44.049 88.45 43.8435 88.4946 43.6221C88.5715 43.3047 88.6241 42.9819 88.652 42.6565L88.9218 39.9177H92.0195V45.0028H91.3766V40.2471L91.6598 40.5314H89.1915L89.5062 40.2471L89.25 42.8054C89.2177 43.2232 89.1469 43.637 89.0387 44.0417C88.9636 44.3296 88.8075 44.5896 88.5891 44.7907C88.3538 44.9826 88.0555 45.0791 87.7528 45.0614L87.6719 44.4297Z" fill="white"/>
<path d="M93.2964 45.0028L95.2656 39.9177H95.9086L97.8733 45.0028H97.1719L95.5354 40.6938H95.6253L93.9888 45.0028H93.2964ZM94.308 43.6492V43.031H96.8797V43.6447L94.308 43.6492Z" fill="white"/>
<path d="M104.554 44.3846L104.46 44.4794V39.9177H105.103V45.0028H99.1592V39.9177H99.8111V44.4794L99.7167 44.3846H104.554ZM101.807 44.5606V39.9177H102.45V44.5606H101.807Z" fill="white"/>
<path d="M106.42 40.5314V39.9177H110.669V40.5314H106.42ZM108.866 40.3554V45.0028H108.223V40.3554H108.866Z" fill="white"/>
<path d="M112.517 42.5121V41.894H113.771C114.081 41.8889 114.388 41.9521 114.67 42.079C114.922 42.1902 115.134 42.376 115.277 42.6114C115.429 42.8625 115.506 43.1524 115.498 43.4461C115.506 43.7401 115.433 44.0306 115.286 44.2854C115.144 44.5201 114.934 44.7058 114.684 44.8178C114.401 44.9444 114.094 45.0075 113.785 45.0028H111.986V39.9177H112.629V44.4794L112.535 44.3846H113.749C114.045 44.4054 114.339 44.3136 114.572 44.1274C114.663 44.0399 114.735 43.934 114.783 43.8166C114.831 43.6992 114.854 43.573 114.85 43.4461C114.854 43.3193 114.831 43.193 114.783 43.0756C114.735 42.9582 114.663 42.8523 114.572 42.7648C114.337 42.5822 114.045 42.4923 113.749 42.5121H112.517ZM116.927 39.9177V45.0028H116.285V39.9177H116.927Z" fill="white"/>
<path d="M120.376 42.4129C120.673 42.4337 120.966 42.3419 121.199 42.1558C121.29 42.0682 121.362 41.9623 121.41 41.8449C121.458 41.7275 121.481 41.6013 121.477 41.4744C121.483 41.348 121.461 41.222 121.413 41.105C121.365 40.9881 121.292 40.8832 121.199 40.7976C120.964 40.6167 120.671 40.5284 120.376 40.5495H119.229L119.324 40.4547V45.0028H118.694V39.9178H120.434C120.743 39.9126 121.049 39.9725 121.333 40.0938C121.578 40.2037 121.786 40.3824 121.931 40.6081C122.072 40.8647 122.145 41.1525 122.145 41.4451C122.145 41.7377 122.072 42.0255 121.931 42.2821C121.788 42.5175 121.576 42.7033 121.324 42.8145C121.042 42.94 120.735 43.0016 120.425 42.995H119.211V42.4129H120.376Z" fill="white"/>
<path d="M125.214 44.1004L123.001 39.9177H123.712L125.578 43.4326L125.214 44.1004ZM124.472 45.0028L125.128 43.5048L125.191 43.41L126.765 39.9177H127.462L125.164 45.0028H124.472Z" fill="white"/>
<path d="M131.589 44.4794L131.495 44.3846H134.143V45.0028H130.946V39.9177H134.143V40.5314H131.495L131.589 40.4366V44.4794ZM131.472 42.1151H134.012V42.7242H131.472V42.1151Z" fill="white"/>
<path d="M135.262 44.4297C135.358 44.4326 135.454 44.4153 135.543 44.3787C135.632 44.3422 135.713 44.2873 135.779 44.2177C135.926 44.047 136.028 43.8423 136.076 43.6221C136.151 43.3043 136.203 42.9816 136.233 42.6565L136.503 39.9177H139.596V45.0028H138.958V40.2471L139.241 40.5314H136.773L137.088 40.2471L136.831 42.8054C136.797 43.2229 136.726 43.6365 136.62 44.0417C136.541 44.328 136.386 44.5871 136.17 44.7907C135.935 44.9826 135.637 45.0791 135.334 45.0614L135.262 44.4297Z" fill="white"/>
<path d="M141.889 42.5121V41.894H143.148C143.458 41.8883 143.765 41.9515 144.047 42.079C144.299 42.1925 144.511 42.3777 144.659 42.6114C144.809 42.8634 144.885 43.1527 144.879 43.4461C144.887 43.7401 144.814 44.0306 144.668 44.2854C144.525 44.5201 144.315 44.7058 144.065 44.8178C143.782 44.9437 143.476 45.0068 143.166 45.0028H141.368V39.9177H142.006V44.4794L141.912 44.3846H143.112C143.407 44.406 143.7 44.3141 143.93 44.1274C144.025 44.0418 144.099 43.9364 144.148 43.8186C144.197 43.7008 144.219 43.5736 144.214 43.4461C144.217 43.3189 144.193 43.1925 144.145 43.0751C144.096 42.9576 144.023 42.8519 143.93 42.7648C143.698 42.5814 143.407 42.4913 143.112 42.5121H141.889ZM146.3 39.9177V45.0028H145.67V39.9177H146.3Z" fill="white"/>
<path d="M29.125 0.343018H20.4072V45.012H29.125V0.343018Z" fill="white"/>
<path d="M0 0.342998L0 9.0918L24.764 9.0918V0.342998L0 0.342998Z" fill="white"/>
<path d="M47.109 9.70996C49.6864 9.70996 51.7758 7.6131 51.7758 5.02649C51.7758 2.43988 49.6864 0.343018 47.109 0.343018C44.5316 0.343018 42.4421 2.43988 42.4421 5.02649C42.4421 7.6131 44.5316 9.70996 47.109 9.70996Z" fill="white"/>
<path d="M35.7792 9.70996C38.3566 9.70996 40.446 7.6131 40.446 5.02649C40.446 2.43988 38.3566 0.343018 35.7792 0.343018C33.2017 0.343018 31.1123 2.43988 31.1123 5.02649C31.1123 7.6131 33.2017 9.70996 35.7792 9.70996Z" fill="white"/>
</g>
<defs>
<clipPath id="clip0_6_1688">
<rect width="150" height="46" fill="white"/>
</clipPath>
</defs>
</svg>
