<svg width="34" height="50" viewBox="0 0 34 50" fill="none" xmlns="http://www.w3.org/2000/svg">
<g clip-path="url(#clip0_6_1676)">
<path fill-rule="evenodd" clip-rule="evenodd" d="M28.3967 0L32.8812 4.46023V32.7752H4.46969L0 28.3209V0H28.3967Z" fill="#E95B0B"/>
<path fill-rule="evenodd" clip-rule="evenodd" d="M4.51994 38.2052C4.97707 38.189 5.43323 38.258 5.86499 38.4086C6.28795 38.564 6.65451 38.8423 6.91738 39.2075C7.21522 39.6165 7.43379 40.0774 7.56182 40.5665C7.70676 41.1368 7.7773 41.7234 7.7717 42.3117C7.78094 42.9663 7.6943 43.6188 7.51452 44.2485C7.49583 44.343 7.46607 44.435 7.42583 44.5226C7.26872 44.9744 7.04559 45.4005 6.76366 45.7873C6.45366 46.2129 6.0489 46.5611 5.5812 46.8043C5.11193 47.0288 4.59691 47.1418 4.07652 47.1345C3.61799 47.1412 3.16432 47.0402 2.75216 46.8397C2.6872 46.8057 2.62405 46.7683 2.56297 46.7277C2.33904 46.5967 2.13247 46.4383 1.94809 46.256V50.0087H0.0827637V38.217C1.56084 38.217 3.03891 38.217 4.51698 38.217L4.51994 38.2052ZM1.93331 44.6111C2.21468 44.9209 2.54162 45.1863 2.90293 45.3982C3.19446 45.5658 3.52422 45.6561 3.86072 45.6605C4.14486 45.6679 4.42572 45.5987 4.67366 45.4601C4.71145 45.4425 4.74715 45.4207 4.78008 45.3952C4.98 45.2463 5.15126 45.0625 5.28558 44.8528C5.36961 44.704 5.44272 44.5493 5.50434 44.39C5.57711 44.2127 5.63351 44.0292 5.67284 43.8417C5.76797 43.388 5.81454 42.9255 5.81178 42.462C5.81178 41.5128 5.66692 40.7994 5.38609 40.3395C5.2658 40.1361 5.09209 39.9693 4.88371 39.857C4.67533 39.7448 4.44018 39.6915 4.20363 39.7027H1.93331V44.614V44.6111Z" fill="white"/>
<path fill-rule="evenodd" clip-rule="evenodd" d="M30.7321 38.217H32.828L29.3457 42.1555L33.6735 46.937H31.1637L27.0547 42.3825L30.7321 38.217Z" fill="white"/>
<path fill-rule="evenodd" clip-rule="evenodd" d="M25.0564 46.7721V35.396H26.9217V46.7721V46.9372H26.7503H25.219H25.0564V46.7721Z" fill="white"/>
<path fill-rule="evenodd" clip-rule="evenodd" d="M17.5771 38.2171H19.4395V39.4523L19.4809 39.3933C19.6011 39.2505 19.7315 39.1165 19.8711 38.9924C20.5558 38.3573 21.4608 38.0118 22.3957 38.0284C22.6486 38.0292 22.9013 38.045 23.1524 38.0756C23.4126 38.1139 23.6964 38.1611 23.9949 38.22L24.1221 38.2554V40.9321H22.644V39.7294C22.5844 39.718 22.5242 39.7102 22.4637 39.7058C22.375 39.7058 22.2804 39.6881 22.1917 39.6881C21.9286 39.6864 21.6663 39.7181 21.4113 39.7824C21.1726 39.8503 20.944 39.9495 20.7314 40.0772C20.5039 40.2255 20.2928 40.3975 20.1017 40.5902C19.8665 40.8327 19.6492 41.0918 19.4513 41.3655V46.9371H17.589V38.2171H17.5771Z" fill="white"/>
<path fill-rule="evenodd" clip-rule="evenodd" d="M13.82 46.0351C13.4381 46.3416 13.0153 46.5936 12.5637 46.7839C12.11 46.9757 11.6227 47.0759 11.13 47.0787C10.3951 47.1073 9.67637 46.8589 9.11682 46.383C8.86045 46.1647 8.65383 45.8944 8.51081 45.59C8.37594 45.2749 8.30559 44.9362 8.30388 44.5936C8.29883 44.1538 8.40779 43.7202 8.62019 43.3348C8.6527 43.2788 8.69113 43.2228 8.72956 43.155C8.9456 42.8381 9.22301 42.5675 9.54546 42.3591C9.74841 42.2174 9.96654 42.0988 10.1958 42.0053C10.4341 41.8967 10.6814 41.8089 10.9349 41.7429C11.5151 41.6009 12.1111 41.5326 12.7085 41.5395H13.489V40.9765C13.4921 40.7392 13.4602 40.5028 13.3944 40.2749L13.3648 40.1864C13.3193 40.0588 13.2444 39.9437 13.146 39.8504V39.8356C13.1181 39.8023 13.0826 39.7761 13.0426 39.759C13.0092 39.7252 12.9689 39.699 12.9243 39.6823C12.6192 39.5493 12.2875 39.4877 11.9547 39.5025C11.5139 39.5041 11.0753 39.5656 10.6511 39.6853C10.1786 39.8156 9.72171 39.9965 9.28828 40.2247L9.04587 40.3515V38.6623L9.16412 38.6181C9.32375 38.5621 9.47451 38.5031 9.61345 38.4619C9.75239 38.4206 9.90907 38.3705 10.0717 38.3292C10.7849 38.1364 11.5203 38.0373 12.2592 38.0344C13.3825 38.0344 14.1718 38.2614 14.6419 38.7183C14.7139 38.7806 14.7775 38.8519 14.8311 38.9306C14.893 39.0122 14.9493 39.0979 14.9996 39.1871C15.2632 39.7623 15.3858 40.3918 15.3572 41.0236V44.5346C15.3578 44.7415 15.3696 44.9481 15.3927 45.1537C15.4093 45.269 15.4452 45.3806 15.4991 45.4839C15.5044 45.5023 15.5134 45.5193 15.5257 45.534C15.5494 45.534 15.5583 45.5664 15.573 45.5753C15.6858 45.6579 15.8235 45.6995 15.9633 45.6932C15.9958 45.6932 16.0579 45.6784 16.1229 45.6696L16.4185 45.6165L16.5811 45.5782V46.8635C16.5322 46.8847 16.4804 46.8986 16.4274 46.9048C16.3535 46.9284 16.2973 46.949 16.2204 46.9667C15.9632 47.0445 15.6969 47.0881 15.4282 47.0964C15.1773 47.0986 14.9284 47.0526 14.6951 46.9608C14.6237 46.9287 14.5554 46.8902 14.4911 46.8458C14.1954 46.6521 13.9656 46.3735 13.8319 46.0469L13.82 46.0351ZM13.4919 44.6968V42.8219H13.1963C12.1646 42.8219 11.4226 42.9516 10.9112 43.2316C10.6992 43.3297 10.5205 43.4875 10.3971 43.6854C10.2737 43.8834 10.2109 44.1129 10.2165 44.346C10.2135 44.5133 10.2436 44.6796 10.3052 44.8353C10.3214 44.8557 10.3316 44.8802 10.3348 44.9061C10.3929 45.0184 10.4722 45.1185 10.5683 45.2009C10.6008 45.2303 10.6392 45.2539 10.6747 45.2805C10.7102 45.307 10.7486 45.3306 10.7841 45.3601C11.0127 45.4761 11.2666 45.5339 11.5231 45.5281C12.1144 45.5281 12.7884 45.2333 13.489 44.685L13.4919 44.6968Z" fill="white"/>
<path fill-rule="evenodd" clip-rule="evenodd" d="M10.5002 7.73824V4.58984V4.27441H10.8225H13.8141H14.1274V4.58984V7.73824V8.05662H13.8141H10.8225H10.5002V7.73824Z" fill="white"/>
<path fill-rule="evenodd" clip-rule="evenodd" d="M28.3316 28.1115C27.5837 28.2441 26.8535 28.3414 26.1115 28.4063C25.3696 28.4711 24.6335 28.5094 23.9476 28.5094C22.8925 28.5263 21.8391 28.4144 20.8112 28.1763C20.0492 28.0047 19.3439 27.6414 18.7626 27.121C18.6263 26.9755 18.4989 26.8219 18.3812 26.6611C18.2654 26.486 18.1608 26.3039 18.0679 26.1157C17.5978 25.1311 17.3584 23.7574 17.3584 21.9591V8.05664H20.9885V11.0871H28.2666V14.0026H20.9885V22.4603C20.9885 22.9084 20.9885 23.2857 21.027 23.5923V23.7338C21.0417 23.9123 21.0733 24.089 21.1216 24.2615C21.1335 24.3012 21.1493 24.3398 21.1689 24.3764C21.1689 24.4118 21.2073 24.4442 21.225 24.4796C21.359 24.6883 21.534 24.8678 21.7394 25.0073C22.0966 25.2253 22.4885 25.3808 22.8982 25.4672C23.441 25.5777 23.9938 25.6321 24.5477 25.6293H24.5684C25.174 25.6277 25.779 25.5922 26.3806 25.5232L26.6762 25.4908C27.1669 25.42 27.6694 25.3286 28.1542 25.2136L28.5504 25.1223V28.0702L28.2814 28.1203L28.3316 28.1115Z" fill="white"/>
<path fill-rule="evenodd" clip-rule="evenodd" d="M10.509 27.8138V13.9909H4.85686H4.5376V13.6726V11.438V11.1167H4.85686H13.814H14.1303V11.438V27.8138V28.1263H13.814H10.8283H10.509V27.8138Z" fill="white"/>
</g>
<defs>
<clipPath id="clip0_6_1676">
<rect width="33.6735" height="50" fill="white"/>
</clipPath>
</defs>
</svg>
