<svg width="188" height="188" viewBox="0 0 188 188" fill="none" xmlns="http://www.w3.org/2000/svg">
<path d="M187.554 61.5964L61.113 0L2.60969e-05 125.449L126.441 187.046L187.554 61.5964Z" fill="#266D45"/>
<path d="M124.683 32.3478L124.495 33.0871C117.841 59.3152 114.514 72.4292 118.121 84.569C118.497 85.8336 118.927 87.0815 119.41 88.3092C124.048 100.094 134.748 108.374 156.147 124.934C129.844 118.273 116.693 114.942 104.522 118.586C103.338 118.941 102.168 119.343 101.017 119.791C89.1787 124.404 80.8252 135.159 64.1181 156.671C70.7351 130.35 74.0436 117.189 70.3826 105.029C70.0055 103.776 69.575 102.54 69.0925 101.324C64.4087 89.5203 53.6415 81.2612 32.1072 64.743L31.2668 64.0984C58.3457 71.0793 71.8851 74.5698 84.2682 70.7874C85.2569 70.4854 86.2351 70.1501 87.2013 69.7822C99.3015 65.1742 107.762 54.2321 124.683 32.3478Z" fill="white"/>
</svg>
