<svg width="127" height="127" viewBox="0 0 127 127" fill="none" xmlns="http://www.w3.org/2000/svg">
<path d="M111.032 -0.000280238L0.130493 15.5757L15.7167 126.404L126.618 110.829L111.032 -0.000280238Z" fill="#DE0541"/>
<path d="M33.0698 81.7154L50.185 79.3116L47.7851 62.2467C47.561 60.662 47.6515 59.0488 48.0515 57.4991C48.4516 55.9495 49.1533 54.4938 50.1165 53.2152C51.0798 51.9367 52.2857 50.8604 53.6654 50.0479C55.0451 49.2354 56.5714 48.7025 58.1573 48.4797L75.2628 46.0773L72.8547 28.9537C72.6318 27.3688 72.7236 25.7557 73.1249 24.2064C73.5261 22.657 74.229 21.2019 75.1933 19.9241C76.1576 18.6464 77.3644 17.5711 78.7448 16.7597C80.1251 15.9482 81.6519 15.4166 83.2379 15.1952L100.872 12.7184L103.351 30.3414C103.798 33.54 102.957 36.7852 101.012 39.3645C99.067 41.9438 96.1773 43.6464 92.9773 44.0985L75.862 46.5023L78.2674 63.6064C78.4931 65.1921 78.4038 66.8068 78.0047 68.358C77.6056 69.9092 76.9045 71.3667 75.9415 72.6471C74.9785 73.9274 73.7725 75.0055 72.3923 75.8198C71.0122 76.6341 69.485 77.1687 67.898 77.3929L50.7828 79.7967L53.1882 96.9007C53.6381 100.1 52.7979 103.346 50.8525 105.926C48.907 108.506 46.0157 110.208 42.8146 110.658L25.1801 113.135L22.7018 95.5116C22.4734 93.9251 22.5606 92.3091 22.9584 90.7563C23.3562 89.2035 24.0568 87.7444 25.02 86.4627C25.9832 85.181 27.1901 84.1019 28.5714 83.2873C29.9528 82.4726 31.4814 81.9384 33.0698 81.7154Z" fill="white"/>
<path d="M30.3815 22.2494C31.9673 22.0267 33.5816 22.1184 35.1319 22.5195C36.6823 22.9205 38.1383 23.6229 39.4169 24.5866C40.6955 25.5502 41.7715 26.7562 42.5835 28.1357C43.3954 29.5151 43.9274 31.0409 44.149 32.6259L46.6274 50.2489L28.9928 52.7256C25.7917 53.1752 22.543 52.3356 19.9614 50.3914C17.3797 48.4473 15.6766 45.5579 15.2267 42.3589L12.7483 24.7359L30.3815 22.2494Z" fill="white"/>
<path d="M110.721 82.7501L113.199 100.373L95.5649 102.85C92.3611 103.3 89.1098 102.459 86.526 100.514C83.9423 98.568 82.2378 95.6763 81.7876 92.4746L79.3092 74.8517L96.9437 72.3749C100.147 71.925 103.399 72.7653 105.983 74.711C108.566 76.6567 110.271 79.5485 110.721 82.7501Z" fill="white"/>
</svg>
