<svg width="80" height="79" viewBox="0 0 80 79" fill="none" xmlns="http://www.w3.org/2000/svg">
<path d="M53.0111 2.36601L17.3614 7.37624C8.06394 8.68292 1.58613 17.2793 2.8928 26.5768L7.78843 61.411C9.0951 70.7084 17.6915 77.1862 26.9889 75.8796L62.6386 70.8693C71.936 69.5627 78.4139 60.9663 77.1072 51.6688L72.2116 16.8346C70.9049 7.53716 62.3085 1.05934 53.0111 2.36601Z" fill="#DE0541"/>
<path d="M35.2163 4.8669C41.1842 21.4541 56.5116 33.168 74.1027 34.309C57.5238 40.2487 45.9968 55.4536 44.7951 73.0234C38.8016 56.478 23.5488 45.0768 5.98357 44.0124L5.33772 43.9732L5.66297 43.8583C22.4207 37.9346 34.0421 22.602 35.2163 4.8669Z" fill="white"/>
</svg>
