<svg width="118" height="117" viewBox="0 0 118 117" fill="none" xmlns="http://www.w3.org/2000/svg">
<path d="M105.708 2.68006e-05L0 11.7855L11.6469 116.25L117.355 104.464L105.708 2.68006e-05Z" fill="#DE0541"/>
<path d="M52.8998 5.88766V5.88766C57.1699 18.9135 59.3049 25.4264 62.7362 30.6045C68.0626 38.6423 75.7802 44.8031 84.7984 48.2163C90.608 50.4151 97.2998 51.0417 110.683 52.2949V52.2949V52.2949C97.8539 56.4815 91.4392 58.5747 86.251 62.0054C78.2454 67.2989 72.0961 74.9638 68.6642 83.9265C66.44 89.7352 65.7892 96.4312 64.4877 109.823V109.823V109.823C60.3123 97.1787 58.2245 90.8566 54.829 85.7278C49.4429 77.5925 41.6097 71.3804 32.4613 67.9893C26.6938 65.8514 20.0623 65.2589 6.79921 64.0738L5.81992 63.9863L6.31896 63.8258C19.3498 59.6346 25.8653 57.539 31.1384 54.0513C39.113 48.7769 45.2459 41.1487 48.6844 32.2273C50.9581 26.3281 51.6054 19.5146 52.8998 5.88766V5.88766Z" fill="white"/>
</svg>
