<svg width="80" height="80" viewBox="0 0 80 80" fill="none" xmlns="http://www.w3.org/2000/svg">
<path d="M53.4744 2.22684L15.8443 7.51542C7.09373 8.74523 0.996959 16.8359 2.22677 25.5865L7.51535 63.2167C8.74516 71.9672 16.8358 78.064 25.5864 76.8342L63.2166 71.5456C71.9671 70.3158 78.0639 62.2251 76.8341 53.4746L71.5455 15.8444C70.3157 7.0938 62.225 0.997033 53.4744 2.22684Z" fill="#DE0541"/>
<path d="M20.5887 51.1097L31.2865 49.6062L29.7865 38.9328C29.6464 37.9417 29.7029 36.9327 29.953 35.9635C30.203 34.9942 30.6416 34.0837 31.2437 33.2841C31.8458 32.4844 32.5995 31.8112 33.4619 31.303C34.3243 30.7948 35.2783 30.4615 36.2696 30.3222L46.9613 28.8196L45.4561 18.1095C45.3168 17.1182 45.3742 16.1093 45.625 15.1402C45.8758 14.1712 46.3152 13.2611 46.9179 12.4619C47.5206 11.6627 48.2749 10.9901 49.1377 10.4826C50.0005 9.97512 50.9548 9.64261 51.9462 9.5041L62.9686 7.955L64.5177 18.9774C64.7972 20.978 64.2714 23.0077 63.0558 24.621C61.8401 26.2342 60.0339 27.2992 58.0338 27.5819L47.3359 29.0854L48.8394 39.7833C48.9804 40.7751 48.9246 41.785 48.6751 42.7552C48.4257 43.7255 47.9875 44.6371 47.3856 45.4379C46.7836 46.2386 46.0298 46.913 45.1671 47.4223C44.3045 47.9316 43.3499 48.2659 42.358 48.4062L31.6601 49.9096L33.1636 60.6075C33.4448 62.6084 32.9197 64.639 31.7037 66.2527C30.4877 67.8663 28.6805 68.9308 26.6797 69.212L15.6572 70.7611L14.1081 59.7387C13.9654 58.7464 14.0199 57.7356 14.2685 56.7644C14.5172 55.7932 14.9551 54.8806 15.5571 54.0789C16.1592 53.2773 16.9136 52.6024 17.777 52.0929C18.6404 51.5833 19.5959 51.2492 20.5887 51.1097Z" fill="white"/>
<path d="M18.9083 13.9162C19.8995 13.7769 20.9085 13.8343 21.8775 14.0852C22.8466 14.336 23.7567 14.7753 24.5559 15.378C25.355 15.9808 26.0276 16.7351 26.5351 17.5978C27.0426 18.4606 27.3751 19.415 27.5137 20.4063L29.0628 31.4287L18.0403 32.9778C16.0395 33.259 14.0089 32.7339 12.3952 31.5179C10.7816 30.3019 9.71703 28.4947 9.43583 26.4939L7.88673 15.4715L18.9083 13.9162Z" fill="white"/>
<path d="M69.1244 51.757L70.6735 62.7794L59.651 64.3285C57.6486 64.61 55.6163 64.0844 54.0013 62.8674C52.3864 61.6505 51.321 59.8418 51.0396 57.8393L49.4905 46.8169L60.5129 45.2678C62.5154 44.9864 64.5476 45.512 66.1626 46.7289C67.7776 47.9459 68.8429 49.7546 69.1244 51.757Z" fill="white"/>
</svg>
