<svg width="70" height="70" viewBox="0 0 70 70" fill="none" xmlns="http://www.w3.org/2000/svg">
<path d="M53.6102 0.00610352H16.0061C7.16955 0.00610352 0.00610352 7.16954 0.00610352 16.0061V53.9999C0.00610352 62.8365 7.16954 69.9999 16.0061 69.9999H53.6102C62.4467 69.9999 69.6102 62.8365 69.6102 54V16.0061C69.6102 7.16955 62.4468 0.00610352 53.6102 0.00610352Z" fill="#266D45"/>
<path d="M29.6083 9.94165L39.4819 9.94165V-2.76566e-05L29.6083 -2.76566e-05V9.94165Z" fill="white"/>
<path d="M9.86734 9.94165L19.741 9.94165V-2.76566e-05L9.86734 -2.76566e-05L9.86734 9.94165Z" fill="white"/>
<path d="M19.7533 19.871H29.627V9.92931L19.7533 9.92931V19.871Z" fill="white"/>
<path d="M-8.67844e-05 19.871H9.87354L9.87354 9.92931L-8.67844e-05 9.92931L-8.67844e-05 19.871Z" fill="white"/>
<path d="M29.6083 29.8064H39.4819V19.8647H29.6083V29.8064Z" fill="white"/>
<path d="M9.86734 29.8064H19.741V19.8647H9.86734L9.86734 29.8064Z" fill="white"/>
<path d="M19.7533 39.7357H29.627V29.794H19.7533V39.7357Z" fill="white"/>
<path d="M-8.67844e-05 39.7357H9.87354L9.87354 29.794H-8.67844e-05L-8.67844e-05 39.7357Z" fill="white"/>
<path d="M59.7552 30.2704H49.8816V40.2121H59.7552V30.2704Z" fill="white"/>
<path d="M49.8692 40.1936H39.9956V50.1353H49.8692V40.1936Z" fill="white"/>
<path d="M69.6163 40.1936H59.7427V50.1353H69.6163V40.1936Z" fill="white"/>
<path d="M40.0079 50.1724H30.1343V60.114H40.0079V50.1724Z" fill="white"/>
<path d="M59.7552 50.129H49.8816V60.0707H59.7552V50.129Z" fill="white"/>
<path d="M49.8692 60.0583H39.9956V70H49.8692V60.0583Z" fill="white"/>
<path d="M69.6163 60.0583H59.7427V70C65.1957 70 69.6163 65.5114 69.6163 60.0583Z" fill="white"/>
</svg>
