<svg width="85" height="86" viewBox="0 0 85 86" fill="none" xmlns="http://www.w3.org/2000/svg">
<path d="M51.5878 4.08629L15.4694 13.6271C6.92589 15.8839 1.8295 24.6393 4.08629 33.1828L13.7912 69.9226C16.048 78.4661 24.8034 83.5625 33.3469 81.3057L69.4653 71.7649C78.0088 69.5081 83.1052 60.7527 80.8484 52.2092L71.1435 15.4694C68.8867 6.92588 60.1313 1.82949 51.5878 4.08629Z" fill="#DE0541"/>
<path fill-rule="evenodd" clip-rule="evenodd" d="M25.9093 28.3399C23.7675 29.8389 22.8048 32.0749 22.1629 34.6544C22.3302 34.6632 22.4779 34.6739 22.6129 34.6837C22.9015 34.7046 23.132 34.7213 23.3719 34.7058C27.0913 34.4841 29.5527 36.0584 31.0474 39.563C31.8951 41.703 33.1273 43.6696 34.6833 45.3658C34.8733 45.5598 35.0676 45.7449 35.2658 45.9208C35.1689 46.1472 35.0767 46.3806 34.9893 46.621C34.1609 48.9333 34.2953 51.6442 34.422 54.1967C34.4314 54.3877 34.4409 54.5778 34.4498 54.7668C34.6222 58.4929 33.3486 60.568 29.7538 61.4793C29.6722 61.5008 29.606 61.5804 29.5185 61.6856C29.4714 61.7423 29.418 61.8064 29.3528 61.8729C29.9926 62.9438 30.8388 63.877 31.8423 64.6182C32.8457 65.3594 33.9864 65.8939 35.1982 66.1907C38.231 66.9555 39.5908 64.8028 41.0006 62.571C41.0871 62.4341 41.1738 62.2969 41.261 62.16C42.8191 65.4688 45.102 67.4803 48.3495 68.3037C50.7598 65.9091 51.6051 62.9626 51.4491 59.5647C51.9114 59.7294 52.3647 59.9171 52.812 60.1024C54.7476 60.9043 56.5713 61.6597 58.5271 60.2967C60.663 58.7992 61.6257 56.5633 62.2676 53.9838C62.081 53.9754 61.9177 53.9635 61.7688 53.9526C61.5045 53.9333 61.2859 53.9173 61.0646 53.9308C57.3392 54.1541 54.8837 52.5782 53.3891 49.0736C52.5366 46.9352 51.3026 44.9695 49.7471 43.2724C49.5583 43.0795 49.3652 42.8955 49.1681 42.7205C49.2659 42.4926 49.359 42.2577 49.4471 42.0156C50.2717 39.7141 50.1372 37.0192 50.0104 34.4774C50.0003 34.2743 49.9902 34.0722 49.9806 33.8713C49.8082 30.1453 51.0819 28.0701 54.6767 27.1589C54.7582 27.1374 54.8245 27.0578 54.912 26.9526C54.9591 26.8959 55.0125 26.8318 55.0777 26.7653C54.4388 25.6945 53.593 24.7618 52.5896 24.0215C51.5863 23.2811 50.4455 22.7481 49.2339 22.4535C46.1993 21.683 44.8394 23.8358 43.4295 26.0677C43.3431 26.2045 43.2566 26.3415 43.1694 26.4782C41.613 23.1753 39.3285 21.1578 36.0825 20.3405C33.6707 22.7291 32.8253 25.6756 32.9814 29.0735C32.5232 28.9096 32.0735 28.723 31.6295 28.5388C29.6925 27.7351 27.8632 26.9761 25.9093 28.3399ZM35.2658 45.9208C38.0384 39.4433 44.6274 38.6878 49.1681 42.7205C46.39 49.1935 39.8054 49.9491 35.2658 45.9208Z" fill="white"/>
</svg>
