<svg width="80" height="80" viewBox="0 0 80 80" fill="none" xmlns="http://www.w3.org/2000/svg">
<path d="M62.948 9.28782L27.8255 3.10209C19.1229 1.5694 10.8255 7.38177 9.29281 16.0844L3.10189 51.2364C1.5692 59.939 7.38158 68.2364 16.0842 69.7691L51.2068 75.9548C59.9094 77.4875 68.2067 71.6751 69.7394 62.9725L75.9304 27.8205C77.463 19.1179 71.6507 10.8205 62.948 9.28782Z" fill="#266D45"/>
<path d="M71.4834 53.1048L14.6162 64.2001C7.72895 65.5439 1.63568 59.5615 2.8528 52.6507L3.04669 51.5498L74.2034 37.6607L71.4834 53.1048Z" fill="white"/>
<path d="M72.6659 46.5271L9.19438 17.0562L9.64192 14.515C10.7813 8.04562 17.7427 4.41326 23.7009 7.1792L75.3714 31.1655L72.6659 46.5271Z" fill="white"/>
</svg>
